<?xml version="1.0" standalone="no"?>
<!DOCTYPE svg PUBLIC "-//W3C//DTD SVG 1.1//EN" "http://www.w3.org/Graphics/SVG/1.1/DTD/svg11.dtd" >
<svg xmlns="http://www.w3.org/2000/svg">
<metadata>
This is a custom SVG webfont generated by Font Squirrel.
Copyright   : 2000 AlbertJan Pool published by Fontshop International for the FontFont library
</metadata>
<defs>
<font id="DINCondBoldRegular" horiz-adv-x="817" >
<font-face units-per-em="2048" ascent="1638" descent="-410" />
<missing-glyph horiz-adv-x="366" />
<glyph unicode=" "  horiz-adv-x="366" />
<glyph unicode="&#x09;" horiz-adv-x="366" />
<glyph unicode="&#xa0;" horiz-adv-x="366" />
<glyph unicode="!" horiz-adv-x="526" d="M160 0v252h254v-252h-254zM178 410v1048h217v-1048h-217z" />
<glyph unicode="&#x22;" horiz-adv-x="894" d="M147 1047v411h209v-411h-209zM539 1047v411h206v-411h-206z" />
<glyph unicode="#" horiz-adv-x="1245" d="M96 412v204h172l37 261h-145l-2 206h180l53 375h227l-55 -375h219l56 375h225l-53 -375h139v-206h-172l-37 -261h145v-204h-178l-59 -412h-227l59 412h-219l-60 -412h-225l60 412h-140zM494 616h219l39 261h-220z" />
<glyph unicode="$" horiz-adv-x="919" d="M78 395h229q0 -117 41 -164q35 -39 107 -38q74 0 108 40q41 47 41 162q0 117 -25.5 161t-111.5 79l-174 72q-113 47 -158 123.5t-45 242.5q0 203 119 309q63 57 147 76v193h203v-191q98 -18 162 -78q102 -100 102 -317h-229q0 111 -35 156q-33 43 -102 43q-61 0 -99 -41 q-39 -45 -39 -144q0 -90 23 -128t98 -68l172 -70q131 -53 176.5 -138t45.5 -272q0 -229 -95 -321q-66 -66 -180 -86v-229h-203v227q-117 18 -186 88q-92 92 -92 313z" />
<glyph unicode="%" horiz-adv-x="1499" d="M96 956v273q0 117 75 181.5t185.5 64.5t185 -64.5t74.5 -181.5v-273q0 -117 -74.5 -181t-185 -64t-185.5 64t-75 181zM272 961q0 -92 84 -93q82 0 82 93v264q0 92 -82 92q-84 0 -84 -92v-264zM414 0l508 1458h168l-508 -1458h-168zM883 229v273q0 117 74.5 181.5 t185 64.5t185.5 -65t75 -181v-273q0 -117 -75 -181t-185.5 -64t-185 64t-74.5 181zM1061 233q0 -92 82 -92t82 92v265q0 92 -82 92t-82 -92v-265z" />
<glyph unicode="&#x26;" horiz-adv-x="1021" d="M70 358q0 219 217 441q-80 106 -117 184t-37 164q0 156 82 241t209 85q143 0 219 -85t76 -221q0 -121 -46 -212t-141 -189l175 -268q49 104 59 268h186q-10 -256 -125 -461l191 -305h-227l-80 129q-129 -145 -299 -145q-152 0 -247 101t-95 273zM272 373q0 -86 44 -140.5 t114 -54.5q92 0 174 117l-211 328q-121 -123 -121 -250zM328 1155q0 -86 96 -215q53 59 76.5 106.5t23.5 116.5q0 51 -27.5 83t-70.5 32q-45 0 -71.5 -33t-26.5 -90z" />
<glyph unicode="'" horiz-adv-x="505" d="M147 1047v411h209v-411h-209z" />
<glyph unicode="(" horiz-adv-x="542" d="M98 246v966q0 156 49 242q43 74 166 197l146 -146q-86 -86 -115 -137t-29 -168v-942q0 -117 29 -168t115 -137l-146 -146q-125 125 -166 197q-49 86 -49 242z" />
<glyph unicode=")" horiz-adv-x="542" d="M84 -47q90 90 115 137q31 51 30 168v942q0 117 -30 168q-25 47 -115 137l147 146q129 -133 164 -197q51 -90 51 -242v-966q0 -152 -51 -242q-35 -63 -164 -197z" />
<glyph unicode="*" horiz-adv-x="854" d="M88 981l201 104l-201 105l76 135l192 -121l-8 258h158l-8 -258l190 121l78 -135l-201 -105l201 -104l-78 -133l-190 119l8 -258h-158l8 258l-192 -119z" />
<glyph unicode="+" horiz-adv-x="935" d="M90 487v207h275v275h206v-275h275v-207h-275v-274h-206v274h-275z" />
<glyph unicode="," horiz-adv-x="468" d="M117 254h235v-387l-235 -174v561z" />
<glyph unicode="-" horiz-adv-x="604" d="M96 487v207h414v-207h-414z" />
<glyph unicode="." horiz-adv-x="479" d="M115 0v252h252v-252h-252z" />
<glyph unicode="/" horiz-adv-x="610" d="M12 -152l379 1762h205l-379 -1762h-205z" />
<glyph unicode="0" horiz-adv-x="821" d="M86 311v836q0 154 92 242q90 86 234 86q141 0 231 -86q92 -88 92 -242v-836q0 -154 -92 -241q-90 -86 -231 -86q-143 0 -234 86q-92 87 -92 241zM303 303q0 -59 31 -92t78 -33t76.5 32t29.5 93v852q0 61 -29.5 93t-76.5 32t-78 -33t-31 -92v-852z" />
<glyph unicode="1" horiz-adv-x="821" d="M143 1036v246l219 176h218v-1458h-218v1204z" />
<glyph unicode="2" horiz-adv-x="821" d="M90 1061v86q0 156 90 242t236 86q141 0 225 -78q96 -90 96 -252q0 -166 -80 -320l-329 -630h409v-195h-641v184l365 709q59 111 59 260q0 61 -28.5 94t-75.5 33t-78 -33t-31 -92v-94h-217z" />
<glyph unicode="3" horiz-adv-x="821" d="M84 311v86h217v-94q0 -59 30.5 -92t78.5 -33q49 0 77 37q35 45 35 215t-33 213q-27 37 -81 37h-72v182h72q45 0 69 29q33 37 33 184q0 135 -29 172q-27 33 -71 33q-43 0 -71 -30.5t-28 -86.5v-102h-217v88q0 156 90 242q88 84 226 84q141 0 223 -82q94 -94 94 -303 q0 -160 -37 -232q-27 -51 -80 -86q59 -43 84 -88q45 -80 45 -268q0 -137 -16 -212t-80 -136q-88 -84 -233.5 -84t-235.5 85.5t-90 241.5z" />
<glyph unicode="4" horiz-adv-x="821" d="M49 227v195l375 1036h211l-363 -1036h183v260h217v-260h100v-195h-100v-227h-217v227h-406z" />
<glyph unicode="5" horiz-adv-x="821" d="M86 311v72h217v-100q0 -63 29.5 -95t79.5 -32q51 0 80 39q33 43 32 276q0 213 -28 258q-27 45 -84 45q-47 0 -78 -33.5t-31 -91.5v-31h-207v840h629v-194h-430v-392q37 47 76 70q49 27 104 27q127 0 197 -88q43 -53 56 -144.5t13 -244.5q0 -119 -4 -178.5t-26.5 -127 t-67.5 -112.5q-90 -90 -231 -90q-145 0 -234 84q-92 87 -92 243z" />
<glyph unicode="6" horiz-adv-x="821" d="M82 442q0 184 59 344l256 672h226l-240 -590q33 25 90 25q123 0 193 -90q41 -53 57 -128t16 -233q0 -242 -69 -342q-82 -117 -260 -116q-172 0 -254 116q-43 61 -58.5 135t-15.5 207zM299 444q0 -184 33 -229q29 -37 80 -37t77 37q33 43 33 229q0 190 -33 234 q-27 37 -78 37t-79 -37q-33 -44 -33 -234z" />
<glyph unicode="7" horiz-adv-x="821" d="M68 1069v389h680v-180l-383 -1278h-218l383 1264h-254v-195h-208z" />
<glyph unicode="8" horiz-adv-x="821" d="M82 412q0 180 43 258q23 47 86 92q-51 37 -80 90q-39 76 -39 227q0 217 94 312q84 84 224 84q141 0 225 -84q94 -94 94 -312q0 -152 -39 -227q-29 -53 -80 -90q57 -43 86 -92q43 -78 43 -258q0 -133 -18.5 -208t-77.5 -134q-86 -86 -231 -86q-147 0 -234 86 q-59 59 -77.5 134t-18.5 208zM299 422q0 -166 33 -209q29 -35 80 -35q49 0 77 35q33 41 33 209q0 174 -33 215q-29 35 -77 35q-51 0 -80 -35q-33 -41 -33 -215zM309 1069q0 -156 37 -190q25 -25 66 -25t65 25q6 6 11.5 13t9.5 17.5t6 18.5t4 22l3 22q1 7 1 24v24v26v23 q0 145 -31 182q-23 29 -69 29q-49 0 -72 -29q-31 -37 -31 -182z" />
<glyph unicode="9" horiz-adv-x="821" d="M82 1016q0 240 72 342q82 117 258 117q174 0 256 -117q43 -59 57 -133t14 -209q0 -184 -59 -344l-256 -672h-225l239 590q-33 -25 -88 -25q-125 0 -194 90q-41 53 -57.5 128t-16.5 233zM299 1014q0 -190 33 -234q29 -37 80 -37t77 37q33 43 33 234q0 184 -33 229 q-27 37 -78 37t-79 -37q-33 -43 -33 -229z" />
<glyph unicode=":" horiz-adv-x="526" d="M160 0v252h254v-252h-254zM160 641v252h254v-252h-254z" />
<glyph unicode=";" horiz-adv-x="526" d="M160 641v252h254v-252h-254zM168 254h238v-387l-238 -174v561z" />
<glyph unicode="&#x3c;" horiz-adv-x="821" d="M70 522v152l682 397v-237l-416 -236l416 -236v-239z" />
<glyph unicode="=" horiz-adv-x="935" d="M90 297v207h756v-207h-756zM90 668v206h756v-206h-756z" />
<glyph unicode="&#x3e;" horiz-adv-x="821" d="M70 123v239l415 236l-415 236v237l682 -397v-152z" />
<glyph unicode="?" horiz-adv-x="872" d="M115 1079q0 205 96 295q104 96 246 96q162 0 250 -92q98 -98 98 -305q0 -160 -70 -252l-121 -162q-47 -63 -47 -133v-116h-217v141q0 92 64 176l121 162q53 70 53 190q0 113 -41 158q-35 39 -88 39t-88 -37q-39 -43 -39 -160h-217zM332 0v252h254v-252h-254z" />
<glyph unicode="@" horiz-adv-x="1245" d="M96 268v854q0 158 94 248q88 88 242 88h365q154 0 241 -88q96 -92 97 -248v-1122h-209v82q-37 -49 -72 -68q-51 -31 -111 -30q-123 0 -194 84q-61 70 -62 233v385q0 164 62 234q72 84 194 84q59 0 111 -29q39 -20 64 -55v170q0 182 -170 182h-267q-168 0 -168 -182v-811 q0 -92 60 -150l-158 -156q-66 63 -92.5 128t-26.5 167zM705 303q0 -61 29.5 -93t76.5 -32t77 32t30 93v381q0 61 -30 94t-77 33t-76.5 -33t-29.5 -94v-381z" />
<glyph unicode="A" horiz-adv-x="958" d="M10 0l359 1458h223l354 -1458h-239l-60 289h-338l-57 -289h-242zM354 496h250l-125 610z" />
<glyph unicode="B" horiz-adv-x="966" d="M123 0v1458h364q195 0 285 -90q90 -92 90 -307q0 -170 -76 -246q-33 -33 -75 -51q47 -18 77 -53q78 -84 78 -279q0 -244 -94 -340q-90 -92 -287 -92h-362zM352 207h111q94 0 134 50t40 177q0 121 -41 174.5t-133 53.5h-111v-455zM352 856h109q90 0 131 47t41 152 q0 109 -39 152.5t-133 43.5h-109v-395z" />
<glyph unicode="C" horiz-adv-x="915" d="M84 727q0 188 3 272t27.5 189.5t75.5 163.5q109 123 283 123q154 0 254 -95q111 -104 117 -307h-230q-4 94 -34 141q-33 53 -107 53.5t-108 -55.5q-51 -82 -51.5 -483t51.5 -483q35 -55 108 -56q76 0 109 54q31 47 34 143h230q-6 -207 -121 -311q-102 -92 -252 -92 q-174 0 -283 123q-51 57 -75.5 161.5t-27.5 187.5t-3 271z" />
<glyph unicode="D" horiz-adv-x="966" d="M123 0v1458h371q176 0 282 -121q51 -57 76 -158.5t28 -183.5t3 -266t-3 -266t-28 -183.5t-76 -158.5q-106 -121 -282 -121h-371zM352 207h135q78 0 117 59q31 47 40 151.5t9 313.5t-9 311.5t-40 149.5q-39 59 -117 59h-135v-1044z" />
<glyph unicode="E" horiz-adv-x="811" d="M123 0v1458h612v-207h-383v-413h330v-207h-330v-424h383v-207h-612z" />
<glyph unicode="F" horiz-adv-x="798" d="M123 0v1458h612v-207h-383v-413h330v-207h-330v-631h-229z" />
<glyph unicode="G" horiz-adv-x="931" d="M84 729.5q0 188.5 3 272t27.5 188t75.5 162.5q109 123 283 123q162 0 260 -99q106 -109 113 -305h-230q-4 197 -143 197q-74 0 -108 -56q-51 -82 -51.5 -483t51.5 -483q35 -55 108 -56q70 0 106.5 53.5t36.5 133.5v227h-143v189h373v-404q0 -193 -102.5 -299t-270.5 -106 q-174 0 -283 123q-51 57 -75.5 161.5t-27.5 188.5t-3 272.5z" />
<glyph unicode="H" horiz-adv-x="989" d="M123 0v1458h229v-614h285v614h229v-1458h-229v639h-285v-639h-229z" />
<glyph unicode="I" horiz-adv-x="475" d="M123 0v1458h229v-1458h-229z" />
<glyph unicode="J" horiz-adv-x="796" d="M6 100l160 154q45 -63 127 -64q74 0 119 50.5t45 140.5v1077h229v-1077q0 -184 -100 -287q-104 -111 -293 -110q-176 -1 -287 116z" />
<glyph unicode="K" horiz-adv-x="960" d="M123 0v1458h229v-686l318 686h231l-293 -604l338 -854h-248l-235 600l-111 -225v-375h-229z" />
<glyph unicode="L" horiz-adv-x="784" d="M123 0v1458h229v-1251h383v-207h-612z" />
<glyph unicode="M" horiz-adv-x="1224" d="M123 0v1458h207l282 -766l281 766h209v-1458h-230v909l-198 -598h-127l-195 588v-899h-229z" />
<glyph unicode="N" horiz-adv-x="1021" d="M123 0v1458h205l342 -866v866h229v-1458h-203l-344 866v-866h-229z" />
<glyph unicode="O" horiz-adv-x="946" d="M84 729.5q0 188.5 3 272t27.5 188t75.5 162.5q109 123 283 123t283 -123q51 -57 75.5 -162t27.5 -188.5t3 -272t-3 -272.5t-27.5 -188.5t-75.5 -162.5q-109 -123 -283 -122.5t-283 122.5q-51 57 -75.5 162t-27.5 189t-3 272.5zM313 729q0 -401 52 -483q35 -55 108 -56 q76 0 111 56q31 49 40 156.5t9 326.5t-9.5 326.5t-39.5 156.5q-35 55 -111 56q-74 0 -108 -56q-52 -82 -52 -483z" />
<glyph unicode="P" horiz-adv-x="940" d="M123 0v1458h366q197 0 286 -106.5t89 -335.5q0 -227 -86 -337t-289 -110h-137v-569h-229zM352 776h142q84 0 112.5 61.5t28.5 176t-28.5 176t-112.5 61.5h-142v-475z" />
<glyph unicode="Q" horiz-adv-x="946" d="M84 729.5q0 188.5 3 272t27.5 188t75.5 162.5q109 123 283 123t283 -123q51 -57 75.5 -162t27.5 -188.5t3 -272.5q0 -154 -2 -227.5t-15.5 -166.5t-41.5 -153l121 -102l-107 -127l-119 100q-90 -70 -225 -69q-174 0 -283 122q-51 57 -75.5 162t-27.5 189t-3 272.5z M313 729q0 -221 10.5 -327.5t41.5 -155.5q35 -55 108 -56q31 0 49 11l-76 63l107 127l59 -49q20 88 21 387q0 225 -9.5 329.5t-39.5 153.5q-35 55 -111 56q-74 0 -108 -56q-31 -49 -41.5 -155.5t-10.5 -327.5z" />
<glyph unicode="R" horiz-adv-x="978" d="M123 0v1458h369q199 0 285.5 -101.5t86.5 -328.5q0 -145 -38 -237.5t-132 -143.5l217 -647h-239l-191 598h-129v-598h-229zM352 805h142q84 0 112.5 58.5t28.5 165t-28.5 164.5t-112.5 58h-142v-446z" />
<glyph unicode="S" horiz-adv-x="905" d="M72 395h229q0 -117 41 -164q35 -39 107 -38q76 0 110 40q39 45 39 162t-25.5 161t-111.5 79l-174 72q-113 47 -158 123.5t-45 242.5q0 203 119 309q100 88 250 88q170 0 262 -88q102 -100 102 -317h-229q0 111 -35 156q-33 43 -102 43q-61 0 -99 -41q-39 -45 -39 -144 q0 -90 22.5 -128t98.5 -68l172 -70q129 -53 175 -139t46 -271q0 -229 -94 -321q-100 -96 -284 -96q-186 0 -283 96q-94 94 -94 313z" />
<glyph unicode="T" horiz-adv-x="804" d="M43 1251v207h719v-207h-246v-1251h-229v1251h-244z" />
<glyph unicode="U" horiz-adv-x="964" d="M111 358v1100h229v-1112q0 -76 41 -116t102.5 -40t101.5 40t40 116v1112h229v-1100q0 -164 -100 -268q-104 -106 -271 -106q-168 0 -272 106q-100 104 -100 268z" />
<glyph unicode="V" horiz-adv-x="894" d="M8 1458h252l186 -1106l189 1106h252l-322 -1458h-237z" />
<glyph unicode="W" horiz-adv-x="1462" d="M8 1458h252l143 -1106l201 1106h254l203 -1106l141 1106h252l-274 -1458h-240l-209 1108l-207 -1108h-239z" />
<glyph unicode="X" horiz-adv-x="884" d="M23 0l288 756l-266 702h252l145 -487l146 487h252l-273 -702l295 -756h-252l-168 524l-168 -524h-251z" />
<glyph unicode="Y" horiz-adv-x="796" d="M0 1458h254l143 -577l146 577h252l-283 -887v-571h-229v571z" />
<glyph unicode="Z" horiz-adv-x="763" d="M63 0v172l398 1079h-373v207h610v-172l-395 -1079h395v-207h-635z" />
<glyph unicode="[" horiz-adv-x="577" d="M109 -152v1762h409v-193h-192v-1376h192v-193h-409z" />
<glyph unicode="\" horiz-adv-x="610" d="M12 1610h205l379 -1762h-205z" />
<glyph unicode="]" horiz-adv-x="577" d="M59 41h191v1376h-191v193h408v-1762h-408v193z" />
<glyph unicode="^" horiz-adv-x="948" d="M92 889l287 579h190l287 -579h-211l-170 362l-170 -362h-213z" />
<glyph unicode="_" horiz-adv-x="935" d="M0 -156h936v-157h-936v157z" />
<glyph unicode="`" d="M172 1487h182l148 -285h-152z" />
<glyph unicode="a" d="M55 315q0 154 101 242q84 74 247 74h97v149q0 125 -105 125q-45 0 -71 -31q-33 -35 -33 -100h-217q0 141 92 234q88 88 227 88q152 0 230 -80q94 -94 94 -254v-762h-205v92q-37 -51 -66 -72q-53 -37 -122 -36q-125 0 -203 90q-66 77 -66 241zM272 324q0 -150 113 -150 q49 0 82 39t33 104v160h-72q-78 0 -113 -33q-43 -38 -43 -120z" />
<glyph unicode="b" horiz-adv-x="835" d="M106 0v1458h218v-448q27 37 63 57q47 29 109 29q121 0 190 -84q49 -61 62.5 -164t13.5 -307.5t-13.5 -308t-62.5 -164.5q-68 -84 -190 -84q-57 0 -109 30q-16 8 -38.5 30t-33.5 38v-82h-209zM324 307q0 -68 34 -102q27 -27 74 -27q55 0 82 43q31 53 31 320q0 264 -31 317 q-29 45 -82 45q-45 0 -74 -29q-35 -35 -34 -102v-465z" />
<glyph unicode="c" horiz-adv-x="786" d="M74 541q0 336 76 442q82 113 256 113q145 0 227 -76q84 -82 96 -256h-215q-4 70 -29 100q-27 39 -79 39q-55 0 -84 -45q-31 -53 -31 -317.5t31 -319.5q27 -43 84 -43q53 0 79 37q25 31 29 102h215q-10 -170 -94 -254q-80 -80 -229 -79q-174 0 -256 114q-76 103 -76 443z " />
<glyph unicode="d" horiz-adv-x="835" d="M74 540.5q0 204.5 13 307t63 164.5q70 84 190 84q61 0 109 -29q37 -20 63 -57v448h217v-1458h-209v82q-10 -16 -32.5 -37.5t-38.5 -30.5q-51 -31 -109 -30q-123 0 -190 84q-49 61 -62.5 164.5t-13.5 308zM291 541q0 -266 31 -320q27 -43 81 -43q47 0 74 27q35 35 35 102 v465q0 68 -35 102q-29 29 -74 29q-53 0 -81 -45q-31 -53 -31 -317z" />
<glyph unicode="e" horiz-adv-x="806" d="M74 540.5q0 180.5 18.5 293t81.5 176.5q86 86 232 86q152 0 231 -86q16 -18 30.5 -40t23.5 -50l17 -51q7 -22 12 -61.5t8 -60t4 -68.5t2 -64.5t1 -70.5v-67h-444q0 -209 33 -256q29 -43 84 -43q49 0 81 43q27 33 27 96h215q-6 -156 -90 -247q-78 -86 -233 -86 q-145 0 -234 88q-63 63 -81.5 175.5t-18.5 293zM291 637h227q0 184 -31 223q-33 43 -82 43t-81 -43q-33 -41 -33 -223z" />
<glyph unicode="f" horiz-adv-x="555" d="M39 913v166h111v64q0 174 108 260q88 68 258 67v-194q-150 0 -149 -146v-51h149v-166h-149v-913h-217v913h-111z" />
<glyph unicode="g" horiz-adv-x="835" d="M74 579.5q0 180.5 18.5 279.5t67.5 157q68 80 186 80q59 0 111 -29q37 -20 63 -57v69h209v-1099q0 -188 -92 -281q-88 -88 -234 -88q-147 0 -233 84q-90 90 -90 237h215q0 -66 31 -102q29 -33 77 -33q47 0 78 35q31 37 31 133v185q-31 -41 -61 -60q-39 -25 -105 -24 q-119 0 -186 79q-49 57 -67.5 155.5t-18.5 279zM291 577.5q0 -237.5 32.5 -280.5t79.5 -43q51 0 78 31q31 35 31 98v389q0 63 -33 100q-29 31 -76 31q-45 0 -79 -45q-33 -43 -33 -280.5z" />
<glyph unicode="h" horiz-adv-x="854" d="M106 0v1458h218v-448q27 37 63 57q47 29 109 29q125 0 196 -84q61 -70 62 -234v-778h-217v776q0 61 -30 93t-77 32t-76.5 -31.5t-29.5 -93.5v-776h-218z" />
<glyph unicode="i" horiz-adv-x="430" d="M94 1217v239h240v-239h-240zM106 0v1051h218v-1051h-218z" />
<glyph unicode="j" horiz-adv-x="430" d="M-41 -184q76 0 111.5 32.5t35.5 112.5v1090h218v-1102q0 -176 -111 -260q-88 -68 -254 -68v195zM94 1217v239h240v-239h-240z" />
<glyph unicode="k" horiz-adv-x="851" d="M106 0v1458h218v-840l272 461h227l-268 -428l283 -651h-240l-182 455l-92 -146v-309h-218z" />
<glyph unicode="l" horiz-adv-x="499" d="M100 328v1130h217v-1118q0 -145 148 -145v-195q-172 0 -256 66q-109 82 -109 262z" />
<glyph unicode="m" horiz-adv-x="1286" d="M106 0v1079h209v-80q37 49 72 68q47 29 109 29q133 0 211 -111q45 51 96 82q51 29 115 29q133 0 204 -84q63 -72 64 -234v-778h-217v776q0 59 -31 92t-78 33t-76.5 -31.5t-29.5 -93.5v-776h-217v776q0 61 -30 93t-77 32t-76.5 -31.5t-29.5 -93.5v-776h-218z" />
<glyph unicode="n" horiz-adv-x="854" d="M106 0v1079h209v-80q37 49 72 68q47 29 109 29q125 0 196 -84q61 -70 62 -234v-778h-217v776q0 61 -30 93t-77 32t-76.5 -31.5t-29.5 -93.5v-776h-218z" />
<glyph unicode="o" horiz-adv-x="811" d="M74 541q0 336 76 442q82 113 256 113t256 -113q76 -106 75.5 -442t-75.5 -443q-82 -115 -256 -114.5t-256 114.5q-76 107 -76 443zM291 541q0 -266 31 -320q27 -43 84 -43t83 43q31 53 31 320q0 264 -31 317q-29 45 -84 45t-83 -45q-31 -53 -31 -317z" />
<glyph unicode="p" horiz-adv-x="835" d="M106 -379v1458h209v-80q10 16 33 38t39 30q47 29 109 29q123 0 190 -84q49 -61 62.5 -164t13.5 -307.5t-13.5 -308t-62.5 -164.5q-70 -84 -190 -84q-61 0 -109 28q-37 20 -63 58v-449h-218zM324 307q0 -68 34 -102q27 -27 74 -27q55 0 82 43q31 53 31 320q0 264 -31 317 q-29 45 -82 45q-45 0 -74 -29q-35 -35 -34 -102v-465z" />
<glyph unicode="q" horiz-adv-x="835" d="M74 540.5q0 204.5 13 307t63 164.5q68 84 190 84q61 0 109 -29q16 -8 38.5 -29.5t32.5 -38.5v80h209v-1458h-217v449q-27 -37 -63 -58q-47 -29 -109 -28q-121 0 -190 84q-49 61 -62.5 164.5t-13.5 308zM291 541q0 -266 31 -320q27 -43 81 -43q47 0 74 27q35 35 35 102 v465q0 68 -35 102q-29 29 -74 29q-53 0 -81 -45q-31 -53 -31 -317z" />
<glyph unicode="r" horiz-adv-x="612" d="M106 0v1079h209v-114q33 49 95 86q74 45 168 45v-211h-74q-78 0 -129 -50.5t-51 -136.5v-698h-218z" />
<glyph unicode="s" horiz-adv-x="780" d="M55 315h215q0 -66 37 -102q31 -33 82 -33t84 31q31 27 31 86q0 47 -23 80q-25 37 -84 61l-143 64q-111 49 -158 125q-35 55 -35 147q0 133 95 232q90 90 233 90q141 0 227 -82q92 -88 93 -240h-213q0 66 -31 98.5t-76 32.5q-49 0 -79.5 -30.5t-30.5 -81.5q0 -39 16 -64 q23 -37 80 -61l143 -62q111 -49 158 -119q45 -63 45 -176q0 -143 -96 -239q-88 -88 -236 -88q-154 0 -237 88q-97 100 -97 243z" />
<glyph unicode="t" horiz-adv-x="561" d="M39 913v166h111v277h217v-277h149v-166h-149v-573q0 -145 153 -145v-195q-178 0 -262 66q-109 86 -108 262v585h-111z" />
<glyph unicode="u" horiz-adv-x="854" d="M100 301v778h217v-776q0 -61 30 -93t77 -32t76.5 32t29.5 93v776h218v-1079h-207v82q-35 -47 -74 -68q-51 -31 -109 -30q-125 0 -196 84q-62 69 -62 233z" />
<glyph unicode="v" horiz-adv-x="780" d="M8 1079h240l143 -735l141 735h240l-266 -1079h-230z" />
<glyph unicode="w" horiz-adv-x="1181" d="M8 1079h242l112 -735l134 735h186l135 -735l113 735h244l-242 -1079h-215l-129 700l-127 -700h-215z" />
<glyph unicode="x" horiz-adv-x="800" d="M18 0l254 549l-241 530h239l129 -327l129 327h242l-246 -530l258 -549h-241l-142 336l-141 -336h-240z" />
<glyph unicode="y" horiz-adv-x="782" d="M8 1079h240l143 -735l141 735h240l-303 -1216q-37 -150 -134 -196t-269 -46v193q57 2 87.5 7t61.5 30.5t43 74.5l18 76z" />
<glyph unicode="z" horiz-adv-x="665" d="M53 0v164l316 723h-291v192h534v-161l-315 -723h315v-195h-559z" />
<glyph unicode="{" horiz-adv-x="686" d="M59 633v192h80q41 0 67.5 31t26.5 78v389q0 139 78 213q74 74 193 74h125v-195h-80q-43 0 -70.5 -29.5t-27.5 -76.5v-369q0 -111 -56 -166q-33 -33 -76 -45q35 -10 76 -45q55 -55 56 -166v-368q0 -47 27.5 -77t70.5 -30h80v-195h-125q-119 0 -193 74q-78 74 -78 213v389 q0 47 -26.5 78t-67.5 31h-80z" />
<glyph unicode="|" horiz-adv-x="675" d="M229 -152v1762h217v-1762h-217z" />
<glyph unicode="}" horiz-adv-x="686" d="M59 43h80q41 0 69 29.5t28 77.5v368q0 111 55 166q33 33 76 45q-55 16 -76 45q-55 55 -55 166v369q0 47 -28 76.5t-69 29.5h-80v195h123q121 0 195 -74q76 -72 76 -213v-389q0 -47 27.5 -78t68.5 -31h80v-192h-80q-41 0 -68.5 -31t-27.5 -78v-389q0 -141 -76 -213 q-74 -74 -195 -74h-123v195z" />
<glyph unicode="~" horiz-adv-x="935" d="M47 608q135 135 258 135q86 0 182 -51q78 -41 134 -41q68 0 135 68l133 -131q-135 -135 -258 -135q-84 0 -180 51q-78 41 -136 41q-68 0 -135 -68z" />
<glyph unicode="&#xa1;" horiz-adv-x="526" d="M115 827v252h252v-252h-252zM131 -379v1051h217v-1051h-217z" />
<glyph unicode="&#xa2;" horiz-adv-x="802" d="M84 743.5q0 321.5 76 421.5q63 82 174 103v190h166v-190q82 -12 143 -68q86 -78 94 -244h-215q0 61 -26 97q-29 35 -80 34q-57 0 -84 -40q-31 -51 -31 -303t31 -304q29 -43 84 -43q49 0 80 37q27 31 26 96h215q-6 -160 -92 -241q-49 -49 -145 -70v-219h-166v219 q-111 20 -174 103q-76 100 -76 421.5z" />
<glyph unicode="&#xa3;" horiz-adv-x="942" d="M66 664v165h129v250q0 178 110.5 287t280.5 109q178 0 288 -117l-157 -154q-49 63 -131 64q-70 0 -116 -50.5t-46 -136.5v-252h164v-165h-164v-457h450v-207h-679v664h-129z" />
<glyph unicode="&#xa4;" horiz-adv-x="1019" d="M66 481v166h114v164h-114v166h118q6 264 103 375q109 123 280 123q156 0 256 -95q111 -104 117 -307h-229q-4 195 -144 195q-78 0 -112 -56q-37 -57 -39 -235h217v-166h-223v-164h223v-166h-217q2 -180 41 -235q37 -55 110 -56q139 0 144 197h229q-6 -207 -121 -311 q-102 -92 -252 -92q-172 0 -280 122q-96 109 -103 375h-118z" />
<glyph unicode="&#xa5;" horiz-adv-x="796" d="M18 1458h240l139 -577l142 577h239l-190 -624h121v-164h-172l-31 -99v-82h203v-165h-203v-324h-217v324h-203v165h203v82l-29 99h-174v164h123z" />
<glyph unicode="&#xa6;" horiz-adv-x="675" d="M229 -147v708h217v-708h-217zM229 897v709h217v-709h-217z" />
<glyph unicode="&#xa7;" horiz-adv-x="878" d="M92 553q0 119 19.5 182.5t81.5 116.5q31 23 57 33q-72 45 -105 100q-37 59 -36 154q0 135 94 229q90 90 237 90q129 0 217 -72q106 -88 107 -241h-217q0 59 -31 90q-31 33 -76 33q-47 0 -77.5 -31t-30.5 -80q0 -43 16 -72q25 -39 80 -61l147 -63q78 -31 121 -74 q55 -57 72.5 -123t17.5 -211q0 -125 -18 -190.5t-82 -118.5q-29 -25 -53 -31q68 -43 100 -98q39 -66 39 -156q0 -145 -96 -242q-84 -86 -242 -86q-147 0 -237 90q-96 96 -97 232h222q0 -57 32 -92q31 -33 80 -33q55 0 84 29q31 31 31 84q0 43 -23 75q-29 41 -84 64l-149 63 q-61 27 -103 66q-66 63 -82 136t-16 208zM309 553q0 -168 47 -209q35 -29 84 -29q45 0 82 31q23 18 33 55t12 66t2 86t-2 86t-12 64.5t-33 56.5q-35 31 -82 31t-84 -31q-47 -41 -47 -207z" />
<glyph unicode="&#xa8;" d="M127 1223v204h205v-204h-205zM485 1223v204h205v-204h-205z" />
<glyph unicode="&#xa9;" horiz-adv-x="1728" d="M123 729q0 307 217 524t524 217t524.5 -217t217.5 -524t-217.5 -524t-524.5 -217t-524 217t-217 524zM268 729q0 -260 172 -434t424 -174t424 174t172 434t-172 434t-424 174t-424 -174t-172 -434zM651 727q0 88 2 135t15.5 109.5t42.5 95.5q63 74 157 74q90 0 146 -56 q59 -61 63 -180h-131q0 55 -18 82q-20 31 -60 31q-35 0 -57 -33q-29 -45 -29 -258t29 -258q23 -33 57 -33q37 0 58 27q20 25 20 88h133q-2 -117 -65 -180q-57 -57 -146 -58q-94 0 -157 74q-29 33 -42.5 95.5t-15.5 109.5t-2 135z" />
<glyph unicode="&#xaa;" horiz-adv-x="677" d="M51 852q0 121 84 192q70 59 201 60h76v110q0 96 -82 97q-35 0 -62 -27q-23 -25 -22 -78h-180q0 117 73 191q72 72 189 71q121 0 188 -67q76 -76 76 -203v-596h-168v70q-29 -37 -57 -54q-43 -25 -97 -24q-104 0 -166 70q-53 59 -53 188zM231 860q0 -115 91 -115 q39 0 64.5 32t25.5 83v117h-58q-59 0 -88 -27q-35 -31 -35 -90z" />
<glyph unicode="&#xab;" horiz-adv-x="847" d="M49 565l330 508v-323l-125 -185l125 -188v-322zM424 565l328 508v-323l-127 -185l127 -188v-322z" />
<glyph unicode="&#xac;" horiz-adv-x="935" d="M104 516v207h730v-432h-207v225h-523z" />
<glyph unicode="&#xad;" horiz-adv-x="604" d="M96 487v207h414v-207h-414z" />
<glyph unicode="&#xae;" horiz-adv-x="1728" d="M123 729q0 307 217 524t524 217t524.5 -217t217.5 -524t-217.5 -524t-524.5 -217t-524 217t-217 524zM268 729q0 -260 172 -434t424 -174t424 174t172 434t-172 434t-424 174t-424 -174t-172 -434zM672 324v806h213q102 0 151 -49q53 -55 54 -190q0 -127 -52 -180 q-14 -16 -39 -31l115 -356h-137l-100 327h-72v-327h-133zM805 774h80q31 0 51 21q23 25 22 96q0 70 -22 96q-20 20 -51 21h-80v-234z" />
<glyph unicode="&#xaf;" d="M158 1249v146h501v-146h-501z" />
<glyph unicode="&#xb0;" horiz-adv-x="839" d="M88 1155q0 137 97.5 234.5t234.5 97.5t234.5 -97.5t97.5 -234.5t-97.5 -234.5t-234.5 -97.5t-234.5 97.5t-97.5 234.5zM279 1155q0 -59 40.5 -100t100 -41t100.5 41t41 100t-41 101t-100.5 42t-100 -42t-40.5 -101z" />
<glyph unicode="&#xb1;" horiz-adv-x="935" d="M90 27v206h756v-206h-756zM90 647v207h275v274h206v-274h275v-207h-275v-274h-206v274h-275z" />
<glyph unicode="&#xb2;" horiz-adv-x="649" d="M84 1196v57q0 106 66 160q63 55 174 55q104 0 168 -49q74 -59 73 -162q0 -98 -59 -188l-244 -364h303v-121h-473v114l273 416q43 66 43 148q0 39 -24 61.5t-60 22.5q-84 0 -84 -89v-61h-156z" />
<glyph unicode="&#xb3;" horiz-adv-x="649" d="M78 795v36h158v-40q0 -51 22 -72q23 -23 61 -23q43 0 62 23q25 27 25 121q0 90 -23 116q-20 27 -66 27h-51v117h51q35 0 56 18q27 27 26 109q0 76 -22 98q-20 20 -57 20.5t-57.5 -20t-20.5 -63.5v-50h-158v41q0 104 63 160q66 55 172 55q109 0 168 -53q68 -59 68 -180 q0 -92 -29 -137q-23 -33 -63 -56q45 -23 69 -61q31 -49 31 -152q0 -76 -12 -118.5t-57 -81.5q-68 -55 -175 -56q-109 0 -176 58q-65 55 -65 164z" />
<glyph unicode="&#xb4;" d="M315 1202l148 285h182l-178 -285h-152z" />
<glyph unicode="&#xb5;" horiz-adv-x="862" d="M102 -379v1458h217v-776q0 -59 31 -92t78 -33t77 32t30 93v776h217v-1079h-209v82q-37 -49 -72 -68q-51 -31 -115 -30q-33 0 -45 16v-379h-209z" />
<glyph unicode="&#xb6;" horiz-adv-x="1232" d="M74 1022q0 436 303 436h747v-1837h-217v1630h-207v-1630h-217v965h-106q-303 0 -303 436z" />
<glyph unicode="&#xb7;" horiz-adv-x="557" d="M115 453v327h327v-327h-327z" />
<glyph unicode="&#xb8;" d="M233 -397l125 315h140l-109 -315h-156z" />
<glyph unicode="&#xb9;" horiz-adv-x="649" d="M123 1202v156l156 100h155v-874h-158v714z" />
<glyph unicode="&#xba;" horiz-adv-x="673" d="M66 1028q0 264 63 348q66 90 209 90q141 0 207 -90q63 -84 63 -348t-63 -348q-66 -90 -207 -90q-143 0 -209 90q-63 84 -63 348zM246 1028q0 -199 26 -246q23 -35 66 -34q41 0 63 34q27 45 27 246t-27 246q-23 35 -63 35q-43 0 -66 -35q-26 -47 -26 -246z" />
<glyph unicode="&#xbb;" horiz-adv-x="847" d="M96 55v322l127 188l-127 185v323l328 -508zM469 55v322l125 188l-125 185v323l328 -508z" />
<glyph unicode="&#xbc;" horiz-adv-x="1607" d="M123 1202v156l153 100h156v-874h-156v714zM455 0l503 1458h168l-503 -1458h-168zM1012 129v123l223 622h154l-218 -622h140v143h155v-143h70v-123h-70v-129h-155v129h-299z" />
<glyph unicode="&#xbd;" horiz-adv-x="1607" d="M123 1202v156l153 100h156v-874h-156v714zM455 0l503 1458h168l-503 -1458h-168zM1042 612v58q0 106 66 159q63 55 174 56q106 0 170 -49q72 -57 72 -162q0 -98 -60 -189l-241 -364h301v-121h-473v115l274 415q41 63 41 148q0 39 -23.5 61.5t-60.5 22.5q-82 0 -82 -88 v-62h-158z" />
<glyph unicode="&#xbe;" horiz-adv-x="1607" d="M78 795v36h158v-40q0 -51 22 -72q23 -23 61 -23q43 0 62 23q25 27 25 121q0 90 -23 116q-20 27 -66 27h-51v117h51q35 0 56 18q27 27 26 109q0 76 -22 98q-20 20 -57 20.5t-57.5 -20t-20.5 -63.5v-50h-158v41q0 104 63 160q66 55 172 55q109 0 168 -53q68 -59 68 -180 q0 -92 -29 -137q-23 -33 -63 -56q45 -23 69 -61q31 -49 31 -152q0 -76 -12 -118.5t-57 -81.5q-68 -55 -175 -56q-109 0 -176 58q-65 55 -65 164zM455 0l503 1458h168l-503 -1458h-168zM1010 129v123l225 622h151l-215 -622h138v143h157v-143h70v-123h-70v-129h-157v129h-299 z" />
<glyph unicode="&#xbf;" horiz-adv-x="872" d="M68 8q0 160 69 252l121 160q47 63 47 133v119h217v-144q0 -92 -63 -176l-121 -159q-53 -70 -53 -191q0 -113 41 -160q35 -39 88 -39t88 39q39 43 39 160h217q0 -207 -96 -297q-104 -96 -246 -96q-160 0 -250 94q-98 98 -98 305zM289 827v252h252v-252h-252z" />
<glyph unicode="&#xc0;" horiz-adv-x="958" d="M10 0l359 1458h223l354 -1458h-239l-60 289h-338l-57 -289h-242zM244 1841h182l147 -285h-151zM354 496h250l-125 610z" />
<glyph unicode="&#xc1;" horiz-adv-x="958" d="M10 0l359 1458h223l354 -1458h-239l-60 289h-338l-57 -289h-242zM354 496h250l-125 610zM385 1556l147 285h183l-178 -285h-152z" />
<glyph unicode="&#xc2;" horiz-adv-x="958" d="M10 0l359 1458h223l354 -1458h-239l-60 289h-338l-57 -289h-242zM193 1556l202 285h170l203 -285h-166l-123 168l-121 -168h-165zM354 496h250l-125 610z" />
<glyph unicode="&#xc3;" horiz-adv-x="958" d="M10 0l359 1458h223l354 -1458h-239l-60 289h-338l-57 -289h-242zM195 1686q96 96 180 96q68 0 127 -35q51 -31 90 -31q45 0 92 47l96 -96q-94 -94 -182 -94q-68 0 -127 35q-51 31 -90 30q-47 0 -94 -47zM354 496h250l-125 610z" />
<glyph unicode="&#xc4;" horiz-adv-x="958" d="M10 0l359 1458h223l354 -1458h-239l-60 289h-338l-57 -289h-242zM199 1577v205h204v-205h-204zM354 496h250l-125 610zM557 1577v205h205v-205h-205z" />
<glyph unicode="&#xc5;" horiz-adv-x="958" d="M10 0l359 1458h223l354 -1458h-239l-60 289h-338l-57 -289h-242zM266 1763q0 88 61.5 150.5t151.5 62.5t152.5 -62.5t62.5 -150.5t-62.5 -151.5t-152.5 -63.5q-88 0 -150.5 62.5t-62.5 152.5zM354 496h250l-125 610zM387 1763q0 -39 26.5 -66.5t65.5 -27.5t66.5 27.5 t27.5 66.5t-27.5 67t-66.5 28t-65.5 -28t-26.5 -67z" />
<glyph unicode="&#xc6;" horiz-adv-x="1382" d="M12 0l535 1458h760v-207h-383v-413h329v-207h-329v-424h383v-207h-613v303h-323l-107 -303h-252zM438 510h256v741z" />
<glyph unicode="&#xc7;" horiz-adv-x="915" d="M84 727q0 188 3 272t27.5 189.5t75.5 163.5q109 123 283 123q154 0 254 -95q111 -104 117 -307h-230q-4 94 -34 141q-33 53 -107 53.5t-108 -55.5q-51 -82 -51.5 -483t51.5 -483q35 -55 108 -56q76 0 109 54q31 47 34 143h230q-6 -207 -121 -311q-102 -92 -252 -92 q-174 0 -283 123q-51 57 -75.5 161.5t-27.5 187.5t-3 271zM283 -397l125 315h139l-109 -315h-155z" />
<glyph unicode="&#xc8;" horiz-adv-x="811" d="M123 0v1458h612v-207h-383v-413h330v-207h-330v-424h383v-207h-612zM199 1841h182l147 -285h-151z" />
<glyph unicode="&#xc9;" horiz-adv-x="811" d="M123 0v1458h612v-207h-383v-413h330v-207h-330v-424h383v-207h-612zM342 1556l147 285h183l-178 -285h-152z" />
<glyph unicode="&#xca;" horiz-adv-x="811" d="M123 0v1458h612v-207h-383v-413h330v-207h-330v-424h383v-207h-612zM150 1556l202 285h170l203 -285h-166l-123 168l-121 -168h-165z" />
<glyph unicode="&#xcb;" horiz-adv-x="811" d="M123 0v1458h612v-207h-383v-413h330v-207h-330v-424h383v-207h-612zM156 1577v205h204v-205h-204zM514 1577v205h205v-205h-205z" />
<glyph unicode="&#xcc;" horiz-adv-x="475" d="M23 1841h182l147 -285h-151zM123 0v1458h229v-1458h-229z" />
<glyph unicode="&#xcd;" horiz-adv-x="475" d="M123 0v1458h229v-1458h-229zM147 1556l148 285h182l-178 -285h-152z" />
<glyph unicode="&#xce;" horiz-adv-x="475" d="M-49 1556l203 285h170l202 -285h-166l-122 168l-121 -168h-166zM123 0v1458h229v-1458h-229z" />
<glyph unicode="&#xcf;" horiz-adv-x="475" d="M-45 1577v205h205v-205h-205zM123 0v1458h229v-1458h-229zM313 1577v205h205v-205h-205z" />
<glyph unicode="&#xd0;" horiz-adv-x="1001" d="M53 643v180h105v635h370q176 0 283 -121q51 -57 75.5 -158.5t28 -183.5t3.5 -266t-3.5 -266t-28 -183.5t-75.5 -158.5q-106 -121 -283 -121h-370v643h-105zM387 207h135q78 0 117 59q31 47 40 151.5t9 313.5t-9 311.5t-40 149.5q-39 59 -117 59h-135v-428h143v-180h-143 v-436z" />
<glyph unicode="&#xd1;" horiz-adv-x="1021" d="M123 0v1458h205l342 -866v866h229v-1458h-203l-344 866v-866h-229zM233 1686q96 96 181 96q68 0 127 -35q51 -31 90 -31q45 0 92 47l96 -96q-94 -94 -182 -94q-68 0 -127 35q-51 31 -90 30q-47 0 -94 -47z" />
<glyph unicode="&#xd2;" horiz-adv-x="946" d="M84 729.5q0 188.5 3 272t27.5 188t75.5 162.5q109 123 283 123t283 -123q51 -57 75.5 -162t27.5 -188.5t3 -272t-3 -272.5t-27.5 -188.5t-75.5 -162.5q-109 -123 -283 -122.5t-283 122.5q-51 57 -75.5 162t-27.5 189t-3 272.5zM233 1841h183l147 -285h-151zM313 729 q0 -401 52 -483q35 -55 108 -56q76 0 111 56q31 49 40 156.5t9 326.5t-9.5 326.5t-39.5 156.5q-35 55 -111 56q-74 0 -108 -56q-52 -82 -52 -483z" />
<glyph unicode="&#xd3;" horiz-adv-x="946" d="M84 729.5q0 188.5 3 272t27.5 188t75.5 162.5q109 123 283 123t283 -123q51 -57 75.5 -162t27.5 -188.5t3 -272t-3 -272.5t-27.5 -188.5t-75.5 -162.5q-109 -123 -283 -122.5t-283 122.5q-51 57 -75.5 162t-27.5 189t-3 272.5zM313 729q0 -401 52 -483q35 -55 108 -56 q76 0 111 56q31 49 40 156.5t9 326.5t-9.5 326.5t-39.5 156.5q-35 55 -111 56q-74 0 -108 -56q-52 -82 -52 -483zM379 1556l147 285h183l-179 -285h-151z" />
<glyph unicode="&#xd4;" horiz-adv-x="946" d="M84 729.5q0 188.5 3 272t27.5 188t75.5 162.5q109 123 283 123t283 -123q51 -57 75.5 -162t27.5 -188.5t3 -272t-3 -272.5t-27.5 -188.5t-75.5 -162.5q-109 -123 -283 -122.5t-283 122.5q-51 57 -75.5 162t-27.5 189t-3 272.5zM182 1556l203 285h170l203 -285h-166 l-123 168l-121 -168h-166zM313 729q0 -401 52 -483q35 -55 108 -56q76 0 111 56q31 49 40 156.5t9 326.5t-9.5 326.5t-39.5 156.5q-35 55 -111 56q-74 0 -108 -56q-52 -82 -52 -483z" />
<glyph unicode="&#xd5;" horiz-adv-x="946" d="M84 729.5q0 188.5 3 272t27.5 188t75.5 162.5q109 123 283 123t283 -123q51 -57 75.5 -162t27.5 -188.5t3 -272t-3 -272.5t-27.5 -188.5t-75.5 -162.5q-109 -123 -283 -122.5t-283 122.5q-51 57 -75.5 162t-27.5 189t-3 272.5zM184 1686q96 96 181 96q68 0 127 -35 q51 -31 90 -31q45 0 92 47l96 -96q-94 -94 -182 -94q-68 0 -127 35q-51 31 -90 30q-47 0 -95 -47zM313 729q0 -401 52 -483q35 -55 108 -56q76 0 111 56q31 49 40 156.5t9 326.5t-9.5 326.5t-39.5 156.5q-35 55 -111 56q-74 0 -108 -56q-52 -82 -52 -483z" />
<glyph unicode="&#xd6;" horiz-adv-x="946" d="M84 729.5q0 188.5 3 272t27.5 188t75.5 162.5q109 123 283 123t283 -123q51 -57 75.5 -162t27.5 -188.5t3 -272t-3 -272.5t-27.5 -188.5t-75.5 -162.5q-109 -123 -283 -122.5t-283 122.5q-51 57 -75.5 162t-27.5 189t-3 272.5zM188 1577v205h205v-205h-205zM313 729 q0 -401 52 -483q35 -55 108 -56q76 0 111 56q31 49 40 156.5t9 326.5t-9.5 326.5t-39.5 156.5q-35 55 -111 56q-74 0 -108 -56q-52 -82 -52 -483zM547 1577v205h205v-205h-205z" />
<glyph unicode="&#xd7;" horiz-adv-x="935" d="M92 348l238 238l-238 237l139 140l238 -236l238 236l139 -140l-238 -237l238 -238l-139 -139l-238 237l-238 -237z" />
<glyph unicode="&#xd8;" horiz-adv-x="935" d="M84 729q0 188 3 272t27.5 188.5t75.5 162.5q109 123 283 123q104 0 178 -39l41 112h152l-76 -211q47 -57 68.5 -162.5t24.5 -186.5t3 -259q0 -188 -3 -272t-27.5 -188.5t-75.5 -162.5q-109 -123 -285 -122q-104 0 -178 39l-39 -113h-152l76 209q-47 57 -68.5 162.5 t-24.5 187.5t-3 260zM313 729q0 -190 11 -260l251 756q-37 43 -102 43q-74 0 -108 -56q-52 -82 -52 -483zM373 233q33 -43 100 -43q76 0 111 56q31 49 40 156.5t9 326.5q0 203 -8 258z" />
<glyph unicode="&#xd9;" horiz-adv-x="964" d="M111 358v1100h229v-1112q0 -76 41 -116t102.5 -40t101.5 40t40 116v1112h229v-1100q0 -164 -100 -268q-104 -106 -271 -106q-168 0 -272 106q-100 104 -100 268zM248 1841h182l148 -285h-152z" />
<glyph unicode="&#xda;" horiz-adv-x="964" d="M111 358v1100h229v-1112q0 -76 41 -116t102.5 -40t101.5 40t40 116v1112h229v-1100q0 -164 -100 -268q-104 -106 -271 -106q-168 0 -272 106q-100 104 -100 268zM393 1556l148 285h182l-178 -285h-152z" />
<glyph unicode="&#xdb;" horiz-adv-x="964" d="M111 358v1100h229v-1112q0 -76 41 -116t102.5 -40t101.5 40t40 116v1112h229v-1100q0 -164 -100 -268q-104 -106 -271 -106q-168 0 -272 106q-100 104 -100 268zM197 1556l202 285h170l203 -285h-166l-123 168l-121 -168h-165z" />
<glyph unicode="&#xdc;" horiz-adv-x="964" d="M111 358v1100h229v-1112q0 -76 41 -116t102.5 -40t101.5 40t40 116v1112h229v-1100q0 -164 -100 -268q-104 -106 -271 -106q-168 0 -272 106q-100 104 -100 268zM203 1577v205h205v-205h-205zM561 1577v205h205v-205h-205z" />
<glyph unicode="&#xdd;" horiz-adv-x="796" d="M0 1458h254l143 -577l146 577h252l-283 -887v-571h-229v571zM305 1556l148 285h182l-178 -285h-152z" />
<glyph unicode="&#xde;" horiz-adv-x="940" d="M123 0v1458h229v-276h137q197 0 286 -106.5t89 -336.5q0 -227 -86 -336.5t-289 -109.5h-137v-293h-229zM352 500h142q84 0 112.5 61.5t28.5 176t-28.5 176t-112.5 61.5h-142v-475z" />
<glyph unicode="&#xdf;" horiz-adv-x="851" d="M106 0v1143q0 156 92.5 244t233.5 88q154 0 238 -84q96 -96 96 -289q0 -137 -35 -207q-27 -51 -78 -88q53 -37 80 -84q47 -80 47 -283q0 -94 -3 -141t-25.5 -110.5t-67.5 -106.5q-84 -82 -250 -82v195q68 0 94 34q16 20 24.5 61.5t9.5 69t1 99.5q0 170 -31 215 q-27 39 -81 39h-17v182h17q45 0 69 35q29 39 29 153q0 119 -31 160q-27 37 -84 37q-49 0 -79.5 -34t-30.5 -97v-1149h-218z" />
<glyph unicode="&#xe0;" d="M51 315q0 154 101 242q84 74 247 74h97v149q0 125 -105 125q-45 0 -72 -31q-33 -35 -32 -100h-217q0 141 92 234q88 88 227 88q150 0 229 -80q94 -94 95 -254v-762h-205v92q-37 -51 -66 -72q-53 -37 -123 -36q-127 0 -202 90q-66 73 -66 241zM168 1487h182l148 -285h-152 zM268 324q0 -150 113 -150q49 0 82 39t33 104v160h-72q-78 0 -113 -33q-43 -38 -43 -120z" />
<glyph unicode="&#xe1;" d="M55 315q0 154 101 242q84 74 247 74h97v149q0 125 -105 125q-45 0 -71 -31q-33 -35 -33 -100h-217q0 141 92 234q88 88 227 88q152 0 230 -80q94 -94 94 -254v-762h-205v92q-37 -51 -66 -72q-53 -37 -122 -36q-125 0 -203 90q-66 77 -66 241zM272 324q0 -150 113 -150 q49 0 82 39t33 104v160h-72q-78 0 -113 -33q-43 -38 -43 -120zM311 1202l148 285h182l-178 -285h-152z" />
<glyph unicode="&#xe2;" d="M55 315q0 154 101 242q84 74 247 74h97v149q0 125 -105 125q-45 0 -71 -31q-33 -35 -33 -100h-217q0 141 92 234q88 88 227 88q152 0 230 -80q94 -94 94 -254v-762h-205v92q-37 -51 -66 -72q-53 -37 -122 -36q-125 0 -203 90q-66 77 -66 241zM111 1202l202 285h170 l203 -285h-166l-123 168l-121 -168h-165zM272 324q0 -150 113 -150q49 0 82 39t33 104v160h-72q-78 0 -113 -33q-43 -38 -43 -120z" />
<glyph unicode="&#xe3;" d="M55 315q0 154 101 242q84 74 247 74h97v149q0 125 -105 125q-45 0 -71 -31q-33 -35 -33 -100h-217q0 141 92 234q88 88 227 88q152 0 230 -80q94 -94 94 -254v-762h-205v92q-37 -51 -66 -72q-53 -37 -122 -36q-125 0 -203 90q-66 77 -66 241zM113 1331q96 96 180 96 q68 0 127 -34q51 -31 90 -31q45 0 92 47l96 -96q-94 -94 -182 -94q-68 0 -127 34q-51 31 -90 31q-47 0 -94 -47zM272 324q0 -150 113 -150q49 0 82 39t33 104v160h-72q-78 0 -113 -33q-43 -38 -43 -120z" />
<glyph unicode="&#xe4;" d="M55 315q0 154 101 242q84 74 247 74h97v149q0 125 -105 125q-45 0 -71 -31q-33 -35 -33 -100h-217q0 141 92 234q88 88 227 88q152 0 230 -80q94 -94 94 -254v-762h-205v92q-37 -51 -66 -72q-53 -37 -122 -36q-125 0 -203 90q-66 77 -66 241zM117 1223v204h205v-204h-205 zM272 324q0 -150 113 -150q49 0 82 39t33 104v160h-72q-78 0 -113 -33q-43 -38 -43 -120zM475 1223v204h205v-204h-205z" />
<glyph unicode="&#xe5;" d="M55 315q0 154 101 242q84 74 247 74h97v149q0 125 -105 125q-45 0 -71 -31q-33 -35 -33 -100h-217q0 141 92 234q88 88 227 88q152 0 230 -80q94 -94 94 -254v-762h-205v92q-37 -51 -66 -72q-53 -37 -122 -36q-125 0 -203 90q-66 77 -66 241zM184 1415q0 88 61.5 150.5 t151.5 62.5t152.5 -62.5t62.5 -150.5t-62.5 -151.5t-152.5 -63.5q-88 0 -150.5 62.5t-62.5 152.5zM272 324q0 -150 113 -150q49 0 82 39t33 104v160h-72q-78 0 -113 -33q-43 -38 -43 -120zM305 1415q0 -39 26.5 -66.5t65.5 -27.5t67 27.5t28 66.5t-28 66.5t-67 27.5 t-65.5 -27.5t-26.5 -66.5z" />
<glyph unicode="&#xe6;" horiz-adv-x="1232" d="M55 315q0 154 101 242q84 74 247 74h97v151q0 59 -28 91t-77 32t-76 -33q-29 -35 -28 -98h-217q0 141 92 234q88 88 227 88q115 0 180 -49q27 -23 39 -43q20 25 33 34q72 57 186 58q152 0 232 -86q16 -18 30.5 -40t23.5 -50l17 -51q7 -22 12 -61.5t8 -60t4 -68.5t2 -64.5 t1 -70.5v-67h-444q0 -209 33 -256q29 -43 81 -43q51 0 84 43q27 33 27 96h215q-6 -156 -90 -247q-78 -86 -236 -86q-104 0 -182 53q-49 35 -84 90q-45 -72 -86 -98q-61 -45 -155 -45q-125 0 -203 90q-66 77 -66 241zM272 324q0 -150 113 -150q49 0 82 39t33 104v160h-72 q-78 0 -113 -33q-43 -38 -43 -120zM717 637h227q0 184 -31 223q-33 43 -82 43t-81 -43q-33 -41 -33 -223z" />
<glyph unicode="&#xe7;" horiz-adv-x="786" d="M74 541q0 336 76 442q82 113 256 113q145 0 227 -76q84 -82 96 -256h-215q-4 70 -29 100q-27 39 -79 39q-55 0 -84 -45q-31 -53 -31 -317.5t31 -319.5q27 -43 84 -43q53 0 79 37q25 31 29 102h215q-10 -170 -94 -254q-80 -80 -229 -79q-174 0 -256 114q-76 103 -76 443z M233 -397l125 315h140l-109 -315h-156z" />
<glyph unicode="&#xe8;" d="M172 540.5q0 180.5 18.5 293t81.5 176.5q86 86 232 86q152 0 231 -86q16 -18 30.5 -40t24.5 -50l16 -51q7 -22 12 -61.5t8 -60t4 -68.5t2.5 -64.5t1.5 -70.5v-67h-445q0 -209 33 -256q29 -43 84 -43q49 0 82 43q27 33 26 96h215q-6 -156 -90 -247q-78 -86 -233 -86 q-145 0 -234 88q-63 63 -81.5 175.5t-18.5 293zM219 1487h182l148 -285h-152zM389 637h227q0 184 -30 223q-33 43 -82 43t-82 -43q-33 -41 -33 -223z" />
<glyph unicode="&#xe9;" horiz-adv-x="806" d="M74 540.5q0 180.5 18.5 293t81.5 176.5q86 86 232 86q152 0 231 -86q16 -18 30.5 -40t23.5 -50l17 -51q7 -22 12 -61.5t8 -60t4 -68.5t2 -64.5t1 -70.5v-67h-444q0 -209 33 -256q29 -43 84 -43q49 0 81 43q27 33 27 96h215q-6 -156 -90 -247q-78 -86 -233 -86 q-145 0 -234 88q-63 63 -81.5 175.5t-18.5 293zM291 637h227q0 184 -31 223q-33 43 -82 43t-81 -43q-33 -41 -33 -223zM315 1202l148 285h182l-178 -285h-152z" />
<glyph unicode="&#xea;" horiz-adv-x="806" d="M74 540.5q0 180.5 18.5 293t81.5 176.5q86 86 232 86q152 0 231 -86q16 -18 30.5 -40t23.5 -50l17 -51q7 -22 12 -61.5t8 -60t4 -68.5t2 -64.5t1 -70.5v-67h-444q0 -209 33 -256q29 -43 84 -43q49 0 81 43q27 33 27 96h215q-6 -156 -90 -247q-78 -86 -233 -86 q-145 0 -234 88q-63 63 -81.5 175.5t-18.5 293zM121 1202l203 285h170l202 -285h-166l-122 168l-121 -168h-166zM291 637h227q0 184 -31 223q-33 43 -82 43t-81 -43q-33 -41 -33 -223z" />
<glyph unicode="&#xeb;" horiz-adv-x="806" d="M74 540.5q0 180.5 18.5 293t81.5 176.5q86 86 232 86q152 0 231 -86q16 -18 30.5 -40t23.5 -50l17 -51q7 -22 12 -61.5t8 -60t4 -68.5t2 -64.5t1 -70.5v-67h-444q0 -209 33 -256q29 -43 84 -43q49 0 81 43q27 33 27 96h215q-6 -156 -90 -247q-78 -86 -233 -86 q-145 0 -234 88q-63 63 -81.5 175.5t-18.5 293zM127 1223v204h205v-204h-205zM291 637h227q0 184 -31 223q-33 43 -82 43t-81 -43q-33 -41 -33 -223zM485 1223v204h205v-204h-205z" />
<glyph unicode="&#xec;" horiz-adv-x="430" d="M-14 1487h182l147 -285h-151zM109 0v1079h217v-1079h-217z" />
<glyph unicode="&#xed;" horiz-adv-x="430" d="M109 0v1079h217v-1079h-217zM125 1202l147 285h185l-181 -285h-151z" />
<glyph unicode="&#xee;" horiz-adv-x="430" d="M-72 1202l203 285h170l203 -285h-166l-121 168l-123 -168h-166zM109 0v1079h217v-1079h-217z" />
<glyph unicode="&#xef;" horiz-adv-x="430" d="M-66 1223v204h205v-204h-205zM109 0v1079h217v-1079h-217zM293 1223v204h205v-204h-205z" />
<glyph unicode="&#xf0;" horiz-adv-x="819" d="M76 498q0 186 14 283.5t64 152.5q70 78 192 78q72 0 123 -35l-61 188h-154v160h104l-47 133h219l45 -133h144v-160h-96l63 -207q55 -184 55 -460q0 -305 -79 -408q-82 -106 -254 -106q-170 0 -252 106q-80 103 -80 408zM293 502q0 -231 33 -283q25 -41 82 -41q59 0 84 41 q33 51 32 283q0 233 -32 284q-25 41 -84 41q-57 0 -82 -41q-33 -51 -33 -284z" />
<glyph unicode="&#xf1;" horiz-adv-x="854" d="M106 0v1079h209v-80q37 49 72 68q47 29 109 29q125 0 196 -84q61 -70 62 -234v-778h-217v776q0 61 -30 93t-77 32t-76.5 -31.5t-29.5 -93.5v-776h-218zM147 1331q96 96 181 96q68 0 127 -34q51 -31 90 -31q45 0 92 47l96 -96q-94 -94 -182 -94q-68 0 -127 34 q-51 31 -90 31q-47 0 -94 -47z" />
<glyph unicode="&#xf2;" d="M172 541q0 336 76 442q82 113 256 113t256 -113q76 -106 76 -442t-76 -443q-82 -115 -256 -114.5t-256 114.5q-76 107 -76 443zM221 1487h182l148 -285h-152zM389 541q0 -266 31 -320q27 -43 84 -43t84 43q31 53 30 320q0 264 -30 317q-29 45 -84 45t-84 -45 q-31 -53 -31 -317z" />
<glyph unicode="&#xf3;" horiz-adv-x="811" d="M74 541q0 336 76 442q82 113 256 113t256 -113q76 -106 75.5 -442t-75.5 -443q-82 -115 -256 -114q-174 0 -256 114q-76 107 -76 443zM291 541q0 -266 31 -320q27 -43 84 -43t83 43q31 53 31 320q0 264 -31 317q-29 45 -84 45t-83 -45q-31 -53 -31 -317zM315 1202 l148 285h182l-178 -285h-152z" />
<glyph unicode="&#xf4;" horiz-adv-x="811" d="M74 541q0 336 76 442q82 113 256 113t256 -113q76 -106 75.5 -442t-75.5 -443q-82 -115 -256 -114q-174 0 -256 114q-76 107 -76 443zM121 1202l203 285h170l202 -285h-166l-122 168l-121 -168h-166zM291 541q0 -266 31 -320q27 -43 84 -43t83 43q31 53 31 320 q0 264 -31 317q-29 45 -84 45t-83 -45q-31 -53 -31 -317z" />
<glyph unicode="&#xf5;" horiz-adv-x="811" d="M74 541q0 336 76 442q82 113 256 113t256 -113q76 -106 75.5 -442t-75.5 -443q-82 -115 -256 -114q-174 0 -256 114q-76 107 -76 443zM121 1331q96 96 180 96q68 0 127 -34q51 -31 90 -31q45 0 92 47l97 -96q-94 -94 -183 -94q-68 0 -127 34q-51 31 -90 31q-47 0 -94 -47 zM291 541q0 -266 31 -320q27 -43 84 -43t83 43q31 53 31 320q0 264 -31 317q-29 45 -84 45t-83 -45q-31 -53 -31 -317z" />
<glyph unicode="&#xf6;" horiz-adv-x="811" d="M74 541q0 336 76 442q82 113 256 113t256 -113q76 -106 75.5 -442t-75.5 -443q-82 -115 -256 -114q-174 0 -256 114q-76 107 -76 443zM127 1223v204h205v-204h-205zM291 541q0 -266 31 -320q27 -43 84 -43t83 43q31 53 31 320q0 264 -31 317q-29 45 -84 45t-83 -45 q-31 -53 -31 -317zM485 1223v204h205v-204h-205z" />
<glyph unicode="&#xf7;" horiz-adv-x="935" d="M90 469v207h756v-207h-756zM342 66v251h254v-251h-254zM342 825v252h254v-252h-254z" />
<glyph unicode="&#xf8;" horiz-adv-x="806" d="M59 -90l84 196q-70 102 -69 435q0 336 76 442q82 113 256 113q96 0 157 -31l43 104h146l-84 -194q70 -102 69 -434q0 -336 -75 -443q-82 -115 -256 -114q-96 0 -158 30l-43 -104h-146zM289 541q0 -92 6 -123l186 461q-29 33 -75 32q-57 0 -84 -45q-33 -55 -33 -325z M330 201q29 -33 76 -33q55 0 83 47q33 55 33 326q0 100 -6 121z" />
<glyph unicode="&#xf9;" horiz-adv-x="854" d="M100 301v778h217v-776q0 -61 30 -93t77 -32t76.5 32t29.5 93v776h218v-1079h-207v82q-35 -47 -74 -68q-51 -31 -109 -30q-125 0 -196 84q-62 69 -62 233zM180 1487h182l148 -285h-152z" />
<glyph unicode="&#xfa;" horiz-adv-x="854" d="M100 301v778h217v-776q0 -61 30 -93t77 -32t76.5 32t29.5 93v776h218v-1079h-207v82q-35 -47 -74 -68q-51 -31 -109 -30q-125 0 -196 84q-62 69 -62 233zM356 1202l148 285h182l-178 -285h-152z" />
<glyph unicode="&#xfb;" horiz-adv-x="854" d="M100 301v778h217v-776q0 -61 30 -93t77 -32t76.5 32t29.5 93v776h218v-1079h-207v82q-35 -47 -74 -68q-51 -31 -109 -30q-125 0 -196 84q-62 69 -62 233zM141 1202l203 285h170l203 -285h-166l-123 168l-121 -168h-166z" />
<glyph unicode="&#xfc;" horiz-adv-x="854" d="M100 301v778h217v-776q0 -61 30 -93t77 -32t76.5 32t29.5 93v776h218v-1079h-207v82q-35 -47 -74 -68q-51 -31 -109 -30q-125 0 -196 84q-62 69 -62 233zM145 1223v204h205v-204h-205zM504 1223v204h205v-204h-205z" />
<glyph unicode="&#xfd;" horiz-adv-x="782" d="M8 1079h240l143 -735l141 735h240l-303 -1216q-37 -150 -134 -196t-269 -46v193q57 2 87.5 7t61.5 30.5t43 74.5l18 76zM301 1202l148 285h182l-178 -285h-152z" />
<glyph unicode="&#xfe;" horiz-adv-x="841" d="M109 -379v1837h208v-459q10 16 33 38t39 30q47 29 111 29q121 0 188 -84q49 -61 63.5 -166t14.5 -305.5t-14.5 -306t-63.5 -166.5q-70 -84 -188 -84q-63 0 -111 28q-37 20 -63 58v-449h-217zM326 307q0 -68 34 -102q27 -27 74 -27q53 0 82 43q33 55 33 320q0 262 -33 317 q-29 45 -82 45q-45 0 -74 -29q-35 -35 -34 -102v-465z" />
<glyph unicode="&#xff;" horiz-adv-x="782" d="M8 1079h240l143 -735l141 735h240l-303 -1216q-37 -150 -134 -196t-269 -46v193q57 2 87.5 7t61.5 30.5t43 74.5l18 76zM113 1223v204h204v-204h-204zM471 1223v204h205v-204h-205z" />
<glyph unicode="&#x152;" horiz-adv-x="1314" d="M84 729q0 252 20.5 397.5t85.5 225.5q98 123 273 123q117 0 184 -72v55h590v-207h-383v-413h330v-207h-330v-424h383v-207h-590v55q-72 -72 -184 -71q-176 0 -273 122q-63 82 -84.5 230.5t-21.5 392.5zM313 729.5q0 -401.5 52 -483.5q35 -55 108 -56q76 0 111 56 q31 49 40 156.5t9 326.5t-9.5 326.5t-39.5 156.5q-35 55 -111 56q-74 0 -108 -56q-52 -81 -52 -482.5z" />
<glyph unicode="&#x153;" horiz-adv-x="1255" d="M74 541q0 336 76 442q82 113 256 113q119 0 194 -64q18 -16 31 -37q16 23 39 39q78 61 182 62q152 0 231 -86q45 -47 69 -135.5t28 -161t4 -193.5v-43h-447q0 -209 33 -256q29 -43 84 -43q49 0 82 43q27 33 27 96h215q-6 -156 -91 -247q-78 -86 -233 -86q-109 0 -186 63 q-14 10 -35 39q-12 -20 -37 -41q-78 -61 -190 -61q-174 0 -256 114q-76 107 -76 443zM291 541q0 -266 31 -320q27 -43 84 -43t83 43q31 53 31 320q0 264 -31 317q-29 45 -84 45t-83 -45q-31 -53 -31 -317zM737 637h230q0 182 -33 223q-33 43 -82 43t-82 -43 q-33 -41 -33 -223z" />
<glyph unicode="&#x178;" horiz-adv-x="796" d="M0 1458h254l143 -577l146 577h252l-283 -887v-571h-229v571zM117 1577v205h205v-205h-205zM475 1577v205h205v-205h-205z" />
<glyph unicode="&#x2c6;" d="M121 1202l203 285h170l202 -285h-166l-122 168l-121 -168h-166z" />
<glyph unicode="&#x2dc;" d="M123 1331q96 96 180 96q68 0 127 -34q51 -31 90 -31q45 0 92 47l97 -96q-94 -94 -183 -94q-68 0 -127 34q-51 31 -90 31q-47 0 -94 -47z" />
<glyph unicode="&#x2013;" horiz-adv-x="935" d="M90 487v207h756v-207h-756z" />
<glyph unicode="&#x2014;" horiz-adv-x="1456" d="M96 487v207h1266v-207h-1266z" />
<glyph unicode="&#x2018;" horiz-adv-x="468" d="M117 1217v241l235 174v-415h-235z" />
<glyph unicode="&#x2019;" horiz-adv-x="468" d="M117 1040v418h235v-241z" />
<glyph unicode="&#x201a;" horiz-adv-x="468" d="M117 -174v416h235v-242z" />
<glyph unicode="&#x201c;" horiz-adv-x="856" d="M117 1217v241l235 174v-415h-235zM502 1217v241l237 174v-415h-237z" />
<glyph unicode="&#x201d;" horiz-adv-x="856" d="M117 1040v418h235v-241zM502 1040v418h237v-241z" />
<glyph unicode="&#x201e;" horiz-adv-x="856" d="M117 -174v416h235v-242zM502 -174v416h237v-242z" />
<glyph unicode="&#x2022;" horiz-adv-x="913" d="M123 684q0 139 98 236.5t235.5 97.5t236 -97.5t98.5 -236.5t-98.5 -236.5t-236 -97.5t-235.5 97.5t-98 236.5z" />
<glyph unicode="&#x2026;" horiz-adv-x="1339" d="M115 0v252h252v-252h-252zM545 0v252h252v-252h-252zM975 0v252h252v-252h-252z" />
<glyph unicode="&#x2039;" horiz-adv-x="473" d="M49 565l330 508v-323l-125 -185l125 -188v-322z" />
<glyph unicode="&#x203a;" horiz-adv-x="473" d="M96 55v322l123 188l-123 185v323l328 -508z" />
<glyph unicode="&#x20ac;" horiz-adv-x="1019" d="M66 481v166h114v164h-114v166h118q6 264 103 375q109 123 280 123q156 0 256 -95q111 -104 117 -307h-229q-4 195 -144 195q-78 0 -112 -56q-37 -57 -39 -235h217v-166h-223v-164h223v-166h-217q2 -180 41 -235q37 -55 110 -56q139 0 144 197h229q-6 -207 -121 -311 q-102 -92 -252 -92q-172 0 -280 122q-96 109 -103 375h-118z" />
<glyph unicode="&#x2122;" horiz-adv-x="1292" d="M51 1325v133h441v-133h-150v-762h-143v762h-148zM594 563v895h129l168 -461l170 461h129v-895h-143v539l-115 -350h-82l-113 344v-533h-143z" />
<glyph unicode="&#xe000;" horiz-adv-x="1080" d="M0 1080h1080v-1080h-1080v1080z" />
<glyph unicode="&#xfb01;" horiz-adv-x="948" d="M39 913v166h111v68q0 174 108 260q88 68 258 68v-195q-78 0 -113.5 -34t-35.5 -111v-56h149v-166h-149v-913h-217v913h-111zM614 1217v239h240v-239h-240zM625 0v1079h217v-1079h-217z" />
<glyph unicode="&#xfb02;" horiz-adv-x="1026" d="M39 913v166h111v68q0 174 108 260q88 68 258 68v-195q-150 0 -149 -145v-56h149v-166h-149v-913h-217v913h-111zM625 328v1130h217v-1118q0 -145 147 -145v-195q-170 0 -254 66q-110 84 -110 262z" />
<glyph unicode="&#xfb03;" horiz-adv-x="1540" d="M39 913v166h111v64q0 174 108 260q88 68 258 67v-194q-150 0 -149 -146v-51h149v-166h-149v-913h-217v913h-111zM594 913v166h111v64q0 174 108 260q88 68 258 67v-194q-150 0 -149 -146v-51h149v-166h-149v-913h-217v913h-111zM1204 1217v239h240v-239h-240zM1217 0 v1051h217v-1051h-217z" />
<glyph unicode="&#xfb04;" horiz-adv-x="1609" d="M39 913v166h111v64q0 174 108 260q88 68 258 67v-194q-150 0 -149 -146v-51h149v-166h-149v-913h-217v913h-111zM594 913v166h111v64q0 174 108 260q88 68 258 67v-194q-150 0 -149 -146v-51h149v-166h-149v-913h-217v913h-111zM1210 328v1130h217v-1118q0 -145 148 -145 v-195q-172 0 -256 66q-109 82 -109 262z" />
</font>
</defs>
</svg>
