<?xml version="1.0" standalone="no"?>
<!DOCTYPE svg PUBLIC "-//W3C//DTD SVG 1.1//EN" "http://www.w3.org/Graphics/SVG/1.1/DTD/svg11.dtd" >
<svg xmlns="http://www.w3.org/2000/svg">
<metadata>
This is a custom SVG webfont generated by Font Squirrel.
Copyright   : Copyright 199093 Roger Vershen PAGE STUDIO GRAPHICS  6028392763   3175 N Price Rd 1050 Chandler AZ 85224
</metadata>
<defs>
<font id="HGBPIXymbolsRegular" horiz-adv-x="552" >
<font-face units-per-em="2048" ascent="1434" descent="-614" />
<missing-glyph horiz-adv-x="819" />
<glyph unicode=" "  horiz-adv-x="819" />
<glyph unicode="&#x09;" horiz-adv-x="819" />
<glyph unicode="&#xa0;" horiz-adv-x="819" />
<glyph unicode="!" horiz-adv-x="1740" d="M0 0q0 27 8 49q2 6 10 19l852 1267l852 -1267q6 -12 9 -19q10 -27 10 -49q0 -31 -6 -47q-4 -8 -21.5 -32.5t-46.5 -36t-53 -11.5h-21q-2 0 -8 2l-407 125v-614h-615v614l-407 -125q-18 -2 -29 -2q-39 0 -60.5 11.5t-37 33t-22.5 44t-7 38.5z" />
<glyph unicode="&#x22;" horiz-adv-x="716" d="M131 1405h164l-41 -399h-82zM393 1405h164l-41 -399h-82z" />
<glyph unicode="#" horiz-adv-x="1949" d="M0 256v614h614l-122 408q-2 18 -3 29q0 31 10.5 56.5t34 41.5t41 21.5t42 5.5t47.5 -9q6 -2 18 -10l1268 -850l-1268 -852q-12 -6 -26.5 -11t-39.5 -5q-31 0 -47 6q-8 4 -32.5 21.5t-36 46t-11.5 53.5v20q0 2 3 8l122 406h-614z" />
<glyph unicode="$" horiz-adv-x="1595" d="M0 63q-1 8 -1 17q0 40 26 74q10 12 34 32l375 199l-434 434l436 436l434 -436l199 375q18 23 31 33q36 28 77 27q8 0 15 -1q59 -8 90 -53q10 -14 21 -45l292 -1495l-1497 293q-16 4 -26 8q-62 30 -72 102z" />
<glyph unicode="%" horiz-adv-x="1740" d="M0 819q0 31 6 47q4 8 21.5 33t46 36t53.5 11h20q2 0 9 -2l407 -125v615h615v-615l407 125q18 2 29 2q39 0 60.5 -11t39.5 -36q12 -18 19.5 -40.5t7.5 -39.5q0 -27 -5 -41t-14 -26l-852 -1268l-852 1268q-6 12 -8 18q-10 26 -10 49z" />
<glyph unicode="&#x26;" horiz-adv-x="1949" d="M0 563l1268 850q12 6 18 8q27 10 47 11q31 0 46.5 -5.5t40 -23t32.5 -49t8 -47.5v-21q0 -2 -2 -8l-123 -408h615v-614h-615l123 -406q2 -18 2 -28q0 -39 -11 -60.5t-32.5 -38t-44 -22.5t-41.5 -6q-23 0 -37 5t-26 11z" />
<glyph unicode="'" horiz-adv-x="454" d="M131 1405h164l-41 -399h-82z" />
<glyph unicode="*" horiz-adv-x="1595" d="M0 1159l1497 -293q16 -4 27 -8q61 -31 71 -102q1 -8 1 -16q0 -40 -25 -74q-10 -12 -35 -33l-375 -199l434 -434l-436 -436l-434 436l-199 -375q-18 -23 -30 -33q-36 -28 -77 -27q-8 0 -16 1q-59 8 -90 53q-10 14 -20 45z" />
<glyph unicode="+" horiz-adv-x="1740" d="M563 -614v2048h615v-2048h-615z" />
<glyph unicode="-" horiz-adv-x="163" d="M-41 627v164h246v-164h-246z" />
<glyph unicode="." horiz-adv-x="491" d="M131 82q0 41 28.5 69.5t69.5 28.5t70 -28.5t29 -69.5t-29 -69.5t-70 -28.5t-69.5 28.5t-28.5 69.5z" />
<glyph unicode="/" horiz-adv-x="1368" d="M-205 -614l1178 2048h170l-1180 -2048h-168z" />
<glyph unicode="0" horiz-adv-x="593" d="M0 655q0 147 10 287q2 45 10 109q16 92 41 137q74 139 236 139t235 -137q25 -45 41 -139q8 -57 11 -101q10 -133 10 -295q0 -135 -10 -278q-2 -47 -11 -117q-16 -92 -41 -137q-74 -139 -235 -139q-164 0 -236 137q-23 45 -41 139q-8 70 -10 117q-10 143 -10 278zM164 655 q0 -98 10 -256q2 -51 10 -139q6 -37 15 -55q29 -57 98.5 -57.5t97.5 55.5q8 18 15 57q8 86 10 137q10 158 10 258.5t-10 257.5q-2 51 -10 138q-6 37 -17 55q-31 57 -96.5 57t-93.5 -55q-8 -18 -19 -57q-8 -82 -10 -133q-10 -157 -10 -263z" />
<glyph unicode="1" horiz-adv-x="266" d="M0 1130v99q25 0 39 5t47 21q45 27 68 56h112v-1311h-164v1130h-102z" />
<glyph unicode="2" d="M0 1047q0 111 68 190q78 90 208 90q125 0 201 -82t76 -201q0 -127 -53 -237q-37 -78 -119 -172q-115 -135 -168 -318q-16 -59 -31 -153h353l2 -164h-537q0 59 2 121q12 147 57 282q61 184 183 324q90 104 125 191q23 57 22 120q0 72 -28.5 98.5t-84.5 26.5 q-78 0 -102 -57q-8 -18 -10 -59h-164z" />
<glyph unicode="3" d="M0 258h164q4 -37 12 -55q27 -55 100 -56q57 0 85 61.5t28 170.5q0 170 -59 223q-27 25 -86 25h-47v164h24q61 0 90 32q49 55 49 201q0 78 -34 113q-27 27 -70 26q-57 0 -78 -49q-6 -16 -8 -49h-164q0 102 65.5 182t184.5 80t193.5 -83t74.5 -230q0 -150 -41 -234 q-12 -27 -41 -55q37 -27 56 -55q55 -90 55 -260q0 -199 -73.5 -312.5t-203.5 -113.5q-172 0 -241 137q-23 45 -35 137z" />
<glyph unicode="4" horiz-adv-x="634" d="M0 328v164l381 819h172v-819h82v-164h-82v-328h-164v328h-389zM178 492h211v450z" />
<glyph unicode="5" d="M0 25l78 143q2 -4 6 -6q25 -14 80 -15q98 0 166 132q59 117 59 247q0 115 -35 160q-27 35 -84 35q-53 0 -82 -31q-8 -10 -16 -31l-160 25l29 627h471v-164h-315l-15 -273q37 12 92 13q113 0 185 -70q94 -92 94 -291q0 -270 -129 -417q-111 -125 -268 -125q-72 0 -121 20 q-15 7 -35 21z" />
<glyph unicode="6" d="M0 389q0 303 139 555q113 207 312 367l114 -115q-141 -111 -212.5 -206t-102.5 -199q37 4 51 4q252 0 252 -406q0 -215 -71.5 -310t-205.5 -95q-139 0 -207.5 103t-68.5 302zM164 389q0 -135 33 -194q27 -47 79 -48q72 0 97 70q16 47 16 172q0 119 -22.5 178.5 t-90.5 59.5q-63 0 -87.5 -61.5t-24.5 -176.5z" />
<glyph unicode="7" d="M0 1147v164h553v-164q-45 -92 -72 -152q-84 -190 -123 -336q-45 -166 -67 -432q-6 -86 -15 -227h-163q6 150 14 242q25 266 78 454q43 156 112 318q23 53 62 133h-379z" />
<glyph unicode="8" d="M0 395q0 119 26.5 206t65.5 112q-37 29 -54.5 84t-17.5 176q0 170 69 262t187 92q121 0 188.5 -101.5t67.5 -252.5q0 -229 -71 -266q39 -25 65.5 -108t26.5 -204q0 -190 -64 -295q-70 -117 -213 -116q-139 0 -207.5 111.5t-68.5 299.5zM164 395q0 -119 25.5 -183.5 t86.5 -64.5q68 0 90.5 62.5t22.5 185.5q0 106 -20 160q-27 72 -92.5 72t-89 -59.5t-23.5 -172.5zM184 973q0 -88 15 -125q23 -57 77 -57q57 0 78 55q14 39 15 127q0 84 -13 123q-23 68 -80 67q-53 0 -72.5 -58t-19.5 -132z" />
<glyph unicode="9" d="M-12 115q141 111 212.5 206t102.5 199q-37 -4 -51 -4q-252 0 -252 406q0 215 71.5 310t204.5 95q139 0 208 -103.5t69 -301.5q0 -303 -139 -555q-113 -207 -312 -367zM164 922q0 -119 22.5 -178.5t89.5 -59.5q63 0 88 61.5t25 176.5q0 135 -29.5 188t-83.5 53 q-72 0 -96 -69q-16 -47 -16 -172z" />
<glyph unicode=":" horiz-adv-x="491" d="M131 440q0 41 28.5 70t69.5 29t70 -29t29 -70t-29 -69.5t-70 -28.5t-69.5 28.5t-28.5 69.5zM131 870q0 41 28.5 70t69.5 29t70 -29t29 -70t-29 -69.5t-70 -28.5t-69.5 28.5t-28.5 69.5z" />
<glyph unicode="&#x3c;" horiz-adv-x="1802" d="M0 1253v99q25 0 39 5t47 21q45 27 68 56h112v-1311h-164v1130h-102zM0 -614l1178 2048h170l-1180 -2048h-168zM840 -123l381 819h172v-819h82v-164h-82v-327h-164v327h-389v164zM1018 -123h211v451z" />
<glyph unicode="=" horiz-adv-x="974" d="M-61 256v614h1097v-614h-1097z" />
<glyph unicode="&#x3e;" horiz-adv-x="1802" d="M0 1253v99q25 0 39 5t47 21q45 27 68 56h112v-1311h-164v1130h-102zM0 -614l1178 2048h170l-1180 -2048h-168zM1020 432q0 111 67 191q78 90 209 90q125 0 201 -82t76 -201q0 -127 -53 -237q-37 -78 -119 -173q-115 -135 -168 -317q-16 -59 -31 -154h352l2 -163h-536 q0 61 2 120q12 147 57 283q61 184 183 324q90 104 124 190q23 57 23 121q0 72 -28.5 98.5t-84.5 26.5q-78 0 -102 -57q-8 -18 -10 -60h-164z" />
<glyph unicode="?" horiz-adv-x="2048" d="M4 365h164q4 -37 12 -56q27 -55 101 -55q57 0 84.5 61.5t27.5 169.5q0 170 -59 224q-27 25 -86 24h-47v164h24q61 0 90 33q49 55 50 200q0 78 -35 113q-27 27 -70 27q-57 0 -78 -49q-6 -16 -8 -50h-164q0 102 65.5 182.5t184.5 80.5t193.5 -83t74.5 -231q0 -150 -41 -233 q-12 -27 -41 -56q37 -27 56 -55q55 -90 55 -260q0 -199 -73.5 -312.5t-202.5 -113.5q-172 0 -242 137q-23 46 -35 138zM246 -614l1177 2048h170l-1179 -2048h-168zM1085 -123l381 819h172v-819h82v-164h-82v-327h-163v327h-390v164zM1264 -123h211v451z" />
<glyph unicode="@" horiz-adv-x="1595" d="M0 0l434 434l-375 199q-23 18 -32 31q-28 36 -28 76q0 8 1 16q8 59 53 90q14 10 45 20l1497 293l-292 -1495q-4 -16 -9 -26q-31 -61 -102 -72q-8 -1 -16 -1q-40 0 -74 25q-12 10 -33 35l-199 375l-434 -436z" />
<glyph unicode="A" horiz-adv-x="696" d="M0 0l260 1311h174l262 -1311l-168 -2l-69 356h-221l-72 -354h-166zM270 518h156l-78 402z" />
<glyph unicode="B" d="M0 0v1311h287q98 0 157 -58q90 -86 91 -284q0 -147 -18.5 -200.5t-59.5 -76.5q41 -16 68.5 -93t27.5 -234q0 -84 -7 -143.5t-26 -94.5q-45 -86 -129 -115q-27 -8 -78 -12h-313zM164 164h112q55 0 74 22q39 45 39 207q0 158 -35 207q-18 27 -67 27h-123v-463zM164 791h123 q45 0 59 18q25 33 25 160q0 121 -33 159q-16 18 -51 19h-123v-356z" />
<glyph unicode="C" d="M0 655q0 147 10 287q2 45 10 109q16 92 41 137q74 139 236 139q166 0 229 -127q20 -41 31 -129h-164q-2 31 -8 45q-23 47 -88.5 47t-93.5 -55q-8 -18 -19 -57q-8 -82 -10 -133q-10 -156 -10 -263q0 -98 10 -256q2 -51 10 -139q6 -37 15 -55q29 -57 98 -58q74 0 96 84 q6 27 6 86h164q-4 -111 -22 -165q-61 -168 -244 -168q-164 0 -236 137q-23 45 -41 139q-8 70 -10 117q-10 143 -10 278z" />
<glyph unicode="D" d="M0 0v1311h256q125 0 186 -82q111 -147 111 -574q0 -430 -109 -573q-61 -82 -188 -82h-256zM164 164h76q80 0 114.5 115.5t34.5 375.5q0 330 -59 437q-31 55 -90 55h-76v-983z" />
<glyph unicode="E" horiz-adv-x="491" d="M0 0v1311h471v-164h-307v-356h231v-164h-231v-463h328v-164h-492z" />
<glyph unicode="F" horiz-adv-x="491" d="M0 0v1311h492v-164h-328v-356h184v-164h-184v-627h-164z" />
<glyph unicode="G" d="M0 655q0 147 10 287q2 45 10 109q16 92 41 137q74 139 236 139q166 0 229 -127q20 -41 31 -129h-164q-2 31 -8 45q-23 47 -88.5 47t-93.5 -55q-8 -18 -19 -57q-8 -82 -10 -133q-10 -156 -10 -263q0 -98 10 -256q2 -51 10 -139q6 -37 15 -55q29 -57 98 -58q57 0 78 56 q14 37 14 114v146h-86v164h250v-310q0 -147 -47 -227q-63 -106 -209 -106q-164 0 -236 137q-23 45 -41 139q-8 70 -10 117q-10 143 -10 278z" />
<glyph unicode="H" d="M0 0v1311h164v-520h225v520h164v-1311h-164v627h-225v-623z" />
<glyph unicode="I" horiz-adv-x="163" d="M0 0v1311h164v-1311h-164z" />
<glyph unicode="J" horiz-adv-x="573" d="M0 223l164 33q8 -37 18 -53q33 -55 105 -56q86 0 112 91q8 29 11 90v983h163v-983q0 -68 -8 -107q-51 -238 -278 -237q-162 0 -240 118q-24 39 -47 121z" />
<glyph unicode="K" horiz-adv-x="573" d="M0 0v1311h164v-467l219 467h184l-215 -457l221 -854h-170l-161 625l-78 -166v-459h-164z" />
<glyph unicode="L" horiz-adv-x="491" d="M0 0v1311h164v-1147h328v-164h-492z" />
<glyph unicode="M" horiz-adv-x="634" d="M0 0v1311h164l153 -471l154 471h164v-1311h-164v778l-154 -475l-153 475v-778h-164z" />
<glyph unicode="N" d="M0 0v1311h164l225 -697v697h164v-1311h-129l-260 797v-797h-164z" />
<glyph unicode="O" horiz-adv-x="593" d="M0 655q0 147 10 287q2 45 10 109q16 92 41 137q74 139 236 139t235 -137q25 -45 41 -139q8 -57 11 -101q10 -133 10 -295q0 -135 -10 -278q-2 -47 -11 -117q-16 -92 -41 -137q-74 -139 -235 -139q-164 0 -236 137q-23 45 -41 139q-8 70 -10 117q-10 143 -10 278zM164 655 q0 -98 10 -256q2 -51 10 -139q6 -37 15 -55q29 -57 98.5 -57.5t97.5 55.5q8 18 15 57q8 86 10 137q10 158 10 258.5t-10 257.5q-2 51 -10 138q-6 37 -17 55q-31 57 -96.5 57t-93.5 -55q-8 -18 -19 -57q-8 -82 -10 -133q-10 -157 -10 -263z" />
<glyph unicode="P" d="M0 0v1311h246q139 0 217 -88q88 -100 88 -293q0 -184 -84 -275q-76 -82 -209 -82h-94v-573h-164zM164 737h94q63 8 88 39q43 51 43 154q0 117 -41 172q-25 33 -90 45h-94v-410z" />
<glyph unicode="Q" horiz-adv-x="593" d="M0 655q0 147 10 287q2 45 10 109q16 92 41 137q74 139 236 139t235 -137q25 -45 41 -139q8 -57 11 -101q10 -133 10 -295q0 -135 -10 -278q-2 -47 -8.5 -99.5t-10.5 -72.5q-14 -61 -53 -115l63 -88l-110 -78l-57 80q-51 -20 -111 -20q-164 0 -236 137q-23 45 -41 139 q-8 70 -10 117q-10 143 -10 278zM164 655q0 -98 10 -256q2 -51 10 -139q6 -37 17 -55q33 -57 108 -58l-69 99l110 78l58 -82q4 29 13 166t9 247q0 100 -10 258q-2 51 -10 138q-6 37 -17 55q-31 57 -96.5 57t-93.5 -55q-8 -18 -19 -57q-8 -82 -10 -133q-10 -157 -10 -263z " />
<glyph unicode="R" d="M0 0v1311h225q164 0 242 -82q86 -90 86 -273q0 -162 -72 -249q-23 -29 -71 -58l143 -649l-168 -2l-135 608h-86v-606h-164zM164 770h82q70 0 106.5 47t36.5 139q0 109 -63 150q-33 20 -80 20h-82v-356z" />
<glyph unicode="S" d="M0 328h164q0 -35 2 -56q18 -125 110 -125q57 0 85 34t28 95q0 156 -94 283l-178 213q-96 133 -97 289q0 88 50 162q70 104 202 104q182 0 246 -153q20 -51 27 -154h-164q0 49 -8 72q-25 72 -101 71q-45 0 -66.5 -29.5t-21.5 -72.5q0 -125 95 -238l178 -207 q96 -143 96 -340q0 -117 -70 -200q-78 -92 -207 -92q-176 0 -243 172q-21 57 -33 172z" />
<glyph unicode="T" horiz-adv-x="491" d="M0 1147v164h492v-164h-164v-1147h-164v1147h-164z" />
<glyph unicode="U" d="M0 260v1051h164v-1051q0 -39 29.5 -76t82.5 -37q55 0 84 36t29 77v1051h164v-1051q0 -115 -81 -195.5t-196 -80.5q-121 0 -198.5 83.5t-77.5 192.5z" />
<glyph unicode="V" horiz-adv-x="612" d="M0 1311h164l139 -779l137 779h166l-233 -1311h-140z" />
<glyph unicode="W" horiz-adv-x="819" d="M0 1311h164l78 -615l90 615h155l91 -615l77 615h164l-160 -1311h-147l-102 707l-103 -707h-147z" />
<glyph unicode="X" horiz-adv-x="606" d="M0 0l217 664l-211 647h172l125 -385l125 385h174l-213 -647l217 -664h-174l-129 401l-129 -401h-174z" />
<glyph unicode="Y" horiz-adv-x="696" d="M0 1311h176l172 -447l172 447h176l-266 -690v-621h-164v621z" />
<glyph unicode="Z" d="M0 0v164l377 983h-357v164h533v-164l-377 -983h377v-164h-553z" />
<glyph unicode="[" horiz-adv-x="409" />
<glyph unicode="\" horiz-adv-x="1474" d="M164 0l991 1311h131l-991 -1311h-131zM164 991q0 115 37 199q61 137 205 137q141 0 202 -137q39 -86 39 -199q0 -115 -37 -198q-61 -137 -204 -138q-113 0 -175 84q-67 92 -67 252zM311 991q0 -80 21.5 -138t73 -58t75.5 67q18 53 18.5 129t-18.5 129q-25 68 -74 68 t-72.5 -60.5t-23.5 -136.5zM803 319q0 115 37 199q61 137 204 137q141 0 203 -137q39 -86 39 -199q0 -115 -37 -198q-61 -137 -205 -137q-113 0 -174 84q-67 91 -67 251zM950 319q0 -80 21.5 -138t73 -58t75.5 67q18 53 18.5 129t-18.5 130q-25 68 -74 67.5t-72.5 -61 t-23.5 -136.5z" />
<glyph unicode="]" horiz-adv-x="184" />
<glyph unicode="^" horiz-adv-x="1595" d="M0 -340l293 1495q4 16 8 27q31 61 102 71q8 1 17 1q40 0 74 -25q12 -10 32 -35l199 -375l434 436l436 -436l-434 -434l375 -199q23 -18 33 -30q28 -36 27 -77q0 -8 -1 -16q-8 -59 -53 -90q-14 -10 -45 -20z" />
<glyph unicode="_" horiz-adv-x="983" d="M246 627v164h491v-164h-491z" />
<glyph unicode="a" horiz-adv-x="471" d="M0 317.5q0 135.5 58.5 236.5t160.5 101q57 0 86 -20q8 -6 19 -23v115q0 125 -88 125q-51 0 -101 -39q-16 -12 -39 -39l-47 125q31 33 53 49q70 51 136 51q111 0 172 -63.5t61 -183.5v-752h-147v33q-23 -20 -37 -29q-31 -20 -70 -20q-98 0 -157.5 99t-59.5 234.5zM147 317 q0 -92 20.5 -143t65.5 -51q43 0 70 31q8 10 21 32v277q-10 18 -19 26q-29 27 -72 27q-86 0 -86 -199z" />
<glyph unicode="b" horiz-adv-x="483" d="M0 0v1223l147 88v-359q31 47 115 47q133 0 182 -145q39 -113 39 -362q0 -252 -37 -361q-49 -147 -184 -147q-39 0 -70.5 13t-44.5 34v-31h-147zM147 199q12 -37 41 -56.5t54 -19.5q57 0 75.5 75.5t18.5 293.5q0 215 -18.5 291.5t-73.5 76.5q-35 0 -59.5 -17.5 t-37.5 -58.5v-585z" />
<glyph unicode="c" horiz-adv-x="473" d="M0 492q0 258 37 360q53 147 205 147q98 0 151 -59q61 -68 80 -217h-145q-8 80 -28.5 108.5t-55.5 28.5q-55 0 -76 -76.5t-21 -291.5q0 -219 19.5 -294t75.5 -75q43 0 61.5 33.5t24.5 103.5h145q-33 -276 -231 -276q-150 0 -203 145q-39 109 -39 363z" />
<glyph unicode="d" horiz-adv-x="483" d="M0 492q0 248 39 360q51 147 182 147q84 0 115 -47v271l147 88v-1311h-147v31q-12 -18 -43 -32.5t-72 -14.5q-135 0 -184 145q-37 109 -37 363zM147 492q0 -221 17.5 -295t77.5 -74q27 0 54.5 18.5t39.5 57.5v585q-12 39 -38 57.5t-58 18.5q-55 0 -74 -74.5t-19 -293.5z " />
<glyph unicode="e" horiz-adv-x="483" d="M0 492q0 258 37 360q53 147 205 147q150 0 202 -145q39 -106 39 -362v-72h-336q0 -164 23 -230.5t72 -66.5q35 0 52 20.5t28 65.5h145q-33 -129 -83 -177t-142 -48q-150 0 -203 145q-39 109 -39 363zM147 547h189q0 182 -19.5 247.5t-73 65.5t-75 -65.5t-21.5 -247.5z " />
<glyph unicode="f" horiz-adv-x="389" d="M0 852v131h90v125q0 86 43 137t133 51q55 0 94 -12q12 -4 29 -14v-131q-10 4 -18 6q-29 8 -56 8q-41 0 -59 -15.5t-18 -58.5v-96h151v-131h-151v-852h-148v852h-90z" />
<glyph unicode="g" horiz-adv-x="483" d="M0 492q0 252 37 360q49 147 184 147q39 0 71 -13t44 -34v31h147v-1178q0 -123 -88 -208q-80 -78 -178 -78l-47 145q100 0 143 66q23 35 23 75v226q-31 -47 -115 -47q-133 0 -182 145q-39 113 -39 363zM147 492q0 -215 18.5 -292t74.5 -77q35 0 59.5 17.5t36.5 58.5v585 q-12 37 -41 56.5t-53 19.5q-57 0 -76 -75.5t-19 -292.5z" />
<glyph unicode="h" horiz-adv-x="471" d="M0 0v1223l147 88v-369q14 20 27 29q39 29 107 28q86 0 138 -49t52 -149v-801h-147v764q0 39 -27 63.5t-61.5 24.5t-61.5 -24.5t-27 -63.5v-764h-147z" />
<glyph unicode="i" horiz-adv-x="147" d="M-8 1229q0 35 20.5 58.5t61.5 23.5t62.5 -23.5t21.5 -58.5q0 -33 -22.5 -57.5t-61.5 -24.5t-60.5 23.5t-21.5 58.5zM0 0v983h147v-983h-147z" />
<glyph unicode="j" horiz-adv-x="184" d="M-102 -334q55 0 97 40t42 99v1178h147v-1178q0 -119 -84 -202.5t-202 -83.5v147zM29 1229q0 35 20.5 58.5t61.5 23.5t62.5 -23.5t21.5 -58.5q0 -33 -22.5 -57.5t-61.5 -24.5t-60.5 23.5t-21.5 58.5z" />
<glyph unicode="k" horiz-adv-x="471" d="M0 0v1223l147 88v-672l160 344h164l-152 -328l152 -655h-152l-102 436l-70 -149v-287h-147z" />
<glyph unicode="l" horiz-adv-x="147" d="M0 0v1223l147 88v-1311h-147z" />
<glyph unicode="m" horiz-adv-x="806" d="M0 0v983h147v-41q14 20 27 29q39 29 107 28q63 0 110 -30q14 -10 35 -31q18 20 35 31q51 31 133 30q94 0 153.5 -50t59.5 -148v-801h-148v764q0 39 -26.5 63.5t-63.5 24.5t-64.5 -25.5t-27.5 -62.5v-764h-147v764q0 39 -29 63.5t-65 24.5q-35 0 -62 -24.5t-27 -63.5v-764 h-147z" />
<glyph unicode="n" horiz-adv-x="471" d="M0 0v983h147v-41q14 20 27 29q39 29 107 28q86 0 138 -49t52 -149v-801h-147v764q0 39 -27 63.5t-61.5 24.5t-61.5 -24.5t-27 -63.5v-764h-147z" />
<glyph unicode="o" horiz-adv-x="483" d="M0 492q0 258 37 360q53 147 205 147q150 0 202 -145q39 -106 39 -362q0 -258 -37 -361q-53 -147 -204 -147q-150 0 -203 145q-39 109 -39 363zM147 492q0 -219 19.5 -294t75.5 -75q57 0 75.5 75.5t18.5 293.5q0 215 -18.5 291.5t-74 76.5t-76 -76.5t-20.5 -291.5z" />
<glyph unicode="p" horiz-adv-x="483" d="M0 -399v1382h147v-31q12 18 43 32.5t72 14.5q135 0 184 -145q37 -109 37 -362q0 -248 -39 -361q-51 -147 -182 -147q-84 0 -115 47v-342zM147 199q12 -39 38 -57.5t59 -18.5q55 0 73.5 74.5t18.5 294.5q0 221 -17.5 294.5t-76.5 73.5q-27 0 -54.5 -18.5t-40.5 -57.5v-585 z" />
<glyph unicode="q" horiz-adv-x="483" d="M0 492q0 252 37 360q49 147 184 147q39 0 71 -13t44 -34v31h147v-1294l-147 -88v430q-31 -47 -115 -47q-133 0 -182 145q-39 113 -39 363zM147 492q0 -215 18.5 -292t74.5 -77q35 0 59.5 17.5t36.5 58.5v585q-12 37 -41 56.5t-53 19.5q-57 0 -76 -75.5t-19 -292.5z" />
<glyph unicode="r" horiz-adv-x="421" d="M0 0v983h147v-41q14 20 27 29q41 29 109 28q59 0 104 -26q14 -8 35 -29l-103 -153q0 16 -27.5 38.5t-55.5 22.5q-35 0 -62 -24.5t-27 -63.5v-764h-147z" />
<glyph unicode="s" horiz-adv-x="479" d="M0 68l47 133q29 -25 49 -35q63 -35 131 -35q47 0 76 43t29 88q0 145 -157 250.5t-157 235.5q0 98 50 165q61 86 184 86q80 0 151 -38q23 -12 56 -39l-45 -129q-25 20 -43 28q-59 31 -117 31q-88 0 -88 -107q0 -57 156.5 -170.5t156.5 -312.5q0 -106 -63 -186 q-74 -92 -197 -92q-84 0 -160 41q-24 12 -59 43z" />
<glyph unicode="t" horiz-adv-x="409" d="M0 852v131h102v229l148 99v-328h160v-131h-160v-629q0 -35 17.5 -61.5t51.5 -26.5q31 0 64 29q10 8 27 29l-27 -154q-16 -18 -29 -27q-41 -29 -94 -28q-82 0 -120 61t-38 150v657h-102z" />
<glyph unicode="u" horiz-adv-x="471" d="M0 182v801h147v-764q0 -39 27 -63.5t61.5 -24.5t61.5 24.5t27 63.5v764h147v-983h-147v41q-14 -20 -27 -29q-39 -29 -107 -28q-86 0 -138 49t-52 149z" />
<glyph unicode="v" horiz-adv-x="516" d="M0 983h150l108 -537l107 537h151l-199 -983h-120z" />
<glyph unicode="w" horiz-adv-x="770" d="M0 983h150l88 -520l77 520h140l77 -516l89 516h149l-170 -983h-139l-76 510l-76 -510h-139z" />
<glyph unicode="x" horiz-adv-x="573" d="M0 0l207 535l-172 448h158l94 -240l94 240h158l-172 -448l206 -535h-159l-127 330l-127 -330h-160z" />
<glyph unicode="y" horiz-adv-x="608" d="M0 983h150l163 -666l146 666h149l-297 -1372h-151l84 391z" />
<glyph unicode="z" horiz-adv-x="479" d="M0 0v147l315 689h-295v147h459v-147l-315 -689h315v-147h-479z" />
<glyph unicode="{" horiz-adv-x="81" />
<glyph unicode="}" horiz-adv-x="20" />
<glyph unicode="&#xaa;" horiz-adv-x="471" d="M0 317.5q0 135.5 58.5 236.5t160.5 101q57 0 86 -20q8 -6 19 -23v115q0 125 -88 125q-51 0 -101 -39q-16 -12 -39 -39l-47 125q31 33 53 49q70 51 136 51q111 0 172 -63.5t61 -183.5v-752h-147v33q-23 -20 -37 -29q-31 -20 -70 -20q-98 0 -157.5 99t-59.5 234.5zM147 317 q0 -92 20.5 -143t65.5 -51q43 0 70 31q8 10 21 32v277q-10 18 -19 26q-29 27 -72 27q-86 0 -86 -199z" />
<glyph unicode="&#xad;" horiz-adv-x="163" d="M-41 627v164h246v-164h-246z" />
<glyph unicode="&#xb2;" d="M0 0q0 59 2 121q12 147 57 282q61 184 183 324q90 104 125 191q23 57 22 120q0 72 -28.5 98.5t-84.5 26.5q-78 0 -102 -57q-8 -18 -10 -59h-164q0 111 68 190q78 90 208 90q125 0 201 -82t76 -201q0 -127 -53 -237q-37 -78 -119 -172q-115 -135 -168 -318 q-16 -59 -31 -153h353l2 -164h-537z" />
<glyph unicode="&#xb3;" d="M0 258h164q4 -37 12 -55q27 -55 100 -56q57 0 85 61.5t28 170.5q0 170 -59 223q-27 25 -86 25h-47v164h24q61 0 90 32q49 55 49 201q0 78 -34 113q-27 27 -70 26q-57 0 -78 -49q-6 -16 -8 -49h-164q0 102 65.5 182t184.5 80t193.5 -83t74.5 -230q0 -150 -41 -234 q-12 -27 -41 -55q37 -27 56 -55q55 -90 55 -260q0 -199 -73.5 -312.5t-203.5 -113.5q-172 0 -241 137q-23 45 -35 137z" />
<glyph unicode="&#xb9;" horiz-adv-x="266" d="M0 1130v99q25 0 39 5t47 21q45 27 68 56h112v-1311h-164v1130h-102z" />
<glyph unicode="&#xba;" horiz-adv-x="483" d="M0 492q0 258 37 360q53 147 205 147q150 0 202 -145q39 -106 39 -362q0 -258 -37 -361q-53 -147 -204 -147q-150 0 -203 145q-39 109 -39 363zM147 492q0 -219 19.5 -294t75.5 -75q57 0 75.5 75.5t18.5 293.5q0 215 -18.5 291.5t-74 76.5t-76 -76.5t-20.5 -291.5z" />
<glyph unicode="&#xc2;" horiz-adv-x="696" d="M-451 1450l293 1495q4 16 8 27q31 61 103 71q8 1 16 1q40 0 74 -25q12 -10 33 -35l198 -375l435 436l436 -436l-434 -434l374 -199q23 -18 33 -30q28 -36 28 -77q0 -8 -1 -16q-8 -59 -53 -90q-14 -10 -45 -20zM0 0l260 1311h174l262 -1311l-168 -2l-69 356h-221l-72 -354 h-166zM270 518h156l-78 402z" />
<glyph unicode="&#xca;" horiz-adv-x="491" d="M-563 1450l293 1495q4 16 8 27q31 61 102 71q8 1 16 1q40 0 74 -25q12 -10 33 -35l199 -375l434 436l436 -436l-434 -434l375 -199q23 -18 33 -30q28 -36 27 -77q0 -8 -1 -16q-8 -59 -53 -90q-14 -10 -45 -20zM0 0v1311h471v-164h-307v-356h231v-164h-231v-463h328v-164 h-492z" />
<glyph unicode="&#xce;" horiz-adv-x="163" d="M-717 1450l293 1495q4 16 8 27q31 61 103 71q8 1 16 1q40 0 74 -25q12 -10 33 -35l198 -375l434 436l437 -436l-435 -434l375 -199q23 -18 33 -30q28 -36 28 -77q0 -8 -1 -16q-8 -59 -54 -90q-14 -10 -45 -20zM0 0v1311h164v-1311h-164z" />
<glyph unicode="&#xd4;" horiz-adv-x="593" d="M-502 1450l293 1495q4 16 8 27q31 61 103 71q8 1 16 1q40 0 74 -25q12 -10 33 -35l198 -375l434 436l437 -436l-435 -434l375 -199q23 -18 33 -30q28 -36 28 -77q0 -8 -1 -16q-8 -59 -54 -90q-14 -10 -45 -20zM0 655q0 147 10 287q2 45 10 109q16 92 41 137 q74 139 236 139t235 -137q25 -45 41 -139q8 -57 11 -101q10 -133 10 -295q0 -135 -10 -278q-2 -47 -11 -117q-16 -92 -41 -137q-74 -139 -235 -139q-164 0 -236 137q-23 45 -41 139q-8 70 -10 117q-10 143 -10 278zM164 655q0 -98 10 -256q2 -51 10 -139q6 -37 15 -55 q29 -57 98.5 -57.5t97.5 55.5q8 18 15 57q8 86 10 137q10 158 10 258.5t-10 257.5q-2 51 -10 138q-6 37 -17 55q-31 57 -96.5 57t-93.5 -55q-8 -18 -19 -57q-8 -82 -10 -133q-10 -157 -10 -263z" />
<glyph unicode="&#xd7;" horiz-adv-x="0" />
<glyph unicode="&#x141;" horiz-adv-x="0" />
<glyph unicode="&#xfd;" horiz-adv-x="0" />
<glyph unicode="&#xdb;" d="M-522 1450l293 1495q4 16 8 27q31 61 102 71q8 1 16 1q40 0 74 -25q12 -10 33 -35l199 -375l434 436l436 -436l-434 -434l375 -199q23 -18 33 -30q28 -36 27 -77q0 -8 -1 -16q-8 -59 -53 -90q-14 -10 -45 -20zM0 260v1051h164v-1051q0 -39 29.5 -76t82.5 -37q55 0 84 36 t29 77v1051h164v-1051q0 -115 -81 -195.5t-196 -80.5q-121 0 -198.5 83.5t-77.5 192.5z" />
<glyph unicode="&#xe2;" horiz-adv-x="471" d="M-561 1122l293 1495q4 16 8 27q31 61 102 72q8 1 16 1q40 0 74 -26q12 -10 33 -35l199 -375l434 437l436 -437l-434 -434l375 -198q23 -18 33 -31q28 -36 27 -77q0 -8 -1 -15q-8 -59 -53 -90q-14 -10 -45 -21zM0 317.5q0 135.5 58.5 236.5t160.5 101q57 0 86 -20 q8 -6 19 -23v115q0 125 -88 125q-51 0 -101 -39q-16 -12 -39 -39l-47 125q31 33 53 49q70 51 136 51q111 0 172 -63.5t61 -183.5v-752h-147v33q-23 -20 -37 -29q-31 -20 -70 -20q-98 0 -157.5 99t-59.5 234.5zM147 317q0 -92 20.5 -143t65.5 -51q43 0 70 31q8 10 21 32v277 q-10 18 -19 26q-29 27 -72 27q-86 0 -86 -199z" />
<glyph unicode="&#xea;" horiz-adv-x="483" d="M-557 1122l293 1495q4 16 8 27q31 61 102 72q8 1 17 1q40 0 74 -26q12 -10 32 -35l199 -375l434 437l436 -437l-434 -434l375 -198q23 -18 33 -31q28 -36 27 -77q0 -8 -1 -15q-8 -59 -53 -90q-14 -10 -45 -21zM0 492q0 258 37 360q53 147 205 147q150 0 202 -145 q39 -106 39 -362v-72h-336q0 -164 23 -230.5t72 -66.5q35 0 52 20.5t28 65.5h145q-33 -129 -83 -177t-142 -48q-150 0 -203 145q-39 109 -39 363zM147 547h189q0 182 -19.5 247.5t-73 65.5t-75 -65.5t-21.5 -247.5z" />
<glyph unicode="&#xee;" horiz-adv-x="147" d="M-725 1434l293 1495q4 16 8 26q31 61 102 72q8 1 17 1q40 0 74 -26q12 -10 32 -34l199 -375l434 436l436 -436l-434 -434l375 -199q23 -18 33 -31q28 -36 27 -77q0 -8 -1 -15q-8 -59 -53 -90q-14 -10 -45 -21zM-8 1229q0 35 20.5 58.5t61.5 23.5t62.5 -23.5t21.5 -58.5 q0 -33 -22.5 -57.5t-61.5 -24.5t-60.5 23.5t-21.5 58.5zM0 0v983h147v-983h-147z" />
<glyph unicode="&#xf4;" horiz-adv-x="483" d="M-557 1122l293 1495q4 16 8 27q31 61 102 72q8 1 17 1q40 0 74 -26q12 -10 32 -35l199 -375l434 437l436 -437l-434 -434l375 -198q23 -18 33 -31q28 -36 27 -77q0 -8 -1 -15q-8 -59 -53 -90q-14 -10 -45 -21zM0 492q0 258 37 360q53 147 205 147q150 0 202 -145 q39 -106 39 -362q0 -258 -37 -361q-53 -147 -204 -147q-150 0 -203 145q-39 109 -39 363zM147 492q0 -219 19.5 -294t75.5 -75q57 0 75.5 75.5t18.5 293.5q0 215 -18.5 291.5t-74 76.5t-76 -76.5t-20.5 -291.5z" />
<glyph unicode="&#xfb;" horiz-adv-x="471" d="M-563 1122l293 1495q4 16 8 27q31 61 102 72q8 1 16 1q40 0 74 -26q12 -10 33 -35l199 -375l434 437l436 -437l-434 -434l375 -198q23 -18 33 -31q28 -36 27 -77q0 -8 -1 -15q-8 -59 -53 -90q-14 -10 -45 -21zM0 182v801h147v-764q0 -39 27 -63.5t61.5 -24.5t61.5 24.5 t27 63.5v764h147v-983h-147v41q-14 -20 -27 -29q-39 -29 -107 -28q-86 0 -138 49t-52 149z" />
<glyph unicode="&#x152;" horiz-adv-x="1085" d="M0 655q0 147 10 287q2 45 10 109q16 92 41 137q74 139 236 139t235 -137q25 -45 41 -139q8 -57 11 -101q10 -133 10 -295q0 -135 -10 -278q-2 -47 -11 -117q-16 -92 -41 -137q-74 -139 -235 -139q-164 0 -236 137q-23 45 -41 139q-8 70 -10 117q-10 143 -10 278zM164 655 q0 -98 10 -256q2 -51 10 -139q6 -37 15 -55q29 -57 98.5 -57.5t97.5 55.5q8 18 15 57q8 86 10 137q10 158 10 258.5t-10 257.5q-2 51 -10 138q-6 37 -17 55q-31 57 -96.5 57t-93.5 -55q-8 -18 -19 -57q-8 -82 -10 -133q-10 -157 -10 -263zM594 0v1311h471v-164h-307v-356 h231v-164h-231v-463h327v-164h-491z" />
<glyph unicode="&#x153;" horiz-adv-x="966" d="M0 492q0 258 37 360q53 147 205 147q150 0 202 -145q39 -106 39 -362q0 -258 -37 -361q-53 -147 -204 -147q-150 0 -203 145q-39 109 -39 363zM147 492q0 -219 19.5 -294t75.5 -75q57 0 75.5 75.5t18.5 293.5q0 215 -18.5 291.5t-74 76.5t-76 -76.5t-20.5 -291.5z M483 492q0 258 37 360q53 147 205 147q150 0 203 -145q39 -106 39 -362v-72h-336q0 -164 22.5 -230.5t71.5 -66.5q35 0 52.5 20.5t27.5 65.5h145q-33 -129 -83 -177t-142 -48q-150 0 -203 145q-39 109 -39 363zM631 547h188q0 182 -19.5 247.5t-72.5 65.5t-74.5 -65.5 t-21.5 -247.5z" />
<glyph unicode="&#x2c6;" horiz-adv-x="1595" d="M0 -340l293 1495q4 16 8 27q31 61 102 71q8 1 17 1q40 0 74 -25q12 -10 32 -35l199 -375l434 436l436 -436l-434 -434l375 -199q23 -18 33 -30q28 -36 27 -77q0 -8 -1 -16q-8 -59 -53 -90q-14 -10 -45 -20z" />
<glyph unicode="&#x2013;" horiz-adv-x="1024" d="M205 512v205h614v-205h-614z" />
<glyph unicode="&#x2014;" horiz-adv-x="2048" d="M205 512v205h1638v-205h-1638z" />
<glyph unicode="&#x2019;" horiz-adv-x="454" d="M131 1405h164l-41 -399h-82z" />
<glyph unicode="&#x201c;" horiz-adv-x="716" d="M131 1405h164l-41 -399h-82zM393 1405h164l-41 -399h-82z" />
<glyph unicode="&#x201d;" horiz-adv-x="716" d="M131 1405h164l-41 -399h-82zM393 1405h164l-41 -399h-82z" />
<glyph unicode="&#x2026;" horiz-adv-x="1474" d="M131 82q0 41 28.5 69.5t69.5 28.5t70 -28.5t29 -69.5t-29 -69.5t-70 -28.5t-69.5 28.5t-28.5 69.5zM623 82q0 41 28.5 69.5t69.5 28.5t69.5 -28.5t28.5 -69.5t-28.5 -69.5t-69.5 -28.5t-69.5 28.5t-28.5 69.5zM1114 82q0 41 28.5 69.5t69.5 28.5t70 -28.5t29 -69.5 t-29 -69.5t-70 -28.5t-69.5 28.5t-28.5 69.5z" />
<glyph unicode="&#x2039;" horiz-adv-x="1802" d="M0 -614l1178 2048h170l-1180 -2048h-168zM0 1253v99q25 0 39 5t47 21q45 27 68 56h112v-1311h-164v1130h-102zM840 -123l381 819h172v-819h82v-164h-82v-327h-164v327h-389v164zM1018 -123h211v451z" />
<glyph unicode="&#x203a;" horiz-adv-x="1802" d="M0 -614l1178 2048h170l-1180 -2048h-168zM0 1253v99q25 0 39 5t47 21q45 27 68 56h112v-1311h-164v1130h-102zM1020 432q0 111 67 191q78 90 209 90q125 0 201 -82t76 -201q0 -127 -53 -237q-37 -78 -119 -173q-115 -135 -168 -317q-16 -59 -31 -154h352l2 -163h-536 q0 61 2 120q12 147 57 283q61 184 183 324q90 104 124 190q23 57 23 121q0 72 -28.5 98.5t-84.5 26.5q-78 0 -102 -57q-8 -18 -10 -60h-164z" />
<glyph unicode="&#x2122;" horiz-adv-x="1126" d="M0 1147v164h492v-164h-164v-1147h-164v1147h-164zM492 0v1311h163l154 -471l154 471h163v-1311h-163v778l-154 -475l-154 475v-778h-163z" />
<glyph unicode="&#xe000;" horiz-adv-x="985" d="M0 985h985v-985h-985v985z" />
<glyph unicode="&#xfb01;" horiz-adv-x="536" d="M0 852v131h90v125q0 86 43 137t133 51q55 0 94 -12q12 -4 29 -14v-131q-10 4 -18 6q-29 8 -56 8q-41 0 -59 -15.5t-18 -58.5v-96h151v-131h-151v-852h-148v852h-90zM381 1229q0 35 20.5 58.5t61.5 23.5t62.5 -23.5t21.5 -58.5q0 -33 -22.5 -57.5t-61.5 -24.5t-60.5 23.5 t-21.5 58.5zM389 0v983h148v-983h-148z" />
<glyph unicode="&#xfb02;" horiz-adv-x="536" d="M0 852v131h90v125q0 86 43 137t133 51q55 0 94 -12q12 -4 29 -14v-131q-10 4 -18 6q-29 8 -56 8q-41 0 -59 -15.5t-18 -58.5v-96h151v-131h-151v-852h-148v852h-90zM389 0v1223l148 88v-1311h-148z" />
<glyph unicode="&#xfb03;" horiz-adv-x="925" d="M0 852v131h90v125q0 86 43 137t133 51q55 0 94 -12q12 -4 29 -14v-131q-10 4 -18 6q-29 8 -56 8q-41 0 -59 -15.5t-18 -58.5v-96h151v-131h-151v-852h-148v852h-90zM389 852v131h90v125q0 86 43 137t133 51q55 0 95 -12q12 -4 28 -14v-131q-10 4 -18 6q-29 8 -55 8 q-41 0 -59.5 -15.5t-18.5 -58.5v-96h151v-131h-151v-852h-148v852h-90zM770 1229q0 35 20.5 58.5t61.5 23.5t62.5 -23.5t21.5 -58.5q0 -33 -22.5 -57.5t-61.5 -24.5t-60.5 23.5t-21.5 58.5zM778 0v983h148v-983h-148z" />
<glyph unicode="&#xfb04;" horiz-adv-x="925" d="M0 852v131h90v125q0 86 43 137t133 51q55 0 94 -12q12 -4 29 -14v-131q-10 4 -18 6q-29 8 -56 8q-41 0 -59 -15.5t-18 -58.5v-96h151v-131h-151v-852h-148v852h-90zM389 852v131h90v125q0 86 43 137t133 51q55 0 95 -12q12 -4 28 -14v-131q-10 4 -18 6q-29 8 -55 8 q-41 0 -59.5 -15.5t-18.5 -58.5v-96h151v-131h-151v-852h-148v852h-90zM778 0v1223l148 88v-1311h-148z" />
</font>
</defs>
</svg>
