<?xml version="1.0" standalone="no"?>
<!DOCTYPE svg PUBLIC "-//W3C//DTD SVG 1.1//EN" "http://www.w3.org/Graphics/SVG/1.1/DTD/svg11.dtd" >
<svg xmlns="http://www.w3.org/2000/svg">
<metadata>
This is a custom SVG webfont generated by Font Squirrel.
Copyright   : Copyright 19902003 Bitstream Inc All rights reserved
</metadata>
<defs>
<font id="ZapfHumnstUltBTUltra" horiz-adv-x="1124" >
<font-face units-per-em="2048" ascent="1556" descent="-492" />
<missing-glyph horiz-adv-x="561" />
<glyph unicode=" "  horiz-adv-x="561" />
<glyph unicode="&#x09;" horiz-adv-x="561" />
<glyph unicode="&#xa0;" horiz-adv-x="561" />
<glyph unicode="!" horiz-adv-x="668" d="M156 154q0 74 51.5 126t126.5 52q74 0 126 -51.5t52 -126.5q0 -74 -52.5 -126.5t-125.5 -52.5q-75 0 -126.5 52t-51.5 127zM168 1243q0 82 46.5 132t121.5 50q74 0 120 -50t46 -132q0 -72 -50.5 -338t-72.5 -461h-90q-23 194 -72 461t-49 338z" />
<glyph unicode="&#x22;" horiz-adv-x="678" d="M80 879v559h192v-559h-192zM406 879v559h192v-559h-192z" />
<glyph unicode="#" horiz-adv-x="1575" d="M45 406l76 200h282l86 242h-299l74 201h297l148 415h221l-146 -415h242l148 415h221l-148 -415h283l-74 -201h-280l-84 -242h290l-71 -200h-291l-148 -416h-221l148 416h-244l-149 -416h-220l146 416h-287zM621 604h251l86 244h-249z" />
<glyph unicode="$" d="M66 121q24 61 46 125t44 135h37q33 -121 114 -191.5t187 -70.5h4v430q-234 60 -330 151.5t-96 249.5q0 163 112.5 265t313.5 120q0 48 -3 92.5t-9 85.5q22 -3 39.5 -4.5t31.5 -1.5q9 0 26 1.5t41 4.5q-5 -36 -7.5 -78t-2.5 -98q132 -10 221.5 -34.5t155.5 -67.5l-48 -118 l-44 -120h-43q-34 109 -91.5 163t-150.5 65v-391q239 -53 336 -142.5t97 -253.5q0 -182 -119.5 -302.5t-314.5 -135.5q-2 -13 -2.5 -27.5t-0.5 -42.5q0 -32 2.5 -66t7.5 -71q-6 1 -19 3q-35 5 -46 5q-16 0 -55 -6q-8 -1 -12 -2q5 54 8 105q1 36 1 71v29q-136 3 -245.5 34 t-185.5 89zM311 1034q0 -66 42 -104.5t145 -65.5l-1 363q-84 -10 -135 -62.5t-51 -130.5zM608 119q94 15 144.5 68t50.5 135q0 75 -49 125t-146 73v-401z" />
<glyph unicode="%" horiz-adv-x="1683" d="M41 1006q0 169 94 263.5t262 94.5q169 0 261 -93t92 -265q0 -168 -94.5 -263.5t-260.5 -95.5q-168 0 -261 94.5t-93 264.5zM276 -190l969 1712h131l-968 -1712h-132zM283 1006q0 -160 25.5 -223.5t86.5 -63.5t87 64t26 223t-26 222.5t-87 63.5t-86.5 -63.5t-25.5 -222.5z M920 336q0 170 93 263t261 93q170 0 262 -92.5t92 -263.5q0 -168 -94.5 -264.5t-259.5 -96.5q-168 0 -261 95t-93 266zM1159 334q0 -158 26.5 -222.5t88.5 -64.5q60 0 85 63t25 224t-25 224t-85 63q-62 0 -88.5 -64.5t-26.5 -222.5z" />
<glyph unicode="&#x26;" horiz-adv-x="1460" d="M74 326q0 137 91 249.5t259 182.5q-66 78 -102.5 165.5t-36.5 161.5q0 148 103.5 231t289.5 83q162 0 247 -66.5t85 -193.5q0 -98 -70.5 -182t-198.5 -144q65 -87 144 -178t178 -193q67 83 116 181t89 231q28 -46 60.5 -85t72.5 -73q-55 -94 -120 -181t-138 -163 l133 -154l147 -157v-41q-40 5 -83 7.5t-113 2.5q-69 0 -110.5 -2.5t-79.5 -7.5l-115 139q-112 -83 -224 -124.5t-223 -41.5q-183 0 -292 96t-109 257zM350 422q0 -104 81.5 -183t193.5 -79q52 0 105.5 18t113.5 55l-185 219q-87 108 -163 214q-75 -44 -110.5 -103.5 t-35.5 -140.5zM549 1157q0 -52 31 -117t94 -143q69 46 109 110.5t40 129.5q0 77 -36 117t-105 40q-62 0 -97.5 -36.5t-35.5 -100.5z" />
<glyph unicode="'" horiz-adv-x="352" d="M80 879v559h192v-559h-192z" />
<glyph unicode="(" horiz-adv-x="676" d="M139 571q0 268 98 475t306 379l65 -65q-121 -146 -177 -335t-56 -454q0 -263 55 -457.5t172 -351.5l-67 -65q-208 187 -302 395t-94 479z" />
<glyph unicode=")" horiz-adv-x="676" d="M109 -238q121 146 177 335.5t56 453.5q0 263 -55 457.5t-172 351.5l67 65q208 -187 302 -395.5t94 -480.5q0 -267 -98 -473.5t-306 -378.5z" />
<glyph unicode="*" horiz-adv-x="1024" d="M137 952l157 51q73 25 134 48q-62 28 -134 52t-157 44q30 46 54 89t42 83l125 -104l109 -91q-8 48 -26.5 150t-26.5 151h12q61 -4 84 -4q26 0 93 4h7q-21 -107 -33.5 -179t-19.5 -126q38 35 118 102l116 97q18 -40 42 -83t54 -89q-88 -26 -160 -50.5t-129 -47.5 q66 -28 138.5 -52t150.5 -45q-30 -46 -54 -88.5t-42 -83.5l-106 88l-127 104q10 -78 23 -153t29 -151q-6 0 -19 1q-57 3 -79 3q-15 0 -36 -1l-62 -3l33 187l20 118l-178 -147l-56 -46q-18 41 -42 83.5t-54 88.5z" />
<glyph unicode="+" horiz-adv-x="1706" d="M254 512v199h498v510h202v-510h498v-199h-498v-512h-202v512h-498z" />
<glyph unicode="," horiz-adv-x="561" d="M39 -358l127 540q20 87 61 128.5t105 41.5q61 0 104 -42.5t43 -104.5q0 -26 -10 -54t-29 -53l-346 -479z" />
<glyph unicode="-" horiz-adv-x="674" d="M90 371v6q4 88 4 125q0 38 -3 119q-1 8 -1 12h491l-3 -77l-3 -54q0 -21 2 -54t4 -77h-491z" />
<glyph unicode="." horiz-adv-x="561" d="M102 154q0 74 52 126t127 52q74 0 126 -51.5t52 -126.5q0 -74 -52.5 -126.5t-125.5 -52.5q-75 0 -127 52t-52 127z" />
<glyph unicode="/" horiz-adv-x="575" d="M-51 -190l559 1726h123l-561 -1726h-121z" />
<glyph unicode="0" d="M55 666q0 357 122.5 527.5t379.5 170.5q277 0 392.5 -156.5t115.5 -541.5q0 -358 -122.5 -527.5t-383.5 -169.5q-271 0 -387.5 159.5t-116.5 537.5zM391 666q0 -362 36.5 -472t131.5 -110q96 0 133 113.5t37 468.5t-37 468t-133 113q-95 0 -131.5 -111.5t-36.5 -469.5z " />
<glyph unicode="1" d="M80 1135q150 50 306 119t323 159l41 -22l-1 -13q-10 -708 -10 -846q0 -151 4 -282t12 -250q-62 5 -105.5 7.5t-76.5 2.5q-30 0 -73 -2.5t-106 -7.5q10 98 15 325.5t5 600.5q0 39 -1.5 88t-5.5 106q-57 -23 -116.5 -53t-122.5 -68z" />
<glyph unicode="2" d="M51 113q359 289 482.5 473t123.5 393q0 130 -41.5 192t-128.5 62q-90 0 -147.5 -76t-83.5 -229h-25q-36 57 -76 103t-87 85q95 131 215.5 190.5t287.5 59.5q211 0 326 -101.5t115 -287.5q0 -238 -508 -646l-47 -38q24 0 72.5 -1t72.5 -1q94 0 202.5 3.5t253.5 10.5 q-10 -49 -16 -87t-6 -62q0 -29 5.5 -67t16.5 -89q-176 6 -289.5 8t-197.5 2t-199 -2t-304 -8z" />
<glyph unicode="3" d="M45 90l7 11q111 181 157 274h20q2 -149 54 -222t157 -73q109 0 167.5 75t58.5 216q0 133 -60 200.5t-180 67.5q-33 0 -49 -0.5t-28 -1.5l-1 124q18 -1 30 -2t23 -1q129 0 192.5 63.5t63.5 192.5q0 116 -47.5 176.5t-138.5 60.5q-87 0 -142 -71t-55 -187v-26l-18 -13 q-44 54 -92 103t-101 94q78 105 201.5 159t286.5 54q198 0 307 -85.5t109 -242.5q0 -109 -66 -181t-217 -126v-14q173 -25 254.5 -102.5t81.5 -215.5q0 -198 -143.5 -314t-391.5 -116q-139 0 -247 30.5t-193 92.5z" />
<glyph unicode="4" d="M63 567l269 395l260 402q56 -5 93.5 -7.5t66.5 -2.5q25 0 61.5 2t95.5 8q-9 -130 -13.5 -267.5t-4.5 -295.5v-244q40 0 83 4t89 12q-6 -54 -8 -82t-2 -47q0 -18 2 -46t8 -82q-38 6 -82 10t-92 4v-64q0 -82 4.5 -143t13.5 -123q-66 6 -105.5 8t-68.5 2q-18 0 -48 -2 t-105 -8q8 82 12 149t4 123v57q-47 2 -95 2.5t-122 0.5q-29 0 -95 -3.5t-220 -13.5q1 27 1.5 57t0.5 91q0 21 -1 48zM213 557h381v569z" />
<glyph unicode="5" d="M70 49q38 73 69 149t56 156h32v-22q0 -121 51 -181.5t152 -60.5q107 0 163 78t56 227q0 135 -51.5 208t-146.5 73q-52 0 -95.5 -23t-81.5 -69l-96 53q10 51 14.5 110.5t4.5 153.5q0 158 -8.5 250t-26.5 166l18 14q96 -6 190 -9t193 -3q145 0 229.5 3t161.5 9 q-4 -43 -6 -78.5t-2 -62.5q0 -31 2 -68t6 -78q-141 11 -234 15t-169 4q-56 0 -192 -4h-19q-10 -74 -15.5 -150.5t-5.5 -156.5q64 31 134.5 47t148.5 16q189 0 296.5 -97t107.5 -269q0 -226 -155 -353t-431 -127q-110 0 -196.5 20t-153.5 60z" />
<glyph unicode="6" d="M61 559q0 367 191 587t504 220q62 0 124 -11.5t128 -35.5q-12 -58 -19 -105t-10 -89l-12 -5q-47 62 -100 90.5t-117 28.5q-148 0 -240 -142t-92 -376v-6q41 49 115 76.5t165 27.5q176 0 277.5 -101.5t101.5 -279.5q0 -220 -131 -344.5t-364 -124.5q-252 0 -386.5 152 t-134.5 438zM422 393q0 -159 39.5 -238t120.5 -79q76 0 114.5 77t38.5 232q0 153 -37 221t-120 68q-79 0 -117.5 -69.5t-38.5 -211.5z" />
<glyph unicode="7" d="M145 29q121 152 210.5 275t146.5 214l321 516q-115 6 -196.5 9.5t-128.5 3.5q-68 0 -155.5 -3.5t-195.5 -9.5q6 61 8.5 96.5t2.5 61.5q0 14 -2 40t-8 99q167 -3 281 -4.5t173 -1.5q109 0 236.5 1.5t275.5 4.5l25 -57q-201 -298 -364.5 -608.5t-305.5 -665.5q-17 1 -48 2 q-75 2 -102 2q-44 0 -81.5 -1t-77.5 -3z" />
<glyph unicode="8" d="M55 373q0 150 75.5 243t221.5 125v15q-116 27 -178.5 101.5t-62.5 184.5q0 148 125 235t339 87q211 0 323 -83t112 -239q0 -109 -62 -183.5t-178 -104.5v-13q141 -28 218 -119t77 -229q0 -192 -136.5 -308t-367.5 -116q-240 0 -373 107t-133 297zM387 385 q0 -157 41.5 -228t132.5 -71q85 0 128.5 75.5t43.5 223.5q0 152 -42.5 226.5t-129.5 74.5q-88 0 -131 -74.5t-43 -226.5zM397 1024q0 -117 40.5 -174t123.5 -57q82 0 122 57t40 174q0 123 -38.5 178t-123.5 55q-81 0 -122.5 -58.5t-41.5 -174.5z" />
<glyph unicode="9" d="M45 897q0 221 130.5 345t363.5 124q251 0 385.5 -152t134.5 -438q0 -367 -190 -587t-502 -220q-66 0 -128 11.5t-124 33.5q10 49 16.5 98t9.5 98l13 5q46 -61 100 -90t119 -29q147 0 238 141.5t91 376.5v7q-41 -50 -115 -77.5t-165 -27.5q-175 0 -276 101.5t-101 279.5z M385 950q0 -152 38 -220t122 -68q78 0 115.5 68t37.5 210q0 160 -40 240t-119 80q-77 0 -115.5 -77.5t-38.5 -232.5z" />
<glyph unicode=":" horiz-adv-x="674" d="M158 154q0 73 52.5 125.5t127.5 52.5q74 0 125 -51.5t51 -126.5q0 -74 -52.5 -126.5t-125.5 -52.5q-75 0 -126.5 52t-51.5 127zM158 803q0 74 52.5 126t127.5 52q74 0 125 -51.5t51 -126.5q0 -74 -52.5 -126t-125.5 -52q-75 0 -126.5 51.5t-51.5 126.5z" />
<glyph unicode=";" horiz-adv-x="674" d="M76 -358l127 540q20 87 60.5 128.5t105.5 41.5q61 0 104 -42.5t43 -104.5q0 -28 -9.5 -55.5t-27.5 -51.5l-346 -479zM164 803q0 74 51.5 126t126.5 52q74 0 126 -51.5t52 -126.5q0 -74 -52.5 -126t-125.5 -52q-74 0 -126 51.5t-52 126.5z" />
<glyph unicode="&#x3c;" horiz-adv-x="1706" d="M264 512v199l1178 483v-219l-893 -365l893 -364v-219z" />
<glyph unicode="=" horiz-adv-x="1706" d="M254 297v199h1198v-199h-1198zM254 727v199h1198v-199h-1198z" />
<glyph unicode="&#x3e;" horiz-adv-x="1706" d="M264 27v219l895 364l-895 365v219l1178 -483v-199z" />
<glyph unicode="?" horiz-adv-x="895" d="M142 1340q63 43 136 64t156 21q172 0 272.5 -84.5t100.5 -228.5q0 -91 -36 -156.5t-179 -185.5q-72 -62 -92.5 -93.5t-20.5 -68.5q0 -39 25.5 -62.5t68.5 -23.5q22 0 46 4t55 13q-5 -17 -10 -38t-15 -67q-29 -11 -63 -16.5t-74 -5.5q-132 0 -214.5 78.5t-82.5 199.5 q0 114 143 256l19 19q81 82 104 122t23 80q0 56 -39 93.5t-98 37.5q-60 0 -106 -33.5t-79 -101.5l-30 6v29q0 33 -3 68.5t-7 73.5zM264 154q0 73 52.5 125.5t127.5 52.5q74 0 125.5 -51.5t51.5 -126.5q0 -74 -52.5 -126.5t-126.5 -52.5t-126 52t-52 127z" />
<glyph unicode="@" horiz-adv-x="2048" d="M90 520q0 167 52.5 318.5t154.5 275.5q148 181 356 274t463 93q169 0 317.5 -45.5t258.5 -128.5q135 -105 201.5 -239.5t66.5 -303.5q0 -165 -65.5 -304.5t-188.5 -238.5q-70 -56 -152.5 -85.5t-171.5 -29.5q-106 0 -159.5 42t-55.5 124q-55 -84 -127 -123.5t-170 -39.5 q-158 0 -240.5 86t-82.5 254q0 239 139.5 401t343.5 162q80 0 139 -33t97 -98l53 98h178l-147 -598q-3 -11 -5 -22.5t-2 -18.5q0 -35 24 -52.5t71 -17.5q39 0 81.5 20t79.5 56q86 80 130.5 187t44.5 235q0 240 -185.5 394.5t-478.5 154.5q-141 0 -262.5 -34t-220.5 -101 q-170 -114 -261.5 -285t-91.5 -375q0 -307 207 -490.5t553 -183.5q162 0 316.5 49t287.5 142l82 -117q-153 -115 -324.5 -173t-357.5 -58q-192 0 -353 48.5t-286 143.5q-155 121 -232 279t-77 358zM760 444q0 -92 40.5 -140t117.5 -48q83 0 151.5 63t93.5 164l54 217 q-13 81 -57.5 123.5t-117.5 42.5q-114 0 -198 -124t-84 -298z" />
<glyph unicode="A" horiz-adv-x="1245" d="M-45 0q161 360 303.5 715.5t267.5 709.5h6q68 -8 99 -8q25 0 82 6q15 2 22 2q128 -374 262 -728l276 -697q-65 3 -114.5 4.5t-83.5 1.5q-45 0 -95.5 -1.5t-108.5 -4.5l-59 187l-64 204q-19 1 -96.5 3.5t-125.5 2.5q-15 0 -88.5 -2.5t-132.5 -3.5l-129 -380l-4 -11 q-37 3 -61.5 4.5t-38.5 1.5q-25 0 -54.5 -1.5t-62.5 -4.5zM367 559q7 0 23 -1q98 -3 140 -3q48 0 155 4h11q-32 104 -72.5 212t-91.5 222q-49 -117 -90.5 -226t-74.5 -208z" />
<glyph unicode="B" horiz-adv-x="1223" d="M139 0q13 98 19 204t6 265v164v201q0 221 -5.5 344.5t-16.5 220.5q85 -3 151.5 -4.5t114.5 -1.5q44 0 124 2t115 2q250 0 365.5 -80.5t115.5 -253.5q0 -131 -84 -211.5t-231 -91.5v-21q167 -7 257.5 -97.5t90.5 -248.5q0 -186 -131.5 -289.5t-370.5 -103.5 q-50 0 -174.5 4t-197.5 4q-42 0 -135 -7q-9 -1 -13 -1zM494 811q6 0 19 -1t19 -1q126 0 187 61.5t61 186.5q0 101 -54 155t-157 54q-14 0 -56 -4h-7q-6 -56 -9 -113.5t-3 -118.5v-219zM498 414q0 -58 2 -127t6 -145q21 -6 38 -8.5t31 -2.5q107 0 166.5 71.5t59.5 200.5 t-64 199t-182 70q-16 0 -52 -4h-5v-254z" />
<glyph unicode="C" horiz-adv-x="1352" d="M63 705q0 333 213 527.5t580 194.5q127 0 245.5 -27t235.5 -83q-22 -65 -38.5 -127t-28.5 -123h-31q-42 108 -132 163.5t-224 55.5q-212 0 -332.5 -145t-120.5 -400q0 -304 119 -461t348 -157q131 0 230.5 43t158.5 125l31 -15q-15 -56 -27 -107.5t-20 -100.5 q-91 -49 -200 -73t-239 -24q-363 0 -565.5 193t-202.5 541z" />
<glyph unicode="D" horiz-adv-x="1550" d="M135 1396q41 -2 84 -3.5t88 -1.5q81 0 200 4t159 4q255 0 363 -19.5t185 -64.5q135 -78 202 -223.5t67 -360.5q0 -365 -211 -548t-631 -183q-64 0 -175 2t-159 2q-33 0 -69.5 -1t-101.5 -3q11 94 16.5 203t5.5 280v248v146q0 177 -5.5 295t-17.5 224zM498 680 q0 -81 2 -213t4 -313q33 -7 62.5 -10t58.5 -3q242 0 364.5 144.5t122.5 429.5q0 291 -111.5 418t-373.5 127q-45 0 -70.5 -0.5t-50.5 -2.5l-3 -154q-5 -312 -5 -423z" />
<glyph unicode="E" horiz-adv-x="1055" d="M137 1399q204 -7 281.5 -8.5t118.5 -1.5q72 0 173.5 2t257.5 8q0 -8 -2 -25q-5 -49 -5 -67t5 -63l3 -27q-80 7 -160.5 10.5t-163.5 3.5q-56 0 -83 -0.5t-49 -1.5q-4 -76 -5.5 -151.5t-1.5 -149.5v-108q84 2 196 6.5t252 11.5q-4 -28 -6 -53t-2 -44q0 -12 4 -52 q3 -26 4 -42q-115 8 -227 12.5t-221 5.5v-223q0 -92 2.5 -156.5t8.5 -115.5q114 0 224 5.5t221 16.5q-3 -20 -4.5 -41t-1.5 -55q0 -13 2 -38t4 -58q-226 6 -337 8t-176 2q-78 0 -155.5 -2.5t-155.5 -7.5q13 110 19.5 234.5t6.5 322.5v141v86q0 226 -6.5 361.5t-20.5 253.5z " />
<glyph unicode="F" horiz-adv-x="1028" d="M137 1399q204 -7 281.5 -8.5t118.5 -1.5q72 0 173.5 2t257.5 8l-3 -52q-2 -23 -2 -40t1.5 -39t4.5 -51q-80 7 -160.5 10.5t-163.5 3.5q-55 0 -81.5 -0.5t-49.5 -2.5q-4 -61 -6 -126t-2 -174v-108q84 2 196 6l252 11l-3 -32q-5 -49 -5 -64q0 -12 4 -52q3 -26 4 -42 q-125 8 -236.5 12.5t-211.5 5.5v-382q0 -83 4.5 -150.5t13.5 -132.5q-63 3 -113.5 4.5t-84.5 1.5q-35 0 -82.5 -1.5t-105.5 -4.5q13 110 19.5 234.5t6.5 322.5v141v86q0 226 -6.5 361.5t-20.5 253.5z" />
<glyph unicode="G" horiz-adv-x="1522" d="M63 698q0 335 220.5 533.5t595.5 198.5q149 0 275.5 -32t240.5 -98q-26 -59 -44.5 -122t-29.5 -129h-25q-69 121 -169 181t-232 60q-208 0 -334.5 -161.5t-126.5 -430.5q0 -270 119 -421.5t330 -151.5q55 0 100.5 6t87.5 19v57q0 109 -5 219t-15 221q52 -4 100 -6t88 -2 t87 2t99 6q-11 -117 -15.5 -191t-4.5 -126q0 -38 2 -95.5t8 -162.5q-169 -49 -321 -73t-293 -24q-343 0 -540.5 194.5t-197.5 528.5z" />
<glyph unicode="H" horiz-adv-x="1575" d="M137 1398l130 -11q37 -3 59 -3q31 0 72.5 3t121.5 11q-7 -77 -10.5 -158t-3.5 -169v-223q49 -2 128 -4q112 -4 142 -4q75 0 255 6q25 1 38 2v223q0 76 -4 157t-12 171l3 -1q151 -14 191 -14q42 0 180 14l9 1q-12 -149 -17.5 -309.5t-5.5 -391.5v-80q0 -189 5.5 -333.5 t17.5 -284.5q-73 6 -115 8t-74 2q-33 0 -76.5 -2t-117.5 -8q8 83 12 158.5t4 146.5v364q-86 4 -159.5 5.5t-133.5 1.5q-41 0 -108.5 -1.5t-161.5 -5.5v-364q0 -82 3.5 -157.5t10.5 -147.5q-74 6 -117.5 8t-76.5 2t-77.5 -2.5t-110.5 -7.5q11 140 16.5 284.5t5.5 333.5v80 q0 228 -5.5 389t-17.5 311z" />
<glyph unicode="I" horiz-adv-x="674" d="M143 1399q82 -9 125 -12t76 -3q22 0 59.5 3t124.5 12q-11 -151 -16.5 -312t-5.5 -389v-80q0 -189 5.5 -333.5t16.5 -284.5q-74 5 -122.5 7.5t-83.5 2.5q-18 0 -51 -1.5t-128 -8.5q13 154 19 309t6 389q0 201 -6 370t-19 331z" />
<glyph unicode="J" horiz-adv-x="674" d="M-59 -215q10 -1 20.5 -1.5t26.5 -0.5q112 0 152 69t40 330v146q0 99 -7 381.5t-19 689.5q56 -4 103.5 -6t78.5 -2q37 0 87.5 2t110.5 6q-9 -160 -13.5 -336.5t-4.5 -386.5q0 -112 2 -255t2 -173q0 -186 -36.5 -288.5t-123.5 -178.5q-62 -53 -148 -83t-177 -30 q-22 0 -58 5q-11 1 -16 1z" />
<glyph unicode="K" horiz-adv-x="1284" d="M137 0q13 149 19 297t6 334v67q0 224 -6 385.5t-19 315.5q82 -9 120 -12t62 -3q34 0 77.5 3.5t121.5 11.5q-10 -107 -14 -182.5t-4 -139.5v-303l354 406q48 56 90 110.5t78 108.5l19 -2q93 -8 110 -8q26 0 61 2t92 7l-261 -264l-283 -303l307 -461q144 -207 274 -370 q-102 6 -145 8t-63 2q-41 0 -96 -2t-144 -8q-55 118 -155.5 274.5t-233.5 331.5v-317q0 -81 4 -151.5t12 -137.5q-75 6 -120.5 8t-80.5 2q-21 0 -59 -2t-123 -8z" />
<glyph unicode="L" horiz-adv-x="975" d="M138 0q13 110 19.5 234.5t6.5 322.5v141v86q0 226 -6.5 361.5t-19.5 253.5q34 -2 90 -5q75 -3 96 -3q50 0 169 6q21 1 33 2q-10 -105 -15 -206.5t-5 -215.5v-49v-486q0 -126 2 -179t6 -93q116 0 226.5 5.5t219.5 16.5q-3 -30 -4.5 -53.5t-1.5 -42.5q0 -12 5 -58 q2 -23 3 -38q-226 6 -337 8t-176 2q-78 0 -155.5 -2.5t-155.5 -7.5z" />
<glyph unicode="M" horiz-adv-x="1825" d="M50 0q40 233 65.5 395t44.5 303l92 701q57 -6 87.5 -8t53.5 -2q25 0 59 2t85 7l195 -496l181 -425l258 559q49 108 82 194.5t56 168.5q54 -6 86 -8t55 -2q26 0 58.5 2t84.5 8l66 -689q2 -24 7 -74q42 -435 83 -636q-72 6 -114 8t-72 2q-34 0 -76.5 -2t-111.5 -8 q-3 164 -25 411q-2 19 -2 27l-50 488l-208 -464l-193 -462q-18 2 -34 3t-38 1q-12 0 -46 -2q-18 -1 -29 -2q-91 234 -190 460t-208 447l-59 -560q-5 -71 -10.5 -159.5t-10.5 -187.5q-51 6 -76.5 8t-41.5 2t-39.5 -2t-64.5 -8z" />
<glyph unicode="N" horiz-adv-x="1516" d="M131 0q12 153 17.5 314t5.5 384q0 139 -5 315.5t-14 384.5q53 -5 83.5 -7t51.5 -2q23 0 52.5 2t80.5 8q186 -240 382 -467t403 -443v385q0 165 -3.5 284t-10.5 241q36 -5 62 -7.5t44 -2.5q17 0 56 4l58 6q-15 -113 -21.5 -304t-6.5 -565v-98q0 -152 4 -250.5t12 -181.5 q-49 6 -75.5 8t-46.5 2q-21 0 -48.5 -2t-74.5 -8l-387 468l-416 460v-566q0 -60 2 -154t6 -208q-37 5 -63 7.5t-46 2.5q-13 0 -35 -2t-67 -8z" />
<glyph unicode="O" horiz-adv-x="1696" d="M61 680q0 352 213 548.5t592 196.5q366 0 566 -181.5t200 -512.5q0 -359 -210 -557.5t-593 -198.5q-370 0 -569 182t-199 523zM432 698q0 -277 110.5 -433t305.5 -156q191 0 302.5 157.5t111.5 431.5q0 279 -110.5 436.5t-303.5 157.5q-194 0 -305 -158t-111 -436z" />
<glyph unicode="P" horiz-adv-x="1202" d="M137 1398q57 -5 94 -7t66 -2q58 0 183 6t194 6q246 0 360.5 -91t114.5 -284q0 -222 -142.5 -333t-426.5 -111q-31 0 -47 0.5t-29 0.5v-278q0 -31 6 -114t16 -191q-71 6 -115.5 8t-78.5 2q-33 0 -78.5 -2.5t-115.5 -7.5q12 146 18 297.5t6 400.5q0 205 -6 374t-19 326z M502 729q164 0 234.5 65.5t70.5 217.5q0 123 -58 185.5t-171 62.5q-9 0 -28 -2l-46 -5q-1 -25 -1.5 -48.5t-0.5 -45.5v-117v-313z" />
<glyph unicode="Q" horiz-adv-x="1696" d="M61 682q0 350 213 546.5t592 196.5q366 0 566 -181t200 -513q0 -276 -125.5 -458.5t-365.5 -254.5l186 -127q51 -34 135 -77t185 -86v-31q-77 -25 -147.5 -59t-137.5 -80q-117 98 -244.5 193.5t-316.5 225.5q-359 7 -549.5 188.5t-190.5 516.5zM432 698 q0 -277 110.5 -433t305.5 -156q191 0 302.5 157.5t111.5 431.5q0 279 -110.5 436.5t-303.5 157.5q-194 0 -305 -158t-111 -436z" />
<glyph unicode="R" horiz-adv-x="1255" d="M133 1399q7 -1 17 -1q96 -7 139 -7q60 0 198 7t215 7q238 0 348.5 -87.5t110.5 -275.5q0 -146 -85.5 -238.5t-233.5 -105.5q108 -186 221 -360t231 -338q-90 6 -140.5 8t-82.5 2q-38 0 -86.5 -2.5t-115.5 -7.5q-47 108 -144 274t-242 383v-268q0 -111 4 -206.5t12 -182.5 q-68 6 -110 8t-72 2t-72.5 -2t-110.5 -8q13 138 19.5 281.5t6.5 345.5v71q0 234 -6.5 393.5t-20.5 307.5zM483 762h9q169 0 246 64.5t77 205.5q0 127 -65 184.5t-209 57.5q-1 0 -17.5 1t-33.5 1q-4 -50 -5.5 -101.5t-1.5 -130.5v-282z" />
<glyph unicode="S" horiz-adv-x="1114" d="M84 41l28 143l35 193h35q27 -133 102.5 -197.5t204.5 -64.5q118 0 185 54t67 148q0 69 -44.5 116.5t-221.5 129.5q-236 110 -311.5 200t-75.5 228q0 202 141.5 318t388.5 116q106 0 197 -21t170 -65q-26 -66 -46 -132.5t-36 -135.5h-24q-44 114 -113 166.5t-174 52.5 q-104 0 -167 -50t-63 -130q0 -107 243 -218l65 -30q232 -111 299 -198.5t67 -225.5q0 -218 -155.5 -341.5t-431.5 -123.5q-102 0 -195 17.5t-170 50.5z" />
<glyph unicode="T" d="M12 1202l1 7q7 70 7 100q0 12 -4 51q-2 24 -3 39q224 -8 344 -11t204 -4q78 0 192 3t355 11q-3 -32 -4.5 -54t-1.5 -35q0 -24 1.5 -51t4.5 -55q-91 11 -183 17.5t-186 6.5q-4 -59 -6 -122.5t-2 -166.5v-84q0 -363 6 -536.5t19 -317.5q-87 6 -129 8t-66 2q-33 0 -76.5 -2 t-117.5 -8q12 145 18 303t6 395q0 102 -2 238t-6 291q-94 0 -187.5 -6.5t-183.5 -18.5z" />
<glyph unicode="U" horiz-adv-x="1497" d="M123 1398q66 -5 112 -7t80 -2q32 0 75.5 2t117.5 8q-14 -152 -20.5 -314.5t-6.5 -367.5q0 -341 70 -448t244 -107q98 0 173.5 37.5t118.5 107.5q38 61 54 159t16 304q0 175 -6 332t-18 297q49 -6 76 -8t44 -2q18 0 42.5 2t68.5 7q-9 -133 -13.5 -245t-4.5 -199v-303 q0 -208 -28 -316t-93 -183q-79 -90 -199.5 -134.5t-284.5 -44.5q-180 0 -309.5 49.5t-198.5 143.5q-50 69 -71 178t-21 346v178v72q0 137 -4.5 245.5t-13.5 212.5z" />
<glyph unicode="V" horiz-adv-x="1229" d="M-28 1399q79 -6 128.5 -8t85.5 -2q18 0 55 1.5t132 8.5q19 -76 37.5 -137t38.5 -111l268 -709l256 715q20 56 37.5 116t31.5 125q48 -5 74 -7t43 -2q19 0 47.5 2t79.5 8q-47 -95 -85 -179.5t-68 -160.5l-283 -709q-31 -77 -59.5 -163.5t-55.5 -186.5q-38 5 -66 7.5 t-48 2.5t-45.5 -2t-69.5 -8q-45 151 -115 328l-8 20z" />
<glyph unicode="W" horiz-adv-x="1989" d="M-12 1399q75 -6 120 -8t78 -2q32 0 77 2t119 8q57 -256 117 -487.5t130 -462.5l178 519l145 431l6 -1q93 -9 111 -9q23 0 54 2t81 8q66 -248 138 -483t155 -472q80 243 143.5 481.5t111.5 473.5q46 -6 74.5 -8t49.5 -2q15 0 40 2t72 8l-221 -673l-237 -726q-47 6 -75 8 t-48 2q-22 0 -51 -2.5t-71 -7.5l-154 482l-152 454q-86 -214 -164.5 -445.5t-152.5 -490.5q-49 6 -79 8t-53 2q-17 0 -111 -9l-11 -1q-90 357 -195 706.5t-225 692.5z" />
<glyph unicode="X" horiz-adv-x="1174" d="M-4 0l57 80l201 282l199 293l-430 744q80 -6 126 -8t80 -2q40 0 92 2t128 7l52 -116q24 -51 38 -76l133 -248q69 108 130.5 216t120.5 224q46 -5 75.5 -7t50.5 -2q22 0 50.5 2t75.5 7q-71 -92 -175 -240l-244 -357l446 -801q-83 5 -137.5 7.5t-93.5 2.5q-28 0 -182 -9 l-13 -1l-43 106q-19 45 -26 57l-172 326q-75 -115 -143 -235t-134 -254q-74 7 -99 8.5t-40 1.5q-28 0 -58.5 -2.5t-64.5 -7.5z" />
<glyph unicode="Y" horiz-adv-x="1120" d="M-49 1399q70 -6 119 -8t88 -2q32 0 82.5 2t144.5 8q67 -155 136 -296.5t141 -271.5q74 119 147.5 261.5t144.5 305.5q61 -6 80.5 -7.5t30.5 -1.5q23 0 53 2t75 8q-126 -185 -237 -375.5t-208 -390.5v-103q0 -142 3.5 -274.5t9.5 -255.5q-77 6 -121 8t-75 2q-22 0 -62 -2 t-120 -8q10 118 15 223t5 203q0 57 -3 174l-1 6l-198 367l-20 36q-120 229 -230 390z" />
<glyph unicode="Z" horiz-adv-x="1247" d="M37 0v84l335 533l371 606h-301q-81 0 -152 -5t-142 -16q1 10 3 25q9 58 9 78q0 14 -3.5 38.5t-9.5 55.5q249 -6 355.5 -8t165.5 -2q87 0 215 2t339 8l1 -45l-379 -605l-346 -571h352q125 0 218.5 6.5t178.5 20.5q-4 -33 -6 -64t-2 -61q0 -22 0.5 -40.5t1.5 -39.5 q-157 4 -302.5 6t-272.5 2q-142 0 -300 -2t-329 -6z" />
<glyph unicode="[" horiz-adv-x="682" d="M158 -248q9 268 13.5 473.5t4.5 349.5q0 147 -4.5 352.5t-13.5 471.5q99 -6 150 -8t83 -2q41 0 95.5 2t135.5 8v-5q-8 -36 -8 -53q0 -10 6 -43q2 -11 3 -18h-7q-112 4 -163 4h-58q-6 -276 -8 -421t-2 -234q0 -147 3.5 -339.5t11.5 -420.5q15 0 50 -1t54 -1q16 0 71 2 q30 1 48 2q-1 -7 -3 -18q-6 -33 -6 -43q0 -12 6 -43q2 -9 2 -13q-26 1 -74 3q-119 5 -157 5q-30 0 -80.5 -2t-152.5 -8z" />
<glyph unicode="\" horiz-adv-x="575" d="M-49 1536h121l561 -1726h-123z" />
<glyph unicode="]" horiz-adv-x="682" d="M115 -127h6q112 -4 166 -4h57q4 192 6 358.5t2 294.5q0 148 -3.5 341t-10.5 421h-105q-35 0 -63 -0.5t-55 -1.5q1 7 3 19q5 32 5 42q0 11 -5 38q-2 10 -3 16q25 -1 71 -3q123 -5 162 -5q29 0 77 2t154 8q-9 -271 -13.5 -476t-4.5 -348t4.5 -349t13.5 -474q-102 6 -151 8 t-80 2q-54 0 -113.5 -2t-119.5 -6q0 3 2 10q6 30 6 46q0 11 -6 49q-2 10 -2 14z" />
<glyph unicode="^" horiz-adv-x="2048" d="M416 899l481 561h252l481 -561h-235l-371 371l-373 -371h-235z" />
<glyph unicode="_" horiz-adv-x="1024" d="M0 -279h1024v-204h-1024v204z" />
<glyph unicode="`" horiz-adv-x="1024" d="M180 1417q0 46 32 77.5t79 31.5q35 0 69 -20t86 -74l279 -297h-104l-336 163q-56 28 -80.5 56t-24.5 63z" />
<glyph unicode="a" horiz-adv-x="1057" d="M70 254q0 108 57 173.5t203 113.5q55 18 141 42q145 41 145 91q0 93 -53 143.5t-151 50.5q-68 0 -119.5 -26.5t-79.5 -75.5h-10l-31 115q71 68 167.5 105.5t201.5 37.5q182 0 275 -85t93 -251v-6l-2 -360v-70q0 -75 17.5 -106t58.5 -31q16 0 34.5 4t39.5 12l6 -72 q-53 -40 -113 -62t-119 -22q-67 0 -119 31t-81 88q-50 -61 -119 -90t-162 -29q-131 0 -205.5 74.5t-74.5 204.5zM360 297q0 -68 33 -110t86 -42q67 0 99 42t32 128v211q-127 -20 -188.5 -76.5t-61.5 -152.5z" />
<glyph unicode="b" horiz-adv-x="1237" d="M121 0q7 172 10.5 439.5t3.5 602.5q0 181 -3.5 288t-10.5 206q51 -6 93 -9t77 -3q33 0 75 3t95 9q-6 -189 -9 -300.5t-3 -150.5v-217q48 77 125.5 116.5t181.5 39.5q193 0 298 -133t105 -377q0 -255 -118.5 -397t-331.5 -142q-114 0 -201.5 44t-153.5 135 q-42 -32 -79 -70t-70 -84h-84zM436 506q0 -191 50 -285t151 -94q95 0 144.5 98.5t49.5 286.5q0 187 -46.5 278t-141.5 91q-101 0 -154 -96t-53 -279z" />
<glyph unicode="c" horiz-adv-x="991" d="M55 492q0 237 151.5 383.5t397.5 146.5q86 0 168 -16.5t162 -49.5q-16 -60 -28 -124.5t-21 -140.5l-41 -1q-19 102 -71 154.5t-136 52.5q-108 0 -172 -95t-64 -259q0 -203 76 -308.5t223 -105.5q62 0 116 17.5t99 52.5l13 -13q-18 -63 -26.5 -95t-14.5 -60 q-61 -28 -130.5 -42t-150.5 -14q-254 0 -402.5 139t-148.5 378z" />
<glyph unicode="d" horiz-adv-x="1237" d="M82 506q0 249 108 383.5t308 134.5q103 0 170 -34.5t120 -115.5v234q0 18 -4 177q-3 148 -6 251q51 -7 93.5 -10.5t76.5 -3.5t76.5 3.5t93.5 10.5q-7 -109 -10.5 -223t-3.5 -299q0 -299 3.5 -534t10.5 -480q-58 5 -100 7.5t-74 2.5q-20 0 -55.5 -2t-107.5 -8q4 36 7 68.5 t3 60.5q-64 -83 -135.5 -118.5t-178.5 -35.5q-195 0 -295 135t-100 396zM406 487q0 -178 49 -265t149 -87q92 0 142.5 96.5t50.5 276.5q0 186 -50 280.5t-149 94.5q-100 0 -146 -94.5t-46 -301.5z" />
<glyph unicode="e" horiz-adv-x="1096" d="M66 504q0 236 139.5 379t372.5 143q228 0 340 -114t112 -347q0 -26 -0.5 -40.5t-1.5 -26.5h-625v-6q0 -162 86 -255.5t234 -93.5q76 0 138 25t106 74l26 -13l-24 -75q-12 -39 -27 -93q-70 -43 -155.5 -64.5t-190.5 -21.5q-245 0 -387.5 143t-142.5 386zM403 616h320v27 q0 6 1 13l1 8q0 132 -39.5 201t-114.5 69q-80 0 -124 -74t-44 -211v-33z" />
<glyph unicode="f" horiz-adv-x="639" d="M12 873q3 19 4.5 34.5t1.5 26.5q0 9 -2 26l-3 37q43 -5 79 -7.5t66 -2.5q25 241 139 395t264 154q35 0 68 -5t67 -15q-15 -54 -30.5 -119t-34.5 -158h-10q-41 37 -78 54.5t-76 17.5q-52 0 -84.5 -25.5t-32.5 -66.5q0 -19 9.5 -48t25.5 -57l70 -125h43q40 0 76.5 2t70.5 6 q0 -3 -1 -11q-3 -37 -3 -52q0 -13 3 -49q1 -9 1 -12q-25 1 -53 1h-80h-49v-464q0 -70 6 -172.5t18 -237.5q-61 5 -101.5 7.5t-70.5 2.5q-28 0 -67 -2t-104 -8q8 77 12 153.5t4 168.5v88v464q-17 2 -32.5 2.5t-33.5 0.5q-11 0 -47 -3q-22 -1 -35 -1z" />
<glyph unicode="g" horiz-adv-x="1053" d="M35 -268q0 102 61 171t164 85v12q-68 18 -106.5 64t-38.5 108q0 77 54 131t150 74v31q-123 24 -187 98.5t-64 191.5q0 150 113 238t306 88q68 0 209.5 -17.5t214.5 -17.5q31 0 69 2.5t93 7.5v-122q-34 3 -75 5t-125 5q43 -26 63 -67.5t20 -102.5q0 -160 -108 -252 t-297 -92q-15 0 -43 1t-41 1q-55 0 -85 -19.5t-30 -54.5q0 -74 251 -80q36 -1 56 -2q221 -6 315.5 -81.5t94.5 -239.5q0 -211 -162 -335t-442 -124q-200 0 -315 79t-115 214zM256 -215q0 -107 72 -167t202 -60q125 0 202 63.5t77 167.5q0 93 -66.5 134.5t-242.5 49.5l-140 7 q-49 -26 -76.5 -77t-27.5 -118zM373 684q0 -120 31.5 -173.5t101.5 -53.5q74 0 107.5 57t33.5 188q0 123 -31 177.5t-100 54.5q-71 0 -107 -63.5t-36 -186.5z" />
<glyph unicode="h" horiz-adv-x="1214" d="M121 0q10 130 14 300.5t4 473.5q0 331 -4 484.5t-14 277.5q70 -6 106 -8t60 -2q25 0 65.5 2t114.5 8q-6 -78 -9 -155t-3 -158v-346q62 77 136 112t177 35q165 0 240 -89.5t75 -289.5q0 -11 -1 -107.5t-1 -181.5q0 -116 3.5 -196t10.5 -160q-76 6 -109.5 8t-53.5 2 q-30 0 -71.5 -2.5t-104.5 -7.5q7 69 10.5 191t3.5 311q0 200 -34 263.5t-120 63.5q-88 0 -125.5 -77t-37.5 -267q0 -87 3.5 -211t9.5 -274q-65 5 -109.5 7.5t-75.5 2.5q-24 0 -59.5 -2t-100.5 -8z" />
<glyph unicode="i" horiz-adv-x="596" d="M121 999q54 -6 97.5 -9t78.5 -3q36 0 80 3t96 9q-10 -70 -15 -145t-5 -162q0 -34 1 -98t1 -94v-166q0 -130 3.5 -204t12.5 -130q-26 1 -72 4q-78 4 -102 4q-32 0 -122 -5l-50 -3q9 60 12.5 131.5t3.5 181.5v185v82q0 156 -4.5 249.5t-15.5 169.5zM131 1354q0 70 48.5 119 t119.5 49q69 0 117.5 -49t48.5 -119q0 -69 -49.5 -117.5t-118.5 -48.5t-117.5 48.5t-48.5 117.5z" />
<glyph unicode="j" horiz-adv-x="596" d="M-96 -461h4q137 0 187 102.5t50 469.5v284q0 216 -4.5 351.5t-15.5 252.5q74 -6 109.5 -8t58.5 -2q22 0 58 2t110 8q-1 -48 -1.5 -98.5t-0.5 -130.5q0 -380 9 -735q1 -54 1 -64q0 -257 -132 -382.5t-411 -133.5zM123 1354q0 70 48.5 119t119.5 49q69 0 117.5 -49 t48.5 -119q0 -69 -48.5 -117.5t-117.5 -48.5q-70 0 -119 48.5t-49 117.5z" />
<glyph unicode="k" horiz-adv-x="1135" d="M123 1536q88 -7 115.5 -8.5t40.5 -1.5q30 0 72.5 2t111.5 8q-11 -140 -16 -293t-5 -340v-319q97 74 190 176.5t189 238.5q24 -2 47.5 -3t53.5 -1q23 0 53 1l90 3l8 -14q-35 -30 -97 -90q-21 -21 -32 -31l-229 -223l181 -311l204 -330q-79 6 -124 8t-79 2q-27 0 -153 -9 l-11 -1l-145 258l-146 238v-119q0 -162 2.5 -238t7.5 -139q-47 3 -88 4.5t-77 1.5q-25 0 -65 -1.5t-99 -4.5q10 145 14 332t4 512q0 264 -4 411t-14 281z" />
<glyph unicode="l" horiz-adv-x="612" d="M131 1536q51 -7 95 -10.5t79 -3.5q25 0 61.5 3t106.5 11q-10 -245 -14 -425t-4 -339q0 -192 4.5 -384.5t13.5 -387.5q-52 7 -94.5 10.5t-73.5 3.5q-25 0 -59.5 -2.5t-113.5 -11.5q7 205 11 394.5t4 369.5q0 217 -4 406.5t-12 365.5z" />
<glyph unicode="m" horiz-adv-x="1825" d="M121 0q9 124 13.5 249.5t4.5 252.5q0 145 -4.5 265.5t-13.5 231.5q51 -3 89 -4.5t62 -1.5q38 0 79.5 1.5t88.5 4.5v-141q71 90 148 129t182 39q111 0 184 -48t101 -138q49 93 131 139.5t194 46.5q163 0 238.5 -91t75.5 -292q0 -6 -1 -103t-1 -188q0 -115 3.5 -194.5 t9.5 -157.5q-62 6 -102 8t-71 2q-28 0 -65 -2t-105 -7q7 86 10.5 215t3.5 288q0 201 -32.5 265.5t-114.5 64.5q-86 0 -123 -78.5t-37 -268.5q0 -105 3 -228.5t9 -258.5q-59 5 -97.5 7.5t-65.5 2.5q-31 0 -71.5 -2.5t-98.5 -7.5q6 86 10 216t4 288q0 201 -32.5 265.5 t-115.5 64.5q-85 0 -122 -78.5t-37 -268.5q0 -105 3 -228.5t8 -258.5q-65 5 -109.5 7.5t-75.5 2.5q-16 0 -44 -1.5t-116 -8.5z" />
<glyph unicode="n" horiz-adv-x="1214" d="M121 999q40 -4 78.5 -6t72.5 -2q36 0 78 2t88 6v-145q70 88 148 127t186 39q161 0 236 -91t75 -290q0 -8 -2 -104.5t-2 -184.5q0 -114 3.5 -192.5t10.5 -157.5q-76 6 -109.5 8t-53.5 2q-30 0 -71.5 -2.5t-104.5 -7.5q8 76 12 203.5t4 298.5q0 200 -34 263.5t-120 63.5 q-88 0 -125.5 -77t-37.5 -267q0 -110 3 -232t8 -253q-68 6 -110.5 8t-72.5 2q-16 0 -44 -1.5t-116 -8.5q9 124 13.5 249t4.5 251q0 129 -4.5 253.5t-13.5 245.5z" />
<glyph unicode="o" horiz-adv-x="1161" d="M47 500q0 247 141.5 386.5t393.5 139.5q254 0 393 -137.5t139 -388.5q0 -247 -141.5 -386t-392.5 -139q-253 0 -393 138.5t-140 386.5zM389 500q0 -234 44 -329t149 -95q104 0 148 94.5t44 329.5t-44 330.5t-148 95.5q-105 0 -149 -95.5t-44 -330.5z" />
<glyph unicode="p" horiz-adv-x="1237" d="M125 -581q7 117 10.5 236.5t3.5 295.5q0 357 -3.5 589t-10.5 459q60 -5 101 -7.5t71 -2.5q20 0 55 2l109 8q-4 -29 -6 -60.5t-2 -68.5q62 81 132.5 117.5t164.5 36.5q193 0 301 -142.5t108 -398.5q0 -240 -109.5 -374t-306.5 -134q-103 0 -170 35t-120 115v-231 q0 -29 3 -147t9 -329q-70 9 -107 12t-63 3q-33 0 -75.5 -3.5t-94.5 -10.5zM444 492q0 -186 51 -280.5t150 -94.5q100 0 146.5 94t46.5 301q0 178 -50 266t-151 88q-92 0 -142.5 -97t-50.5 -277z" />
<glyph unicode="q" horiz-adv-x="1237" d="M78 483q0 256 108 398.5t301 142.5q95 0 166.5 -36.5t132.5 -117.5q0 35 -2.5 67t-7.5 62q50 -4 91.5 -6t72.5 -2q41 0 85 2t89 6q-8 -231 -12 -492t-4 -544q0 -141 4 -267.5t12 -254.5q-51 7 -94.5 10.5t-77.5 3.5t-76 -3.5t-94 -10.5q6 206 9 322.5t3 144.5v217 q-53 -80 -120 -115t-170 -35q-197 0 -306.5 134t-109.5 374zM399 492q0 -197 46 -285t147 -88q100 0 150.5 93.5t50.5 279.5q0 180 -50 276t-143 96q-104 0 -152.5 -89.5t-48.5 -282.5z" />
<glyph unicode="r" horiz-adv-x="782" d="M121 0q9 124 13.5 249t4.5 251q0 129 -4.5 253.5t-13.5 245.5q47 -4 87 -6t64 -2q38 0 81.5 2t90.5 6q-11 -49 -16.5 -98t-5.5 -96q0 -7 1 -23t1 -24h10q40 131 113.5 198.5t175.5 67.5q14 0 21.5 -0.5t15.5 -2.5q-12 -72 -17.5 -141t-5.5 -137q0 -10 1 -29.5t1 -29.5 q-41 26 -69.5 35.5t-57.5 9.5q-84 0 -125 -54t-41 -167q0 -133 5.5 -260t14.5 -248q-65 5 -109.5 7.5t-75.5 2.5q-16 0 -44 -1.5t-116 -8.5z" />
<glyph unicode="s" horiz-adv-x="874" d="M63 39l39 190l15 68h28q33 -107 94.5 -159t155.5 -52q78 0 124 34t46 89q0 83 -147 133q-63 22 -99 37q-128 53 -183.5 126.5t-55.5 188.5q0 151 107.5 241.5t287.5 90.5q72 0 145 -16t152 -49q-28 -81 -68 -214l-6 -18h-22q-18 88 -75.5 136t-143.5 48q-66 0 -107 -33 t-41 -83q0 -76 190 -139l22 -7q172 -57 232 -123.5t60 -183.5q0 -174 -108 -270.5t-304 -96.5q-97 0 -183.5 16t-154.5 46z" />
<glyph unicode="t" horiz-adv-x="692" d="M14 871q3 20 4.5 37t1.5 30t-1.5 30t-4.5 37h7q79 -8 112 -8h21v58q0 52 -2 96.5t-7 83.5q93 25 166.5 58t134.5 77h45q-9 -62 -13.5 -123.5t-4.5 -122.5v-127h29q41 0 135 8q8 0 12 1q-2 -15 -3 -30.5t-1 -37.5q0 -20 1 -35t3 -30q-31 1 -67 1h-113l-4 -534v-43 q0 -125 30 -162t111 -37q15 0 41.5 3t56.5 7l-8 -90q-56 -24 -122 -35.5t-148 -11.5q-148 0 -213.5 70t-65.5 231q0 54 2.5 134.5t2.5 107.5v41q2 163 2 319h-62q-3 0 -29 -1.5t-49 -1.5z" />
<glyph unicode="u" horiz-adv-x="1212" d="M113 999q77 -9 109 -11.5t54 -2.5q27 0 66.5 3t112.5 11q-8 -91 -12.5 -222t-4.5 -283q0 -201 34 -264.5t120 -63.5q88 0 126 76.5t38 265.5q0 70 -4 199t-10 292q64 -7 108.5 -10.5t77.5 -3.5q24 0 65 3.5t94 10.5q-9 -129 -13.5 -255t-4.5 -248q0 -147 4.5 -267.5 t13.5 -228.5h-12q-97 4 -139 4q-50 0 -157 -4h-11v141q-70 -88 -147.5 -127t-184.5 -39q-162 0 -236.5 90t-74.5 289q0 12 1 108t1 181q0 117 -3.5 196.5t-10.5 159.5z" />
<glyph unicode="v" horiz-adv-x="999" d="M0 999q54 -4 105 -6t96 -2q35 0 82 2t102 6l24 -94q25 -100 29 -112l144 -455q70 180 121.5 343t89.5 318q30 -4 56 -6t44 -2q25 0 53 2t60 6q-106 -245 -200.5 -493.5t-178.5 -505.5q-51 6 -79.5 8t-49.5 2t-50.5 -2t-80.5 -8q-71 243 -162.5 492t-204.5 507z" />
<glyph unicode="w" horiz-adv-x="1565" d="M10 999q50 -4 95 -6t88 -2q42 0 88 2t94 6q31 -156 72 -317.5t94 -327.5l91 309l93 336q40 -4 76 -6t69 -2t70 2t78 6q36 -159 78 -320l88 -325l100 359q20 73 36 144l32 142q30 -4 57.5 -6t52.5 -2t53 2t58 6l-78 -200l-59 -164l-215 -634q-49 5 -78.5 7t-50.5 2t-49 -2 t-78 -8l-91 338q-44 153 -90 295l-100 -307l-96 -326q-52 6 -81 8t-50 2q-23 0 -52 -2t-81 -8l-168 535z" />
<glyph unicode="x" horiz-adv-x="967" d="M-8 0l175 227l169 234l-166 289q-4 7 -58 89l-102 160q54 -4 105.5 -6t97.5 -2q45 0 94 2t101 6l141 -288q55 83 96.5 153.5t75.5 134.5l64 -6q29 -3 44 -2q29 0 61.5 2t65.5 6l-194 -242q-78 -99 -133 -179l178 -310l85 -146l77 -122q-71 6 -115.5 8t-79.5 2 q-32 0 -77 -2t-119 -8l-164 328l-83 -148l-100 -180q-48 6 -73.5 8t-42.5 2q-19 0 -46 -2t-77 -8z" />
<glyph unicode="y" horiz-adv-x="979" d="M0 999q58 -4 109 -6t92 -2q36 0 81 2t95 6q38 -159 86.5 -312t107.5 -302l109 309q19 57 42 135.5t47 169.5l57 -5q28 -3 40 -3q37 0 70.5 2t67.5 6q-192 -402 -350.5 -790t-287.5 -768q-36 3 -65 4.5t-53 1.5q-25 0 -54 -1.5t-64 -4.5q49 76 90 149.5t73 143.5l110 239 l-288 748q-24 64 -52 131z" />
<glyph unicode="z" horiz-adv-x="995" d="M31 0v115l406 583l103 151q-47 3 -71 4t-43 1q-78 0 -159 -6.5t-167 -20.5q2 19 3 38.5t1 47.5q0 29 -1 48t-3 38q118 -4 222 -6t184 -2q102 0 211 2t223 6v-116q-136 -172 -265 -355t-251 -381q18 0 55.5 -1t57.5 -1q86 0 187.5 3.5t236.5 11.5q-3 -19 -4 -37t-1 -41 t1 -42t3 -40q-165 5 -272.5 7.5t-183.5 2.5q-87 0 -198 -2.5t-275 -7.5z" />
<glyph unicode="{" horiz-adv-x="1024" d="M158 426v209q7 0 21 -1t20 -1q120 0 171.5 58t51.5 196v250q0 143 23.5 201t80.5 92q47 25 114 37t167 12q12 0 37 -1t39 -1v-209q-9 0 -25 1t-22 1q-101 0 -136.5 -38.5t-35.5 -162.5v-240q0 -148 -45 -210t-162 -89q117 -27 162 -88t45 -209v-241q0 -123 35 -161 t137 -38q6 0 22 1t25 1v-209q-14 0 -39 -1t-37 -1q-100 0 -167 12t-114 37q-57 34 -80.5 91.5t-23.5 199.5v252q0 137 -51 194.5t-172 57.5q-6 0 -20 -1t-21 -1z" />
<glyph unicode="|" horiz-adv-x="1024" d="M410 -483v2048h206v-2048h-206z" />
<glyph unicode="}" horiz-adv-x="1024" d="M143 -205q9 0 25 -1t22 -1q101 0 136.5 38.5t35.5 160.5v239q0 150 45 211.5t162 87.5q-117 27 -162 89t-45 210v242q0 122 -35.5 160.5t-136.5 38.5q-6 0 -22 -1t-25 -1v209h68q110 0 177 -12t112 -38q57 -32 80.5 -91.5t23.5 -198.5v-252q0 -137 51 -194.5t172 -57.5 q6 0 20 1t21 1v-209h-37q-125 0 -176 -56t-51 -194v-252q0 -143 -23.5 -201t-80.5 -90q-47 -25 -114 -37t-167 -12q-12 0 -37 1t-39 1v209z" />
<glyph unicode="~" horiz-adv-x="1706" d="M178 418v221q107 72 204 107.5t183 35.5q117 0 291 -58l4 -1l55 -19q155 -55 240 -55t175 37t200 117v-221q-104 -71 -196.5 -104.5t-182.5 -33.5q-46 0 -92 8t-92 23q-24 8 -71 25q-219 75 -333 75q-85 0 -177.5 -37.5t-207.5 -119.5z" />
<glyph d="M-8 465l37 125q54 -6 83.5 -7t77.5 -1q-2 31 -3 52.5t-1 39.5q0 17 1 36t3 54q-41 0 -85.5 -1t-94.5 -3l37 125q7 -1 19 -2q67 -6 139 -6q44 234 192 360.5t377 126.5q96 0 187.5 -28t175.5 -83q-16 -65 -28.5 -127t-20.5 -122h-31q-33 116 -96 173.5t-156 57.5 q-123 0 -190 -87.5t-85 -270.5h181q68 0 149 2t160 6l-37 -125q-63 3 -378 7q-55 1 -81 1q0 -14 -1 -40t-1 -38q0 -34 4 -103v-5h185q79 0 166 5q35 2 56 3l-36 -125q-49 3 -149.5 4.5t-212.5 1.5q20 -193 86.5 -279t193.5 -86q90 0 159.5 46t117.5 137l30 -15 q-12 -56 -20.5 -108t-14.5 -101q-64 -46 -149.5 -71t-181.5 -25q-231 0 -372.5 128t-180.5 372q-51 0 -105.5 -1t-105.5 -3z" />
<glyph unicode="&#x20ac;" d="M-8 465l37 125q54 -6 83.5 -7t77.5 -1q-2 31 -3 52.5t-1 39.5q0 17 1 36t3 54q-41 0 -85.5 -1t-94.5 -3l37 125q7 -1 19 -2q67 -6 139 -6q44 234 192 360.5t377 126.5q96 0 187.5 -28t175.5 -83q-16 -65 -28.5 -127t-20.5 -122h-31q-33 116 -96 173.5t-156 57.5 q-123 0 -190 -87.5t-85 -270.5h181q68 0 149 2t160 6l-37 -125q-63 3 -378 7q-55 1 -81 1q0 -14 -1 -40t-1 -38q0 -34 4 -103v-5h185q79 0 166 5q35 2 56 3l-36 -125q-49 3 -149.5 4.5t-212.5 1.5q20 -193 86.5 -279t193.5 -86q90 0 159.5 46t117.5 137l30 -15 q-12 -56 -20.5 -108t-14.5 -101q-64 -46 -149.5 -71t-181.5 -25q-231 0 -372.5 128t-180.5 372q-51 0 -105.5 -1t-105.5 -3z" />
<glyph unicode="&#xa0;" />
<glyph unicode="&#xa1;" horiz-adv-x="668" d="M156 1245q0 75 52.5 127.5t125.5 52.5q74 0 126 -52.5t52 -127.5q0 -74 -52.5 -126t-127.5 -52q-74 0 -125 51.5t-51 126.5zM166 158q0 72 50 338.5t73 459.5h88q22 -195 72.5 -461.5t50.5 -336.5q0 -82 -47 -132.5t-121 -50.5t-120 50t-46 133z" />
<glyph unicode="&#xa2;" d="M127 518q0 231 142.5 377t377.5 154q0 37 -1.5 75.5t-4.5 79.5h119l-1 -6q-7 -100 -7 -149q90 -10 159.5 -36.5t128.5 -74.5q-21 -55 -38 -112t-29 -115h-31q-15 94 -61 145t-129 66v-766q62 1 122 22.5t123 65.5l15 -11q-15 -46 -29 -84.5t-29 -72.5q-45 -27 -95 -43.5 t-107 -24.5v-53q0 -47 2 -87.5t6 -76.5h-119q4 34 6 70.5t2 75.5q0 26 -0.5 39.5t-1.5 23.5q-243 5 -381.5 143t-138.5 375zM469 567q0 -167 46 -265.5t140 -131.5v748q-87 -18 -136.5 -110.5t-49.5 -240.5z" />
<glyph unicode="&#xa3;" d="M72 274q127 4 173 52t46 196q0 27 -1 57.5t-3 63.5h-47q-49 0 -85.5 -2.5t-65.5 -7.5q2 20 3.5 37t1.5 32q0 10 -1.5 27t-4.5 39q33 -4 68.5 -6t74.5 -2h45q-9 45 -13.5 85.5t-4.5 76.5q0 213 131 327.5t373 114.5q97 0 183 -22.5t159 -67.5q-24 -56 -40.5 -114.5 t-25.5 -114.5l-51 -1q-23 108 -71.5 157.5t-129.5 49.5q-101 0 -159 -64.5t-58 -178.5q0 -33 9 -115.5t10 -132.5h108q42 0 85.5 1.5t115.5 6.5q-3 -19 -4.5 -35.5t-1.5 -30.5t1.5 -31t4.5 -38q-35 5 -71.5 7.5t-92.5 2.5h-37h-108q-6 -122 -65 -207t-191 -160h74 q131 0 287 4.5t394 14.5q-9 -48 -13.5 -83.5t-4.5 -57.5q0 -25 4.5 -59.5t15.5 -94.5q-238 9 -335.5 11.5t-161.5 2.5q-65 0 -163.5 -2.5t-356.5 -11.5q6 44 9 76.5t3 56.5q0 25 -3 60t-9 81z" />
<glyph unicode="&#xa4;" d="M-8 465l37 125q54 -6 83.5 -7t77.5 -1q-2 31 -3 52.5t-1 39.5q0 17 1 36t3 54q-41 0 -85.5 -1t-94.5 -3l37 125q7 -1 19 -2q67 -6 139 -6q44 234 192 360.5t377 126.5q96 0 187.5 -28t175.5 -83q-16 -65 -28.5 -127t-20.5 -122h-31q-33 116 -96 173.5t-156 57.5 q-123 0 -190 -87.5t-85 -270.5h181q68 0 149 2t160 6l-37 -125q-63 3 -378 7q-55 1 -81 1q0 -14 -1 -40t-1 -38q0 -34 4 -103v-5h185q79 0 166 5q35 2 56 3l-36 -125q-49 3 -149.5 4.5t-212.5 1.5q20 -193 86.5 -279t193.5 -86q90 0 159.5 46t117.5 137l30 -15 q-12 -56 -20.5 -108t-14.5 -101q-64 -46 -149.5 -71t-181.5 -25q-231 0 -372.5 128t-180.5 372q-51 0 -105.5 -1t-105.5 -3z" />
<glyph unicode="&#xa5;" horiz-adv-x="1147" d="M14 1331q52 -4 100.5 -6t94.5 -2q35 0 84.5 2t107.5 6l121 -267l129 -271q73 131 138.5 265t124.5 273q30 -3 56 -4.5t46 -1.5t48 1.5t66 4.5l-191 -316l-163 -282q77 0 155 1.5t154 4.5v-122q-73 2 -237 4q-79 1 -119 2v-125h72q61 0 125.5 1.5t158.5 6.5v-125 q-65 4 -151.5 6t-204.5 2q2 -111 5.5 -207t8.5 -182q-77 6 -110 8t-53 2q-32 0 -75 -2.5t-107 -7.5q10 103 15 200t5 189q-82 0 -167 -2t-190 -6v125q48 -4 109.5 -6t144.5 -2h101v125q-41 -1 -119 -2q-168 -2 -236 -4v122q32 -4 75 -6t100 -2q16 0 53 1t57 1l-127 234 l-104 189z" />
<glyph unicode="&#xa6;" horiz-adv-x="1024" d="M410 -350v758h206v-758h-206zM410 674v758h206v-758h-206z" />
<glyph unicode="&#xa7;" horiz-adv-x="1114" d="M92 580q0 86 44.5 164.5t125.5 132.5q-46 52 -67 101t-21 103q0 148 121.5 246t310.5 98q101 0 193 -23t149 -61q-34 -72 -54.5 -119.5t-35.5 -88.5h-18q-20 91 -87.5 141.5t-168.5 50.5q-84 0 -136.5 -41.5t-52.5 -105.5q0 -54 44.5 -96.5t142.5 -82.5l38 -15 q406 -162 406 -361q0 -96 -41 -174.5t-115 -122.5q48 -43 71.5 -97.5t23.5 -122.5q0 -170 -131 -275t-347 -105q-108 0 -201 18.5t-155 53.5l20 109q17 92 27 152h27q21 -109 102 -169t207 -60q97 0 155 47t58 123q0 65 -49 111t-199 110l-7 3q-380 163 -380 356zM297 700 q0 -88 230 -194q161 -74 255 -131q21 22 30 44.5t9 49.5q0 92 -206 183q-172 74 -277 141q-21 -22 -31 -44t-10 -49z" />
<glyph unicode="&#xa8;" horiz-adv-x="1024" d="M172 1321q0 56 44 98.5t101 42.5q60 0 101 -41t41 -100q0 -63 -40 -104t-102 -41q-59 0 -102 42.5t-43 102.5zM563 1321q0 56 43 98.5t101 42.5q59 0 101 -41t42 -100q0 -63 -41 -104t-102 -41q-60 0 -102 42.5t-42 102.5z" />
<glyph unicode="&#xa9;" horiz-adv-x="1706" d="M111 733q0 149 56 284.5t163 244.5q105 106 238 161.5t284 55.5q152 0 287.5 -56t242.5 -163q105 -105 160 -240.5t55 -286.5q0 -152 -54.5 -284t-160.5 -236q-111 -108 -248 -165.5t-282 -57.5q-147 0 -280.5 56.5t-241.5 164.5q-107 106 -163 240.5t-56 281.5zM233 735 q0 -125 47 -237t136 -201q88 -88 201 -135t237 -47t237.5 47t204.5 137q88 86 133.5 197t45.5 239q0 126 -46.5 238.5t-134.5 200.5q-89 89 -201 135.5t-239 46.5q-128 0 -239.5 -46t-198.5 -134q-89 -90 -136 -203.5t-47 -237.5zM453 729q0 206 109.5 328.5t293.5 122.5 q152 0 250.5 -78t105.5 -205h-188q-8 70 -53 108.5t-119 38.5q-91 0 -143 -81.5t-52 -227.5q0 -147 52 -224t151 -77q73 0 117 42t53 119l193 1q-8 -139 -109 -223t-260 -84q-186 0 -293.5 118t-107.5 322z" />
<glyph unicode="&#xaa;" horiz-adv-x="793" d="M53 877q0 76 43 121.5t152 78.5q40 13 103 29q112 29 112 63q0 66 -40 102t-114 36q-50 0 -88.5 -19t-60.5 -53h-8l-23 80q52 48 124.5 74t152.5 26q136 0 206 -59.5t70 -175.5v-4l-2 -252v-50q0 -52 13.5 -74t43.5 -22q11 0 25 3t31 10l4 -52q-38 -27 -83.5 -42 t-88.5 -15q-52 0 -91.5 21.5t-60.5 60.5q-37 -42 -88.5 -62t-122.5 -20q-98 0 -153.5 51.5t-55.5 143.5zM270 907q0 -48 25 -77t65 -29q51 0 75 29t24 90v147q-96 -14 -142.5 -53t-46.5 -107z" />
<glyph unicode="&#xab;" horiz-adv-x="944" d="M61 500l349 483l79 -84l-198 -393l198 -412l-79 -78zM434 500l348 483l80 -84l-198 -393l200 -412l-82 -78z" />
<glyph unicode="&#xac;" horiz-adv-x="1706" d="M254 668v196h1198v-502h-199v306h-999z" />
<glyph unicode="&#xad;" horiz-adv-x="674" d="M90 371v6q4 88 4 125q0 38 -3 119q-1 8 -1 12h491l-3 -77l-3 -54q0 -21 2 -54t4 -77h-491z" />
<glyph unicode="&#xae;" horiz-adv-x="1706" d="M111 733q0 102 27 198.5t81 188.5q101 170 267 264.5t366 94.5q154 0 290.5 -57.5t243.5 -166.5q103 -104 157 -238t54 -284q0 -152 -56 -287.5t-163 -238.5q-107 -105 -243.5 -161t-282.5 -56q-149 0 -285 58t-243 167q-104 105 -158.5 238.5t-54.5 279.5zM233 735 q0 -124 46 -235.5t133 -198.5q89 -91 203 -139.5t237 -48.5q120 0 233.5 47t206.5 135q87 84 135 196t48 232q0 133 -44.5 245t-132.5 201q-90 93 -202.5 140t-241.5 47q-127 0 -236 -44.5t-196 -131.5q-91 -91 -140 -206.5t-49 -238.5zM545 336v825h323q176 0 264.5 -59.5 t88.5 -177.5q0 -82 -48 -140t-133 -79l185 -369h-224l-157 338h-99v-338h-200zM745 795h99q88 0 129 28t41 88q0 63 -44 93t-136 30h-89v-239z" />
<glyph unicode="&#xaf;" horiz-adv-x="1024" d="M205 1235v168h614v-168h-614z" />
<glyph unicode="&#xb0;" horiz-adv-x="674" d="M35 1159q0 127 88.5 216t214.5 89t214.5 -89.5t88.5 -215.5q0 -125 -89 -214t-216 -89q-126 0 -213.5 88t-87.5 215zM162 1161q0 -74 51 -125t125 -51q72 0 123 52t51 124t-51 123t-123 51q-73 0 -124.5 -51t-51.5 -123z" />
<glyph unicode="&#xb1;" horiz-adv-x="1706" d="M254 -2v199h1198v-199h-1198zM254 698v199h498v326h202v-326h498v-199h-498v-325h-202v325h-498z" />
<glyph unicode="&#xb2;" horiz-adv-x="741" d="M35 600q235 172 317 283t82 237q0 78 -27.5 115t-84.5 37q-60 0 -97.5 -45t-54.5 -137h-16q-27 36 -53 63t-56 49q61 78 140.5 114t191.5 36q140 0 215.5 -61t75.5 -173q0 -145 -345 -394l-22 -15q16 0 48 -1t48 -1q94 0 283 7l18 1q-8 -37 -11 -56.5t-3 -31.5 q0 -14 3 -34t11 -60q-97 3 -177 4.5t-144 1.5t-147 -1.5t-185 -4.5z" />
<glyph unicode="&#xb3;" horiz-adv-x="741" d="M31 586l9 14q69 105 97 158h14q2 -91 36 -134.5t104 -43.5q72 0 110.5 45.5t38.5 130.5q0 80 -40 119.5t-119 39.5h-52v74q5 0 17 -1t18 -1q86 0 128 38t42 116q0 70 -31.5 106.5t-91.5 36.5q-57 0 -94 -43t-37 -113v-16l-10 -6q-34 36 -65.5 64t-63.5 53q51 63 133 96 t191 33q129 0 201.5 -52t72.5 -145q0 -66 -43.5 -109t-144.5 -75v-10q114 -14 168.5 -60.5t54.5 -130.5q0 -119 -95.5 -188.5t-259.5 -69.5q-91 0 -162 18t-126 56z" />
<glyph unicode="&#xb4;" horiz-adv-x="1024" d="M299 1135l279 297q52 54 86 74t69 20q47 0 79 -31.5t32 -77.5q0 -35 -24.5 -63t-80.5 -56l-336 -163h-104z" />
<glyph unicode="&#xb5;" horiz-adv-x="1249" d="M-63 -438l268 1530h289l-76 -435q-15 -80 -23 -151.5t-8 -116.5q0 -93 42 -138.5t128 -45.5q100 0 155.5 82t92.5 291l90 514h289l-193 -1092h-268l18 117q-42 -78 -93.5 -114t-121.5 -36q-67 0 -119 29.5t-94 91.5l-90 -526h-286z" />
<glyph unicode="&#xb6;" horiz-adv-x="1024" d="M41 1130q0 158 107 253.5t284 95.5h551v-111h-113v-1368h-151v1368h-158v-1368h-153v784q-167 6 -267 101t-100 245z" />
<glyph unicode="&#xb7;" horiz-adv-x="561" d="M106 678q0 72 50.5 122t124.5 50q72 0 123 -50t51 -122q0 -73 -51.5 -124.5t-122.5 -51.5q-73 0 -124 51t-51 125z" />
<glyph unicode="&#xb8;" horiz-adv-x="1024" d="M244 -397l35 90q83 -25 139 -36t94 -11q58 0 83.5 18t25.5 60q0 40 -23 60.5t-68 20.5q-15 0 -55 -6q-5 -1 -8 -2v203h88v-114q9 0 20 0.5t31 0.5q100 0 151.5 -42t51.5 -124q0 -88 -60.5 -138t-166.5 -50q-90 0 -176 18t-162 52z" />
<glyph unicode="&#xb9;" horiz-adv-x="741" d="M53 1212q96 29 197 70t219 98l26 -14q-2 -192 -4 -321.5t-2 -192.5q0 -97 2.5 -174t8.5 -145q-36 3 -66.5 4.5t-54.5 1.5q-22 0 -52.5 -2t-66.5 -4q7 58 10.5 192.5t3.5 361.5q0 29 -3 99q0 12 -1 18q-38 -13 -78 -31t-79 -40z" />
<glyph unicode="&#xba;" horiz-adv-x="870" d="M35 1049q0 172 106.5 270t294.5 98q191 0 295.5 -96.5t104.5 -271.5q0 -174 -106.5 -270.5t-295.5 -96.5t-294 96.5t-105 270.5zM293 1049q0 -165 32.5 -231t110.5 -66q79 0 112.5 66t33.5 231q0 164 -33.5 230.5t-112.5 66.5q-78 0 -110.5 -66t-32.5 -231z" />
<glyph unicode="&#xbb;" horiz-adv-x="944" d="M84 905l82 78l346 -483l-346 -484l-80 86l199 394zM459 102l198 394l-198 409l80 78l348 -483l-348 -484z" />
<glyph unicode="&#xbc;" horiz-adv-x="1757" d="M51 1221q91 27 187.5 65t207.5 90l27 -12q-3 -182 -4.5 -301t-1.5 -178q0 -93 2.5 -165t7.5 -134q-34 3 -63 4.5t-52 1.5q-21 0 -50 -1.5t-64 -4.5q7 53 10.5 179.5t3.5 338.5q0 28 -3 95q-1 9 -1 13q-36 -12 -73 -29l-79 -38zM367 -190l899 1712h125l-899 -1712h-125z M1092 176v84v57l166 219l166 228q30 -3 55 -4.5t45 -1.5q19 0 45 1.5t55 4.5q-6 -68 -9 -143.5t-3 -171.5v-138q24 0 50 2.5t58 7.5q-3 -24 -4.5 -42.5t-1.5 -28.5q0 -12 1.5 -30.5t4.5 -43.5q-23 4 -50 6t-60 2v-34q0 -46 3 -80.5t9 -69.5q-33 3 -60.5 4.5t-48.5 1.5 q-16 0 -39.5 -1.5t-57.5 -4.5q4 47 6.5 84t2.5 68v32q-27 1 -57.5 1.5t-77.5 0.5q-29 0 -175 -8zM1186 311h239v320z" />
<glyph unicode="&#xbd;" horiz-adv-x="1757" d="M51 1221q91 27 187.5 65t207.5 90l27 -12q-3 -182 -4.5 -301t-1.5 -178q0 -93 2.5 -165t7.5 -134q-34 3 -63 4.5t-52 1.5q-21 0 -50 -1.5t-64 -4.5q7 53 10.5 179.5t3.5 338.5q0 28 -3 95q-1 9 -1 13q-36 -12 -73 -29l-79 -38zM367 -190l899 1712h125l-899 -1712h-125z M1083 63q226 163 303.5 265.5t77.5 220.5q0 73 -25.5 107t-80.5 34q-58 0 -94 -42.5t-52 -127.5h-16q-26 35 -50.5 60t-51.5 45q59 73 135.5 107t181.5 34q132 0 204.5 -57.5t72.5 -161.5q0 -135 -328 -367l-23 -16h93q70 0 141.5 1.5t146.5 4.5q-7 -24 -10.5 -45t-3.5 -37 q0 -20 3.5 -41.5t10.5 -46.5q-93 3 -170 4.5t-137 1.5q-63 0 -141.5 -1.5t-175.5 -4.5z" />
<glyph unicode="&#xbe;" horiz-adv-x="1759" d="M29 637l14 21q63 90 88 137h14q0 -82 33 -123t98 -41q70 0 107 41.5t37 120.5q0 75 -38 113t-114 38q-20 0 -30.5 -0.5t-18.5 -0.5v69q5 0 16.5 -1t16.5 -1q81 0 121.5 36t40.5 107q0 66 -30 99.5t-87 33.5q-55 0 -90 -39.5t-35 -103.5v-17l-10 -6q-31 33 -61 60t-60 51 q48 58 125.5 88.5t179.5 30.5q125 0 193.5 -48.5t68.5 -136.5q0 -61 -41.5 -101.5t-136.5 -70.5v-8q110 -14 161.5 -56.5t51.5 -119.5q0 -112 -90.5 -177t-247.5 -65q-88 0 -155.5 17t-120.5 53zM367 -190l899 1712h125l-899 -1712h-125zM1092 176v84v57l166 219l166 228 q30 -3 55 -4.5t45 -1.5q19 0 45 1.5t55 4.5q-6 -68 -9 -143.5t-3 -171.5v-138q24 0 50 2.5t58 7.5q-3 -24 -4.5 -42.5t-1.5 -28.5q0 -12 1.5 -30.5t4.5 -43.5q-23 4 -50 6t-60 2v-34q0 -46 3 -80.5t9 -69.5q-33 3 -60.5 4.5t-48.5 1.5q-16 0 -39.5 -1.5t-57.5 -4.5 q4 47 6.5 84t2.5 68v32q-27 1 -57.5 1.5t-77.5 0.5q-29 0 -175 -8zM1186 311h239v320z" />
<glyph unicode="&#xbf;" horiz-adv-x="895" d="M104 289q0 91 36 156.5t179 185.5q73 61 93 93t20 69q0 39 -25.5 62.5t-68.5 23.5q-21 0 -45.5 -4t-54.5 -12l14 58l10 46q28 10 60.5 15t76.5 5q133 0 216 -78t83 -198q0 -114 -145 -258q-12 -12 -18 -19q-83 -85 -105 -123.5t-22 -77.5q0 -56 39 -93.5t98 -37.5 q60 0 107 34.5t79 101.5l31 -7v-41q0 -36 2 -68t6 -61q-63 -43 -135.5 -64.5t-155.5 -21.5q-172 0 -273.5 85t-101.5 229zM291 1245q0 75 52.5 127.5t125.5 52.5q74 0 126 -52.5t52 -127.5q0 -74 -51.5 -126t-126.5 -52q-74 0 -126 51.5t-52 126.5z" />
<glyph unicode="&#xc0;" horiz-adv-x="1245" d="M-45 0q161 360 303.5 715.5t267.5 709.5h6q68 -8 99 -8q25 0 82 6q15 2 22 2q128 -374 262 -728l276 -697q-65 3 -114.5 4.5t-83.5 1.5q-45 0 -95.5 -1.5t-108.5 -4.5l-59 187l-64 204q-19 1 -96.5 3.5t-125.5 2.5q-15 0 -88.5 -2.5t-132.5 -3.5l-129 -380l-4 -11 q-37 3 -61.5 4.5t-38.5 1.5q-25 0 -54.5 -1.5t-62.5 -4.5zM291 1818q0 46 32 77.5t79 31.5q35 0 69 -20t86 -74l279 -297h-104l-336 163q-56 28 -80.5 56t-24.5 63zM367 559q7 0 23 -1q98 -3 140 -3q48 0 155 4h11q-32 104 -72.5 212t-91.5 222q-49 -117 -90.5 -226 t-74.5 -208z" />
<glyph unicode="&#xc1;" horiz-adv-x="1245" d="M-45 0q161 360 303.5 715.5t267.5 709.5h6q68 -8 99 -8q25 0 82 6q15 2 22 2q128 -374 262 -728l276 -697q-65 3 -114.5 4.5t-83.5 1.5q-45 0 -95.5 -1.5t-108.5 -4.5l-59 187l-64 204q-19 1 -96.5 3.5t-125.5 2.5q-15 0 -88.5 -2.5t-132.5 -3.5l-129 -380l-4 -11 q-37 3 -61.5 4.5t-38.5 1.5q-25 0 -54.5 -1.5t-62.5 -4.5zM367 559q7 0 23 -1q98 -3 140 -3q48 0 155 4h11q-32 104 -72.5 212t-91.5 222q-49 -117 -90.5 -226t-74.5 -208zM410 1536l279 297q52 54 86 74t69 20q47 0 79 -31.5t32 -77.5q0 -35 -24.5 -63t-80.5 -56l-336 -163 h-104z" />
<glyph unicode="&#xc2;" horiz-adv-x="1245" d="M-45 0q161 360 303.5 715.5t267.5 709.5h6q68 -8 99 -8q25 0 82 6q15 2 22 2q128 -374 262 -728l276 -697q-65 3 -114.5 4.5t-83.5 1.5q-45 0 -95.5 -1.5t-108.5 -4.5l-59 187l-64 204q-19 1 -96.5 3.5t-125.5 2.5q-15 0 -88.5 -2.5t-132.5 -3.5l-129 -380l-4 -11 q-37 3 -61.5 4.5t-38.5 1.5q-25 0 -54.5 -1.5t-62.5 -4.5zM301 1536l230 370h184l230 -370h-101l-221 182l-221 -182h-101zM367 559q7 0 23 -1q98 -3 140 -3q48 0 155 4h11q-32 104 -72.5 212t-91.5 222q-49 -117 -90.5 -226t-74.5 -208z" />
<glyph unicode="&#xc3;" horiz-adv-x="1245" d="M-45 0q161 360 303.5 715.5t267.5 709.5h6q68 -8 99 -8q25 0 82 6q15 2 22 2q128 -374 262 -728l276 -697q-65 3 -114.5 4.5t-83.5 1.5q-45 0 -95.5 -1.5t-108.5 -4.5l-59 187l-64 204q-19 1 -96.5 3.5t-125.5 2.5q-15 0 -88.5 -2.5t-132.5 -3.5l-129 -380l-4 -11 q-37 3 -61.5 4.5t-38.5 1.5q-25 0 -54.5 -1.5t-62.5 -4.5zM295 1566q27 136 84 201.5t148 65.5q25 0 73 -12q2 0 5 -1l122 -30q3 -1 11 -3q25 -6 37 -6q40 0 64.5 21t41.5 72h68q-29 -138 -85.5 -201.5t-148.5 -63.5q-16 0 -32.5 2t-30.5 7l-117 32q-22 6 -38 8t-32 3 q-38 0 -65 -25t-37 -70h-68zM367 559q7 0 23 -1q98 -3 140 -3q48 0 155 4h11q-32 104 -72.5 212t-91.5 222q-49 -117 -90.5 -226t-74.5 -208z" />
<glyph unicode="&#xc4;" horiz-adv-x="1245" d="M-45 0q161 360 303.5 715.5t267.5 709.5h6q68 -8 99 -8q25 0 82 6q15 2 22 2q128 -374 262 -728l276 -697q-65 3 -114.5 4.5t-83.5 1.5q-45 0 -95.5 -1.5t-108.5 -4.5l-59 187l-64 204q-19 1 -96.5 3.5t-125.5 2.5q-15 0 -88.5 -2.5t-132.5 -3.5l-129 -380l-4 -11 q-37 3 -61.5 4.5t-38.5 1.5q-25 0 -54.5 -1.5t-62.5 -4.5zM283 1722q0 56 44 98.5t101 42.5q60 0 101 -41t41 -100q0 -63 -40 -104t-102 -41q-59 0 -102 42.5t-43 102.5zM367 559q7 0 23 -1q98 -3 140 -3q48 0 155 4h11q-32 104 -72.5 212t-91.5 222q-49 -117 -90.5 -226 t-74.5 -208zM674 1722q0 56 43 98.5t101 42.5q59 0 101 -41t42 -100q0 -63 -41 -104t-102 -41q-60 0 -102 42.5t-42 102.5z" />
<glyph unicode="&#xc5;" horiz-adv-x="1245" d="M-45 0q161 360 303.5 715.5t267.5 709.5h6q68 -8 99 -8q25 0 82 6q15 2 22 2l273 -754l265 -671q-65 3 -114.5 4.5t-83.5 1.5q-45 0 -95.5 -1.5t-108.5 -4.5l-59 187l-64 204q-19 1 -96.5 3.5t-125.5 2.5q-15 0 -88.5 -2.5t-132.5 -3.5l-129 -380l-4 -11q-37 3 -61.5 4.5 t-38.5 1.5q-25 0 -54.5 -1.5t-62.5 -4.5zM362 1714q0 108 81.5 182t199.5 74q109 0 179.5 -67t70.5 -170q0 -108 -78.5 -182t-193.5 -74q-113 0 -186 67t-73 170zM367 559q7 0 23 -1q98 -3 140 -3q48 0 155 4h11q-32 104 -72.5 212t-91.5 222q-49 -117 -90.5 -226 t-74.5 -208zM479 1706q0 -77 39 -120.5t107 -43.5q71 0 111 51t40 142q0 78 -38.5 124t-104.5 46q-72 0 -113 -52.5t-41 -146.5z" />
<glyph unicode="&#xc6;" horiz-adv-x="1726" d="M-73 0q80 126 171 293l5 9l458 835l87 159q47 87 54 101q15 -1 45 -2q239 -9 396 -9q89 0 203.5 2.5t277.5 7.5l-3 -24q-5 -49 -5 -67t5 -63l3 -27q-107 8 -193.5 12t-160.5 4q-17 0 -49.5 -1t-48.5 -1q-6 -60 -8.5 -132t-2.5 -169l1 -111q85 3 198 8l248 11 q-1 -20 -3.5 -53t-2.5 -44q0 -9 2.5 -40.5t2.5 -53.5q-106 7 -214 11.5t-230 6.5v-223q0 -126 2 -179t6 -93q105 0 215.5 6t231.5 19q-4 -26 -6 -51t-2 -48q0 -13 4 -59q3 -23 3 -35q-84 1 -228 4q-232 4 -297 4q-81 0 -151 -2.5t-136 -7.5q8 54 12 109t4 114v191h-471 l-108 -240q-27 -60 -41 -98.5t-23 -73.5q-22 1 -48.5 1.5t-78.5 0.5t-78 -0.5t-46 -1.5zM422 557q8 0 25 -1q124 -3 178 -3q26 0 116 4q51 3 80 4v692h-22z" />
<glyph unicode="&#xc7;" horiz-adv-x="1352" d="M63 705q0 333 213 527.5t580 194.5q127 0 245.5 -27t235.5 -83q-22 -65 -38.5 -127t-28.5 -123h-31q-42 108 -132 163.5t-224 55.5q-212 0 -332.5 -145t-120.5 -400q0 -304 119 -461t348 -157q131 0 230.5 43t158.5 125l31 -15q-15 -56 -27 -107.5t-20 -100.5 q-91 -49 -200 -73t-239 -24q-363 0 -565.5 193t-202.5 541zM531 -397l35 90q83 -25 139 -36t94 -11q58 0 83.5 18t25.5 60q0 40 -23 60.5t-68 20.5q-15 0 -55 -6q-5 -1 -8 -2v203h88v-114q9 0 20 0.5t31 0.5q100 0 151.5 -42t51.5 -124q0 -88 -60.5 -138t-166.5 -50 q-90 0 -176 18t-162 52z" />
<glyph unicode="&#xc8;" horiz-adv-x="1055" d="M137 1399q204 -7 281.5 -8.5t118.5 -1.5q72 0 173.5 2t257.5 8q0 -8 -2 -25q-5 -49 -5 -67t5 -63l3 -27q-80 7 -160.5 10.5t-163.5 3.5q-56 0 -83 -0.5t-49 -1.5q-4 -76 -5.5 -151.5t-1.5 -149.5v-108q84 2 196 6.5t252 11.5q-4 -28 -6 -53t-2 -44q0 -12 4 -52 q3 -26 4 -42q-115 8 -227 12.5t-221 5.5v-223q0 -92 2.5 -156.5t8.5 -115.5q114 0 224 5.5t221 16.5q-3 -20 -4.5 -41t-1.5 -55q0 -13 2 -38t4 -58q-226 6 -337 8t-176 2q-78 0 -155.5 -2.5t-155.5 -7.5q13 110 19.5 234.5t6.5 322.5v141v86q0 226 -6.5 361.5t-20.5 253.5z M221 1818q0 46 32 77.5t79 31.5q35 0 69 -20t86 -74l279 -297h-104l-336 163q-56 28 -80.5 56t-24.5 63z" />
<glyph unicode="&#xc9;" horiz-adv-x="1055" d="M137 1399q204 -7 281.5 -8.5t118.5 -1.5q72 0 173.5 2t257.5 8q0 -8 -2 -25q-5 -49 -5 -67t5 -63l3 -27q-80 7 -160.5 10.5t-163.5 3.5q-56 0 -83 -0.5t-49 -1.5q-4 -76 -5.5 -151.5t-1.5 -149.5v-108q84 2 196 6.5t252 11.5q-4 -28 -6 -53t-2 -44q0 -12 4 -52 q3 -26 4 -42q-115 8 -227 12.5t-221 5.5v-223q0 -92 2.5 -156.5t8.5 -115.5q114 0 224 5.5t221 16.5q-3 -20 -4.5 -41t-1.5 -55q0 -13 2 -38t4 -58q-226 6 -337 8t-176 2q-78 0 -155.5 -2.5t-155.5 -7.5q13 110 19.5 234.5t6.5 322.5v141v86q0 226 -6.5 361.5t-20.5 253.5z M340 1536l279 297q52 54 86 74t69 20q47 0 79 -31.5t32 -77.5q0 -35 -24.5 -63t-80.5 -56l-336 -163h-104z" />
<glyph unicode="&#xca;" horiz-adv-x="1055" d="M137 1399q204 -7 281.5 -8.5t118.5 -1.5q72 0 173.5 2t257.5 8q0 -8 -2 -25q-5 -49 -5 -67t5 -63l3 -27q-80 7 -160.5 10.5t-163.5 3.5q-56 0 -83 -0.5t-49 -1.5q-4 -76 -5.5 -151.5t-1.5 -149.5v-108q84 2 196 6.5t252 11.5q-4 -28 -6 -53t-2 -44q0 -12 4 -52 q3 -26 4 -42q-115 8 -227 12.5t-221 5.5v-223q0 -92 2.5 -156.5t8.5 -115.5q114 0 224 5.5t221 16.5q-3 -20 -4.5 -41t-1.5 -55q0 -13 2 -38t4 -58q-226 6 -337 8t-176 2q-78 0 -155.5 -2.5t-155.5 -7.5q13 110 19.5 234.5t6.5 322.5v141v86q0 226 -6.5 361.5t-20.5 253.5z M231 1536l230 370h184l230 -370h-101l-221 182l-221 -182h-101z" />
<glyph unicode="&#xcb;" horiz-adv-x="1055" d="M137 1399q204 -7 281.5 -8.5t118.5 -1.5q72 0 173.5 2t257.5 8q0 -8 -2 -25q-5 -49 -5 -67t5 -63l3 -27q-80 7 -160.5 10.5t-163.5 3.5q-56 0 -83 -0.5t-49 -1.5q-4 -76 -5.5 -151.5t-1.5 -149.5v-108q84 2 196 6.5t252 11.5q-4 -28 -6 -53t-2 -44q0 -12 4 -52 q3 -26 4 -42q-115 8 -227 12.5t-221 5.5v-223q0 -92 2.5 -156.5t8.5 -115.5q114 0 224 5.5t221 16.5q-3 -20 -4.5 -41t-1.5 -55q0 -13 2 -38t4 -58q-226 6 -337 8t-176 2q-78 0 -155.5 -2.5t-155.5 -7.5q13 110 19.5 234.5t6.5 322.5v141v86q0 226 -6.5 361.5t-20.5 253.5z M213 1722q0 56 44 98.5t101 42.5q60 0 101 -41t41 -100q0 -63 -40 -104t-102 -41q-59 0 -102 42.5t-43 102.5zM604 1722q0 56 43 98.5t101 42.5q59 0 101 -41t42 -100q0 -63 -41 -104t-102 -41q-60 0 -102 42.5t-42 102.5z" />
<glyph unicode="&#xcc;" horiz-adv-x="674" d="M6 1818q0 46 32 77.5t79 31.5q35 0 69 -20t86 -74l279 -297h-104l-336 163q-56 28 -80.5 56t-24.5 63zM143 0q13 154 19 309t6 389q0 201 -6 370t-19 331q82 -9 125 -12t76 -3q22 0 59.5 3t124.5 12q-11 -151 -16.5 -312t-5.5 -389v-80q0 -189 5.5 -333.5t16.5 -284.5 q-74 5 -122.5 7.5t-83.5 2.5q-18 0 -51 -1.5t-128 -8.5z" />
<glyph unicode="&#xcd;" horiz-adv-x="674" d="M125 1536l279 297q52 54 86 74t69 20q47 0 79 -31.5t32 -77.5q0 -35 -24.5 -63t-80.5 -56l-336 -163h-104zM143 0q13 154 19 309t6 389q0 201 -6 370t-19 331q82 -9 125 -12t76 -3q22 0 59.5 3t124.5 12q-11 -151 -16.5 -312t-5.5 -389v-80q0 -189 5.5 -333.5 t16.5 -284.5q-74 5 -122.5 7.5t-83.5 2.5q-18 0 -51 -1.5t-128 -8.5z" />
<glyph unicode="&#xce;" horiz-adv-x="674" d="M16 1536l230 370h184l230 -370h-101l-221 182l-221 -182h-101zM143 0q13 154 19 309t6 389q0 201 -6 370t-19 331q82 -9 125 -12t76 -3q22 0 59.5 3t124.5 12q-11 -151 -16.5 -312t-5.5 -389v-80q0 -189 5.5 -333.5t16.5 -284.5q-74 5 -122.5 7.5t-83.5 2.5 q-18 0 -51 -1.5t-128 -8.5z" />
<glyph unicode="&#xcf;" horiz-adv-x="674" d="M-2 1722q0 56 44 98.5t101 42.5q60 0 101 -41t41 -100q0 -63 -40 -104t-102 -41q-59 0 -102 42.5t-43 102.5zM143 0q13 154 19 309t6 389q0 201 -6 370t-19 331q82 -9 125 -12t76 -3q22 0 59.5 3t124.5 12q-11 -151 -16.5 -312t-5.5 -389v-80q0 -189 5.5 -333.5 t16.5 -284.5q-74 5 -122.5 7.5t-83.5 2.5q-18 0 -51 -1.5t-128 -8.5zM389 1722q0 56 43 98.5t101 42.5q59 0 101 -41t42 -100q0 -63 -41 -104t-102 -41q-60 0 -102 42.5t-42 102.5z" />
<glyph unicode="&#xd0;" horiz-adv-x="1561" d="M0 685v142q39 -4 71 -6t62 -2h35v86q0 125 -6 247.5t-18 244.5q40 -3 84 -4.5t89 -1.5q81 0 200.5 4t158.5 4q254 0 361.5 -19.5t185.5 -64.5q134 -78 201 -223.5t67 -360.5q0 -365 -210 -548t-630 -183q-64 0 -176 2t-160 2q-34 0 -73.5 -1t-97.5 -3q13 119 19.5 251 t6.5 281q0 65 -0.5 98t-1.5 62q-8 1 -18.5 1.5t-28.5 0.5q-30 0 -60.5 -2.5t-60.5 -6.5zM506 819q125 2 192.5 4t112.5 4v-143q-92 4 -164.5 6t-140.5 2q0 -136 1.5 -270.5t4.5 -267.5q32 -7 63 -10t60 -3q242 0 364.5 144.5t122.5 429.5q0 290 -112 417.5t-375 127.5 q-44 0 -70 -0.5t-51 -2.5q-1 -107 -4.5 -258t-3.5 -180z" />
<glyph unicode="&#xd1;" horiz-adv-x="1516" d="M131 0q12 153 17.5 314t5.5 384q0 139 -5 315.5t-14 384.5q53 -5 83.5 -7t51.5 -2q23 0 52.5 2t80.5 8q186 -240 382 -467t403 -443v385q0 165 -3.5 284t-10.5 241q36 -5 62 -7.5t44 -2.5q17 0 56 4l58 6q-15 -113 -21.5 -304t-6.5 -565v-98q0 -152 4 -250.5t12 -181.5 q-49 6 -75.5 8t-46.5 2q-21 0 -48.5 -2t-74.5 -8l-387 468l-416 460v-566q0 -60 2 -154t6 -208q-37 5 -63 7.5t-46 2.5q-13 0 -35 -2t-67 -8zM430 1566q27 136 84 201.5t148 65.5q25 0 73 -12q2 0 5 -1l122 -30q3 -1 11 -3q25 -6 37 -6q40 0 64.5 21t41.5 72h68 q-29 -138 -85.5 -201.5t-148.5 -63.5q-16 0 -32.5 2t-30.5 7l-117 32q-22 6 -38 8t-32 3q-38 0 -65 -25t-37 -70h-68z" />
<glyph unicode="&#xd2;" horiz-adv-x="1696" d="M61 680q0 352 213 548.5t592 196.5q366 0 566 -181.5t200 -512.5q0 -359 -210 -557.5t-593 -198.5q-370 0 -569 182t-199 523zM432 698q0 -277 110.5 -433t305.5 -156q191 0 302.5 157.5t111.5 431.5q0 279 -110.5 436.5t-303.5 157.5q-194 0 -305 -158t-111 -436z M516 1818q0 46 32 77.5t79 31.5q35 0 69 -20t86 -74l279 -297h-104l-336 163q-56 28 -80.5 56t-24.5 63z" />
<glyph unicode="&#xd3;" horiz-adv-x="1696" d="M61 680q0 352 213 548.5t592 196.5q366 0 566 -181.5t200 -512.5q0 -359 -210 -557.5t-593 -198.5q-370 0 -569 182t-199 523zM432 698q0 -277 110.5 -433t305.5 -156q191 0 302.5 157.5t111.5 431.5q0 279 -110.5 436.5t-303.5 157.5q-194 0 -305 -158t-111 -436z M635 1536l279 297q52 54 86 74t69 20q47 0 79 -31.5t32 -77.5q0 -35 -24.5 -63t-80.5 -56l-336 -163h-104z" />
<glyph unicode="&#xd4;" horiz-adv-x="1696" d="M61 680q0 352 213 548.5t592 196.5q366 0 566 -181.5t200 -512.5q0 -359 -210 -557.5t-593 -198.5q-370 0 -569 182t-199 523zM432 698q0 -277 110.5 -433t305.5 -156q191 0 302.5 157.5t111.5 431.5q0 279 -110.5 436.5t-303.5 157.5q-194 0 -305 -158t-111 -436z M526 1536l230 370h184l230 -370h-101l-221 182l-221 -182h-101z" />
<glyph unicode="&#xd5;" horiz-adv-x="1696" d="M61 680q0 352 213 548.5t592 196.5q366 0 566 -181.5t200 -512.5q0 -359 -210 -557.5t-593 -198.5q-370 0 -569 182t-199 523zM432 698q0 -277 110.5 -433t305.5 -156q191 0 302.5 157.5t111.5 431.5q0 279 -110.5 436.5t-303.5 157.5q-194 0 -305 -158t-111 -436z M520 1566q27 136 84 201.5t148 65.5q25 0 73 -12q2 0 5 -1l122 -30q3 -1 11 -3q25 -6 37 -6q40 0 64.5 21t41.5 72h68q-29 -138 -85.5 -201.5t-148.5 -63.5q-16 0 -32.5 2t-30.5 7l-117 32q-22 6 -38 8t-32 3q-38 0 -65 -25t-37 -70h-68z" />
<glyph unicode="&#xd6;" horiz-adv-x="1696" d="M61 680q0 352 213 548.5t592 196.5q366 0 566 -181.5t200 -512.5q0 -359 -210 -557.5t-593 -198.5q-370 0 -569 182t-199 523zM432 698q0 -277 110.5 -433t305.5 -156q191 0 302.5 157.5t111.5 431.5q0 279 -110.5 436.5t-303.5 157.5q-194 0 -305 -158t-111 -436z M508 1722q0 56 44 98.5t101 42.5q60 0 101 -41t41 -100q0 -63 -40 -104t-102 -41q-59 0 -102 42.5t-43 102.5zM899 1722q0 56 43 98.5t101 42.5q59 0 101 -41t42 -100q0 -63 -41 -104t-102 -41q-60 0 -102 42.5t-42 102.5z" />
<glyph unicode="&#xd7;" horiz-adv-x="1706" d="M276 160l451 450l-451 453l140 139l450 -450l451 450l141 -139l-450 -453l450 -450l-141 -140l-451 451l-450 -451z" />
<glyph unicode="&#xd8;" horiz-adv-x="1696" d="M57 678q0 348 211 547.5t578 199.5q146 0 262.5 -25.5t208.5 -78.5l104 122q48 58 80 103l107 -102q-39 -31 -85.5 -80.5t-97.5 -114.5q104 -90 155.5 -219t51.5 -299q0 -358 -210 -557t-586 -199q-126 0 -237 23.5t-206 69.5q-62 -66 -106.5 -120t-75.5 -102l-109 103 q32 26 78 75l103 115q-112 96 -169 232.5t-57 306.5zM430 680q0 -97 14 -173.5t41 -133.5l666 764q-63 80 -136.5 117.5t-164.5 37.5q-198 0 -309 -161.5t-111 -450.5zM555 250q51 -69 126 -105t167 -36q193 0 304.5 158.5t111.5 439.5q0 95 -11.5 168.5t-35.5 134.5z" />
<glyph unicode="&#xd9;" horiz-adv-x="1497" d="M123 1398q66 -5 112 -7t80 -2q32 0 75.5 2t117.5 8q-14 -152 -20.5 -314.5t-6.5 -367.5q0 -341 70 -448t244 -107q98 0 173.5 37.5t118.5 107.5q38 61 54 159t16 304q0 175 -6 332t-18 297q49 -6 76 -8t44 -2q18 0 42.5 2t68.5 7q-9 -133 -13.5 -245t-4.5 -199v-303 q0 -208 -28 -316t-93 -183q-79 -90 -199.5 -134.5t-284.5 -44.5q-180 0 -309.5 49.5t-198.5 143.5q-50 69 -71 178t-21 346v178v72q0 137 -4.5 245.5t-13.5 212.5zM454 1818q0 46 32 77.5t79 31.5q35 0 69 -20t86 -74l279 -297h-104l-336 163q-56 28 -80.5 56t-24.5 63z" />
<glyph unicode="&#xda;" horiz-adv-x="1497" d="M123 1398q66 -5 112 -7t80 -2q32 0 75.5 2t117.5 8q-14 -152 -20.5 -314.5t-6.5 -367.5q0 -341 70 -448t244 -107q98 0 173.5 37.5t118.5 107.5q38 61 54 159t16 304q0 175 -6 332t-18 297q49 -6 76 -8t44 -2q18 0 42.5 2t68.5 7q-9 -133 -13.5 -245t-4.5 -199v-303 q0 -208 -28 -316t-93 -183q-79 -90 -199.5 -134.5t-284.5 -44.5q-180 0 -309.5 49.5t-198.5 143.5q-50 69 -71 178t-21 346v178v72q0 137 -4.5 245.5t-13.5 212.5zM573 1536l279 297q52 54 86 74t69 20q47 0 79 -31.5t32 -77.5q0 -35 -24.5 -63t-80.5 -56l-336 -163h-104z " />
<glyph unicode="&#xdb;" horiz-adv-x="1497" d="M123 1398q66 -5 112 -7t80 -2q32 0 75.5 2t117.5 8q-14 -152 -20.5 -314.5t-6.5 -367.5q0 -341 70 -448t244 -107q98 0 173.5 37.5t118.5 107.5q38 61 54 159t16 304q0 175 -6 332t-18 297q49 -6 76 -8t44 -2q18 0 42.5 2t68.5 7q-9 -133 -13.5 -245t-4.5 -199v-303 q0 -208 -28 -316t-93 -183q-79 -90 -199.5 -134.5t-284.5 -44.5q-180 0 -309.5 49.5t-198.5 143.5q-50 69 -71 178t-21 346v178v72q0 137 -4.5 245.5t-13.5 212.5zM464 1536l230 370h184l230 -370h-101l-221 182l-221 -182h-101z" />
<glyph unicode="&#xdc;" horiz-adv-x="1497" d="M123 1398q66 -5 112 -7t80 -2q32 0 75.5 2t117.5 8q-14 -152 -20.5 -314.5t-6.5 -367.5q0 -341 70 -448t244 -107q98 0 173.5 37.5t118.5 107.5q38 61 54 159t16 304q0 175 -6 332t-18 297q49 -6 76 -8t44 -2q18 0 42.5 2t68.5 7q-9 -133 -13.5 -245t-4.5 -199v-303 q0 -208 -28 -316t-93 -183q-79 -90 -199.5 -134.5t-284.5 -44.5q-180 0 -309.5 49.5t-198.5 143.5q-50 69 -71 178t-21 346v178v72q0 137 -4.5 245.5t-13.5 212.5zM446 1722q0 56 44 98.5t101 42.5q60 0 101 -41t41 -100q0 -63 -40 -104t-102 -41q-59 0 -102 42.5t-43 102.5 zM837 1722q0 56 43 98.5t101 42.5q59 0 101 -41t42 -100q0 -63 -41 -104t-102 -41q-60 0 -102 42.5t-42 102.5z" />
<glyph unicode="&#xdd;" horiz-adv-x="1120" d="M-49 1399q70 -6 119 -8t88 -2q32 0 82.5 2t144.5 8q67 -155 136 -296.5t141 -271.5q74 119 147.5 261.5t144.5 305.5q61 -6 80.5 -7.5t30.5 -1.5q23 0 53 2t75 8q-126 -185 -237 -375.5t-208 -390.5v-103q0 -142 3.5 -274.5t9.5 -255.5q-77 6 -121 8t-75 2q-22 0 -62 -2 t-120 -8q10 118 15 223t5 203q0 57 -3 174l-1 6l-198 367l-20 36q-120 229 -230 390zM348 1536l279 297q52 54 86 74t69 20q47 0 79 -31.5t32 -77.5q0 -35 -24.5 -63t-80.5 -56l-336 -163h-104z" />
<glyph unicode="&#xde;" horiz-adv-x="1202" d="M137 0q13 148 19 301t6 397q0 208 -6 377t-18 326q71 -6 116 -8t78 -2q34 0 79.5 2t114.5 8l-15 -160q-5 -53 -7 -90q87 6 129 8t67 2q226 0 337.5 -93t111.5 -282q0 -222 -141 -332t-426 -110q-32 0 -48 0.5t-30 1.5v-41q0 -27 5 -96t17 -209q-80 6 -123.5 8t-70.5 2 q-28 0 -71.5 -2t-123.5 -8zM502 489q163 0 234 66.5t71 218.5q0 123 -57.5 184.5t-171.5 61.5q-21 0 -38.5 -1t-35.5 -3q-1 -42 -1.5 -88t-0.5 -123v-316z" />
<glyph unicode="&#xdf;" horiz-adv-x="1219" d="M127 0q5 88 7.5 180t2.5 244v104v449q0 301 116 430t378 129q198 0 296.5 -63t98.5 -189q0 -60 -23.5 -110t-78.5 -105l-35 -35q-92 -92 -92 -135q0 -26 15.5 -50t49.5 -50l172 -129q69 -53 100 -117.5t31 -155.5q0 -177 -126.5 -300.5t-315.5 -123.5q-50 0 -88.5 9.5 t-73.5 30.5q11 51 34 171l11 55l23 1q23 -76 65 -111t109 -35q60 0 97.5 38t37.5 99q0 53 -36.5 105t-113.5 108l-98 74q-63 46 -93 97t-30 112q0 103 111 229l16 19q68 77 94.5 136t26.5 128q0 80 -46.5 127t-125.5 47q-95 0 -148 -66.5t-53 -187.5q0 -76 5 -409l11 -750 q-48 3 -88.5 4.5t-72.5 1.5q-30 0 -73 -1.5t-97 -4.5z" />
<glyph unicode="&#xe0;" horiz-adv-x="1057" d="M70 254q0 108 57 173.5t203 113.5q55 18 141 42q145 41 145 91q0 93 -53 143.5t-151 50.5q-68 0 -119.5 -26.5t-79.5 -75.5h-10l-31 115q71 68 167.5 105.5t201.5 37.5q182 0 275 -85t93 -251v-6l-2 -360v-70q0 -75 17.5 -106t58.5 -31q16 0 34.5 4t39.5 12l6 -72 q-53 -40 -113 -62t-119 -22q-67 0 -119 31t-81 88q-50 -61 -119 -90t-162 -29q-131 0 -205.5 74.5t-74.5 204.5zM196 1417q0 46 32 77.5t79 31.5q35 0 69 -20t86 -74l279 -297h-104l-336 163q-56 28 -80.5 56t-24.5 63zM360 297q0 -68 33 -110t86 -42q67 0 99 42t32 128v211 q-127 -20 -188.5 -76.5t-61.5 -152.5z" />
<glyph unicode="&#xe1;" horiz-adv-x="1057" d="M70 254q0 108 57 173.5t203 113.5q55 18 141 42q145 41 145 91q0 93 -53 143.5t-151 50.5q-68 0 -119.5 -26.5t-79.5 -75.5h-10l-31 115q71 68 167.5 105.5t201.5 37.5q182 0 275 -85t93 -251v-6l-2 -360v-70q0 -75 17.5 -106t58.5 -31q16 0 34.5 4t39.5 12l6 -72 q-53 -40 -113 -62t-119 -22q-67 0 -119 31t-81 88q-50 -61 -119 -90t-162 -29q-131 0 -205.5 74.5t-74.5 204.5zM315 1135l279 297q52 54 86 74t69 20q47 0 79 -31.5t32 -77.5q0 -35 -24.5 -63t-80.5 -56l-336 -163h-104zM360 297q0 -68 33 -110t86 -42q67 0 99 42t32 128 v211q-127 -20 -188.5 -76.5t-61.5 -152.5z" />
<glyph unicode="&#xe2;" horiz-adv-x="1057" d="M70 254q0 108 57 173.5t203 113.5q55 18 141 42q145 41 145 91q0 93 -53 143.5t-151 50.5q-68 0 -119.5 -26.5t-79.5 -75.5h-10l-31 115q71 68 167.5 105.5t201.5 37.5q182 0 275 -85t93 -251v-6l-2 -360v-70q0 -75 17.5 -106t58.5 -31q16 0 34.5 4t39.5 12l6 -72 q-53 -40 -113 -62t-119 -22q-67 0 -119 31t-81 88q-50 -61 -119 -90t-162 -29q-131 0 -205.5 74.5t-74.5 204.5zM206 1135l230 370h184l230 -370h-101l-221 182l-221 -182h-101zM360 297q0 -68 33 -110t86 -42q67 0 99 42t32 128v211q-127 -20 -188.5 -76.5t-61.5 -152.5z " />
<glyph unicode="&#xe3;" horiz-adv-x="1057" d="M70 254q0 108 57 173.5t203 113.5q55 18 141 42q145 41 145 91q0 93 -53 143.5t-151 50.5q-68 0 -119.5 -26.5t-79.5 -75.5h-10l-31 115q71 68 167.5 105.5t201.5 37.5q182 0 275 -85t93 -251v-6l-2 -360v-70q0 -75 17.5 -106t58.5 -31q16 0 34.5 4t39.5 12l6 -72 q-53 -40 -113 -62t-119 -22q-67 0 -119 31t-81 88q-50 -61 -119 -90t-162 -29q-131 0 -205.5 74.5t-74.5 204.5zM200 1165q27 136 84 201.5t148 65.5q25 0 73 -12q2 0 5 -1l122 -30q3 -1 11 -3q25 -6 37 -6q40 0 64.5 21t41.5 72h68q-29 -138 -85.5 -201.5t-148.5 -63.5 q-16 0 -32.5 2t-30.5 7l-117 32q-22 6 -38 8t-32 3q-38 0 -65 -25t-37 -70h-68zM360 297q0 -68 33 -110t86 -42q67 0 99 42t32 128v211q-127 -20 -188.5 -76.5t-61.5 -152.5z" />
<glyph unicode="&#xe4;" horiz-adv-x="1057" d="M70 254q0 108 57 173.5t203 113.5q55 18 141 42q145 41 145 91q0 93 -53 143.5t-151 50.5q-68 0 -119.5 -26.5t-79.5 -75.5h-10l-31 115q71 68 167.5 105.5t201.5 37.5q182 0 275 -85t93 -251v-6l-2 -360v-70q0 -75 17.5 -106t58.5 -31q16 0 34.5 4t39.5 12l6 -72 q-53 -40 -113 -62t-119 -22q-67 0 -119 31t-81 88q-50 -61 -119 -90t-162 -29q-131 0 -205.5 74.5t-74.5 204.5zM188 1321q0 56 44 98.5t101 42.5q60 0 101 -41t41 -100q0 -63 -40 -104t-102 -41q-59 0 -102 42.5t-43 102.5zM360 297q0 -68 33 -110t86 -42q67 0 99 42 t32 128v211q-127 -20 -188.5 -76.5t-61.5 -152.5zM579 1321q0 56 43 98.5t101 42.5q59 0 101 -41t42 -100q0 -63 -41 -104t-102 -41q-60 0 -102 42.5t-42 102.5z" />
<glyph unicode="&#xe5;" horiz-adv-x="1057" d="M70 254q0 108 57 173.5t203 113.5q55 18 141 42q145 41 145 91q0 93 -53 143.5t-151 50.5q-68 0 -119.5 -26.5t-79.5 -75.5h-10l-31 115q71 68 167.5 105.5t201.5 37.5q182 0 275 -85t93 -251v-6l-2 -360v-70q0 -75 17.5 -106t58.5 -31q16 0 34.5 4t39.5 12l6 -72 q-53 -40 -113 -62t-119 -22q-67 0 -119 31t-81 88q-50 -61 -119 -90t-162 -29q-131 0 -205.5 74.5t-74.5 204.5zM289 1327q0 109 80.5 182.5t197.5 73.5q109 0 180.5 -67.5t71.5 -169.5q0 -108 -79.5 -182t-194.5 -74q-112 0 -184 67t-72 170zM360 297q0 -68 33 -110t86 -42 q67 0 99 42t32 128v211q-127 -20 -188.5 -76.5t-61.5 -152.5zM403 1319q0 -77 39 -120.5t107 -43.5q71 0 112 51.5t41 141.5q0 78 -38.5 124t-104.5 46q-72 0 -114 -53t-42 -146z" />
<glyph unicode="&#xe6;" horiz-adv-x="1640" d="M70 254q0 108 58 172.5t210 114.5q57 18 144 41q151 41 151 94q0 92 -55 142t-156 50q-70 0 -124 -26.5t-81 -75.5h-10l-31 115q75 68 174 105.5t205 37.5q95 0 164 -24t123 -74q59 50 131.5 74t163.5 24q203 0 312.5 -117.5t109.5 -337.5q0 -28 -0.5 -43t-2.5 -28h-624 v-6q0 -163 86 -256t235 -93q75 0 137 25.5t105 73.5l27 -13q-12 -35 -24 -74l-28 -94q-67 -42 -151 -64t-180 -22q-137 0 -241.5 46.5t-174.5 138.5q-63 -93 -151 -139t-205 -46q-142 0 -219.5 73.5t-77.5 205.5zM360 299q0 -71 35.5 -113.5t93.5 -42.5q74 0 110 43t36 129 v211q-141 -22 -208 -77t-67 -150zM932 616h319v27v21q0 132 -38.5 200t-112.5 68q-81 0 -124.5 -73.5t-43.5 -209.5v-33z" />
<glyph unicode="&#xe7;" horiz-adv-x="991" d="M55 492q0 237 151.5 383.5t397.5 146.5q86 0 168 -16.5t162 -49.5q-16 -60 -28 -124.5t-21 -140.5l-41 -1q-19 102 -71 154.5t-136 52.5q-108 0 -172 -95t-64 -259q0 -203 76 -308.5t223 -105.5q62 0 116 17.5t99 52.5l13 -13q-18 -63 -26.5 -95t-14.5 -60 q-61 -28 -130.5 -42t-150.5 -14q-254 0 -402.5 139t-148.5 378zM228 -397l35 90q83 -25 139 -36t94 -11q58 0 83.5 18t25.5 60q0 40 -23 60.5t-68 20.5q-15 0 -55 -6q-5 -1 -8 -2v203h88v-114q9 0 20 0.5t31 0.5q100 0 151.5 -42t51.5 -124q0 -88 -60.5 -138t-166.5 -50 q-90 0 -176 18t-162 52z" />
<glyph unicode="&#xe8;" horiz-adv-x="1096" d="M66 504q0 236 139.5 379t372.5 143q228 0 340 -114t112 -347q0 -26 -0.5 -40.5t-1.5 -26.5h-625v-6q0 -162 86 -255.5t234 -93.5q76 0 138 25t106 74l26 -13l-23 -75q-13 -39 -28 -93q-70 -43 -155.5 -64.5t-190.5 -21.5q-245 0 -387.5 143t-142.5 386zM217 1417 q0 46 32 77.5t79 31.5q35 0 69 -20t86 -74l279 -297h-104l-336 163q-56 28 -80.5 56t-24.5 63zM403 616h320v27q0 6 1 13l1 8q0 132 -39.5 201t-114.5 69q-80 0 -124 -74t-44 -211v-33z" />
<glyph unicode="&#xe9;" horiz-adv-x="1096" d="M66 504q0 236 139.5 379t372.5 143q228 0 340 -114t112 -347q0 -26 -0.5 -40.5t-1.5 -26.5h-625v-6q0 -162 86 -255.5t234 -93.5q76 0 138 25t106 74l26 -13l-23 -75q-13 -39 -28 -93q-70 -43 -155.5 -64.5t-190.5 -21.5q-245 0 -387.5 143t-142.5 386zM336 1135l279 297 q52 54 86 74t69 20q47 0 79 -31.5t32 -77.5q0 -35 -24.5 -63t-80.5 -56l-336 -163h-104zM403 616h320v27q0 6 1 13l1 8q0 132 -39.5 201t-114.5 69q-80 0 -124 -74t-44 -211v-33z" />
<glyph unicode="&#xea;" horiz-adv-x="1096" d="M66 504q0 236 139.5 379t372.5 143q228 0 340 -114t112 -347q0 -26 -0.5 -40.5t-1.5 -26.5h-625v-6q0 -162 86 -255.5t234 -93.5q76 0 138 25t106 74l26 -13l-23 -75q-13 -39 -28 -93q-70 -43 -155.5 -64.5t-190.5 -21.5q-245 0 -387.5 143t-142.5 386zM227 1135l230 370 h184l230 -370h-101l-221 182l-221 -182h-101zM403 616h320v27q0 6 1 13l1 8q0 132 -39.5 201t-114.5 69q-80 0 -124 -74t-44 -211v-33z" />
<glyph unicode="&#xeb;" horiz-adv-x="1096" d="M66 504q0 236 139.5 379t372.5 143q228 0 340 -114t112 -347q0 -26 -0.5 -40.5t-1.5 -26.5h-625v-6q0 -162 86 -255.5t234 -93.5q76 0 138 25t106 74l26 -13l-23 -75q-13 -39 -28 -93q-70 -43 -155.5 -64.5t-190.5 -21.5q-245 0 -387.5 143t-142.5 386zM209 1321 q0 56 44 98.5t101 42.5q60 0 101 -41t41 -100q0 -63 -40 -104t-102 -41q-59 0 -102 42.5t-43 102.5zM403 616h320v27q0 6 1 13l1 8q0 132 -39.5 201t-114.5 69q-80 0 -124 -74t-44 -211v-33zM600 1321q0 56 43 98.5t101 42.5q59 0 101 -41t42 -100q0 -63 -41 -104t-102 -41 q-60 0 -102 42.5t-42 102.5z" />
<glyph unicode="&#xec;" horiz-adv-x="596" d="M-33 1417q0 46 32 77.5t79 31.5q35 0 69 -20t86 -74l279 -297h-104l-336 163q-56 28 -80.5 56t-24.5 63zM121 999q54 -6 97.5 -9t78.5 -3q36 0 80 3t96 9q-10 -70 -15 -145t-5 -162q0 -34 1 -98t1 -94v-166q0 -130 3.5 -204t12.5 -130q-26 1 -72 4q-78 4 -102 4 q-32 0 -122 -5l-50 -3q9 60 12.5 131.5t3.5 181.5v185v82q0 156 -4.5 249.5t-15.5 169.5z" />
<glyph unicode="&#xed;" horiz-adv-x="596" d="M86 1135l279 297q52 54 86 74t69 20q47 0 79 -31.5t32 -77.5q0 -35 -24.5 -63t-80.5 -56l-336 -163h-104zM121 999q54 -6 97.5 -9t78.5 -3q36 0 80 3t96 9q-10 -70 -15 -145t-5 -162q0 -34 1 -98t1 -94v-166q0 -130 3.5 -204t12.5 -130q-26 1 -72 4q-78 4 -102 4 q-32 0 -122 -5l-50 -3q9 60 12.5 131.5t3.5 181.5v185v82q0 156 -4.5 249.5t-15.5 169.5z" />
<glyph unicode="&#xee;" horiz-adv-x="596" d="M-23 1135l230 370h184l230 -370h-101l-221 182l-221 -182h-101zM121 999q54 -6 97.5 -9t78.5 -3q36 0 80 3t96 9q-10 -70 -15 -145t-5 -162q0 -34 1 -98t1 -94v-166q0 -130 3.5 -204t12.5 -130q-26 1 -72 4q-78 4 -102 4q-32 0 -122 -5l-50 -3q9 60 12.5 131.5t3.5 181.5 v185v82q0 156 -4.5 249.5t-15.5 169.5z" />
<glyph unicode="&#xef;" horiz-adv-x="596" d="M-41 1321q0 56 44 98.5t101 42.5q60 0 101 -41t41 -100q0 -63 -40 -104t-102 -41q-59 0 -102 42.5t-43 102.5zM121 999q54 -6 97.5 -9t78.5 -3q36 0 80 3t96 9q-10 -70 -15 -145t-5 -162q0 -34 1 -98t1 -94v-166q0 -130 3.5 -204t12.5 -130q-26 1 -72 4q-78 4 -102 4 q-32 0 -122 -5l-50 -3q9 60 12.5 131.5t3.5 181.5v185v82q0 156 -4.5 249.5t-15.5 169.5zM350 1321q0 56 43 98.5t101 42.5q59 0 101 -41t42 -100q0 -63 -41 -104t-102 -41q-60 0 -102 42.5t-42 102.5z" />
<glyph unicode="&#xf0;" horiz-adv-x="1161" d="M47 473q0 227 138.5 363.5t363.5 136.5q22 0 51.5 -1.5t66.5 -4.5l-212 204l-107 -102q-43 -44 -69 -74l-76 72l81 70l107 96l-134 119q-48 42 -75 63l160 146l86 -85l109 -108q62 55 111.5 106t76.5 87l88 -70l-8 -7l-203 -179l193 -197q191 -195 255 -330.5t64 -304.5 q0 -235 -141 -366.5t-393 -131.5q-254 0 -393.5 130.5t-139.5 367.5zM389 473q0 -219 44 -308t149 -89t148.5 88t43.5 309q0 222 -44 310.5t-148 88.5q-105 0 -149 -89.5t-44 -309.5z" />
<glyph unicode="&#xf1;" horiz-adv-x="1214" d="M121 0q9 124 13.5 249t4.5 251q0 129 -4.5 253.5t-13.5 245.5q40 -4 78.5 -6t72.5 -2q36 0 78 2t88 6v-145q70 88 148 127t186 39q161 0 236 -91t75 -290q0 -8 -2 -104.5t-2 -184.5q0 -114 3.5 -192.5t10.5 -157.5q-76 6 -109.5 8t-53.5 2q-30 0 -71.5 -2.5t-104.5 -7.5 q8 76 12 203.5t4 298.5q0 200 -34 263.5t-120 63.5q-88 0 -125.5 -77t-37.5 -267q0 -110 3 -232t8 -253q-68 6 -110.5 8t-72.5 2q-16 0 -44 -1.5t-116 -8.5zM280 1165q27 136 84 201.5t148 65.5q25 0 73 -12q2 0 5 -1l122 -30q3 -1 11 -3q25 -6 37 -6q40 0 64.5 21t41.5 72 h68q-29 -138 -85.5 -201.5t-148.5 -63.5q-16 0 -32.5 2t-30.5 7l-117 32q-22 6 -38 8t-32 3q-38 0 -65 -25t-37 -70h-68z" />
<glyph unicode="&#xf2;" horiz-adv-x="1161" d="M47 500q0 247 141.5 386.5t393.5 139.5q254 0 393 -137.5t139 -388.5q0 -247 -141.5 -386t-392.5 -139q-253 0 -393 138.5t-140 386.5zM250 1417q0 46 32 77.5t79 31.5q35 0 69 -20t86 -74l279 -297h-104l-336 163q-56 28 -80.5 56t-24.5 63zM389 500q0 -234 44 -329 t149 -95q104 0 148 94.5t44 329.5t-44 330.5t-148 95.5q-105 0 -149 -95.5t-44 -330.5z" />
<glyph unicode="&#xf3;" horiz-adv-x="1161" d="M47 500q0 247 141.5 386.5t393.5 139.5q254 0 393 -137.5t139 -388.5q0 -247 -141.5 -386t-392.5 -139q-253 0 -393 138.5t-140 386.5zM369 1135l279 297q52 54 86 74t69 20q47 0 79 -31.5t32 -77.5q0 -35 -24.5 -63t-80.5 -56l-336 -163h-104zM389 500q0 -234 44 -329 t149 -95q104 0 148 94.5t44 329.5t-44 330.5t-148 95.5q-105 0 -149 -95.5t-44 -330.5z" />
<glyph unicode="&#xf4;" horiz-adv-x="1161" d="M47 500q0 247 141.5 386.5t393.5 139.5q254 0 393 -137.5t139 -388.5q0 -247 -141.5 -386t-392.5 -139q-253 0 -393 138.5t-140 386.5zM260 1135l230 370h184l230 -370h-101l-221 182l-221 -182h-101zM389 500q0 -234 44 -329t149 -95q104 0 148 94.5t44 329.5t-44 330.5 t-148 95.5q-105 0 -149 -95.5t-44 -330.5z" />
<glyph unicode="&#xf5;" horiz-adv-x="1161" d="M47 500q0 247 141.5 386.5t393.5 139.5q254 0 393 -137.5t139 -388.5q0 -247 -141.5 -386t-392.5 -139q-253 0 -393 138.5t-140 386.5zM254 1165q27 136 84 201.5t148 65.5q25 0 73 -12q2 0 5 -1l122 -30q3 -1 11 -3q25 -6 37 -6q40 0 64.5 21t41.5 72h68 q-29 -138 -85.5 -201.5t-148.5 -63.5q-16 0 -32.5 2t-30.5 7l-117 32q-22 6 -38 8t-32 3q-38 0 -65 -25t-37 -70h-68zM389 500q0 -234 44 -329t149 -95q104 0 148 94.5t44 329.5t-44 330.5t-148 95.5q-105 0 -149 -95.5t-44 -330.5z" />
<glyph unicode="&#xf6;" horiz-adv-x="1161" d="M47 500q0 247 141.5 386.5t393.5 139.5q254 0 393 -137.5t139 -388.5q0 -247 -141.5 -386t-392.5 -139q-253 0 -393 138.5t-140 386.5zM242 1321q0 56 44 98.5t101 42.5q60 0 101 -41t41 -100q0 -63 -40 -104t-102 -41q-59 0 -102 42.5t-43 102.5zM389 500 q0 -234 44 -329t149 -95q104 0 148 94.5t44 329.5t-44 330.5t-148 95.5q-105 0 -149 -95.5t-44 -330.5zM633 1321q0 56 43 98.5t101 42.5q59 0 101 -41t42 -100q0 -63 -41 -104t-102 -41q-60 0 -102 42.5t-42 102.5z" />
<glyph unicode="&#xf7;" horiz-adv-x="1706" d="M254 512v199h1198v-199h-1198zM702 217q0 63 44.5 107.5t107.5 44.5q62 0 107 -45t45 -107q0 -61 -45 -105t-107 -44q-63 0 -107.5 43t-44.5 106zM702 1004q0 63 44.5 107t107.5 44q62 0 107 -44.5t45 -106.5q0 -63 -44.5 -107.5t-107.5 -44.5t-107.5 44.5t-44.5 107.5z " />
<glyph unicode="&#xf8;" horiz-adv-x="1161" d="M-18 -113l200 232q-72 85 -103.5 173.5t-31.5 207.5q0 248 141 386t394 138q90 0 164 -16.5t137 -51.5l174 218l88 -72l-172 -211q74 -71 107.5 -164t33.5 -227q0 -248 -141 -386.5t-393 -138.5q-91 0 -169.5 18.5t-134.5 51.5l-194 -235zM387 520q0 -6 1.5 -53.5 t2.5 -89.5l354 411q-19 71 -58.5 103.5t-104.5 32.5q-103 0 -149 -94.5t-46 -309.5zM410 233q16 -77 60 -117t112 -40q104 0 148 94.5t44 329.5q0 36 -1.5 73.5t-4.5 73.5z" />
<glyph unicode="&#xf9;" horiz-adv-x="1212" d="M113 999q77 -9 109 -11.5t54 -2.5q27 0 66.5 3t112.5 11q-8 -91 -12.5 -222t-4.5 -283q0 -201 34 -264.5t120 -63.5q88 0 126 76.5t38 265.5q0 70 -4 199t-10 292q64 -7 108.5 -10.5t77.5 -3.5q24 0 65 3.5t94 10.5q-9 -129 -13.5 -255t-4.5 -248q0 -147 4.5 -267.5 t13.5 -228.5h-12q-97 4 -139 4q-50 0 -157 -4h-11v141q-70 -88 -147.5 -127t-184.5 -39q-162 0 -236.5 90t-74.5 289q0 12 1 108t1 181q0 117 -3.5 196.5t-10.5 159.5zM274 1417q0 46 32 77.5t79 31.5q35 0 69 -20t86 -74l279 -297h-104l-336 163q-56 28 -80.5 56t-24.5 63z " />
<glyph unicode="&#xfa;" horiz-adv-x="1212" d="M113 999q77 -9 109 -11.5t54 -2.5q27 0 66.5 3t112.5 11q-8 -91 -12.5 -222t-4.5 -283q0 -201 34 -264.5t120 -63.5q88 0 126 76.5t38 265.5q0 70 -4 199t-10 292q64 -7 108.5 -10.5t77.5 -3.5q24 0 65 3.5t94 10.5q-9 -129 -13.5 -255t-4.5 -248q0 -147 4.5 -267.5 t13.5 -228.5h-12q-97 4 -139 4q-50 0 -157 -4h-11v141q-70 -88 -147.5 -127t-184.5 -39q-162 0 -236.5 90t-74.5 289q0 12 1 108t1 181q0 117 -3.5 196.5t-10.5 159.5zM393 1135l279 297q52 54 86 74t69 20q47 0 79 -31.5t32 -77.5q0 -35 -24.5 -63t-80.5 -56l-336 -163 h-104z" />
<glyph unicode="&#xfb;" horiz-adv-x="1212" d="M113 999q77 -9 109 -11.5t54 -2.5q27 0 66.5 3t112.5 11q-8 -91 -12.5 -222t-4.5 -283q0 -201 34 -264.5t120 -63.5q88 0 126 76.5t38 265.5q0 70 -4 199t-10 292q64 -7 108.5 -10.5t77.5 -3.5q24 0 65 3.5t94 10.5q-9 -129 -13.5 -255t-4.5 -248q0 -147 4.5 -267.5 t13.5 -228.5h-12q-97 4 -139 4q-50 0 -157 -4h-11v141q-70 -88 -147.5 -127t-184.5 -39q-162 0 -236.5 90t-74.5 289q0 12 1 108t1 181q0 117 -3.5 196.5t-10.5 159.5zM284 1135l230 370h184l230 -370h-101l-221 182l-221 -182h-101z" />
<glyph unicode="&#xfc;" horiz-adv-x="1212" d="M113 999q77 -9 109 -11.5t54 -2.5q27 0 66.5 3t112.5 11q-8 -91 -12.5 -222t-4.5 -283q0 -201 34 -264.5t120 -63.5q88 0 126 76.5t38 265.5q0 70 -4 199t-10 292q64 -7 108.5 -10.5t77.5 -3.5q24 0 65 3.5t94 10.5q-9 -129 -13.5 -255t-4.5 -248q0 -147 4.5 -267.5 t13.5 -228.5h-12q-97 4 -139 4q-50 0 -157 -4h-11v141q-70 -88 -147.5 -127t-184.5 -39q-162 0 -236.5 90t-74.5 289q0 12 1 108t1 181q0 117 -3.5 196.5t-10.5 159.5zM266 1321q0 56 44 98.5t101 42.5q60 0 101 -41t41 -100q0 -63 -40 -104t-102 -41q-59 0 -102 42.5 t-43 102.5zM657 1321q0 56 43 98.5t101 42.5q59 0 101 -41t42 -100q0 -63 -41 -104t-102 -41q-60 0 -102 42.5t-42 102.5z" />
<glyph unicode="&#xfd;" horiz-adv-x="979" d="M0 999q58 -4 109 -6t92 -2q36 0 81 2t95 6q38 -159 86.5 -312t107.5 -302l109 309q19 57 42 135.5t47 169.5l57 -5q28 -3 40 -3q37 0 70.5 2t67.5 6q-192 -402 -350.5 -790t-287.5 -768q-36 3 -65 4.5t-53 1.5q-25 0 -54 -1.5t-64 -4.5q49 76 90 149.5t73 143.5l110 239 l-288 748q-24 64 -52 131zM276 1135l279 297q52 54 86 74t69 20q47 0 79 -31.5t32 -77.5q0 -35 -24.5 -63t-80.5 -56l-336 -163h-104z" />
<glyph unicode="&#xfe;" horiz-adv-x="1237" d="M121 1536q51 -7 95.5 -10.5t80.5 -3.5q24 0 61 3t107 11q-6 -120 -9 -242.5t-3 -310.5v-113q62 81 132.5 117.5t164.5 36.5q193 0 301 -142.5t108 -398.5q0 -240 -110 -374t-306 -134q-103 0 -170 35t-120 115v-231q0 -32 3 -150t9 -325q-51 6 -94 10t-76 4t-75.5 -3.5 t-94.5 -10.5q8 139 12 294t4 373v137q0 476 -5 799t-15 514zM444 492q0 -187 50.5 -281t150.5 -94q98 0 145.5 92t47.5 283q0 194 -48.5 284t-152.5 90q-92 0 -142.5 -97t-50.5 -277z" />
<glyph unicode="&#xff;" horiz-adv-x="979" d="M0 999q58 -4 109 -6t92 -2q36 0 81 2t95 6q38 -159 86.5 -312t107.5 -302l109 309q19 57 42 135.5t47 169.5l57 -5q28 -3 40 -3q37 0 70.5 2t67.5 6q-192 -402 -350.5 -790t-287.5 -768q-36 3 -65 4.5t-53 1.5q-25 0 -54 -1.5t-64 -4.5q49 76 90 149.5t73 143.5l110 239 l-288 748q-24 64 -52 131zM149 1321q0 56 44 98.5t101 42.5q60 0 101 -41t41 -100q0 -63 -40 -104t-102 -41q-59 0 -102 42.5t-43 102.5zM540 1321q0 56 43 98.5t101 42.5q59 0 101 -41t42 -100q0 -63 -41 -104t-102 -41q-60 0 -102 42.5t-42 102.5z" />
<glyph unicode="&#x152;" horiz-adv-x="2081" d="M68 709q0 333 182 524.5t500 191.5q164 0 279 -58t185 -175v41q0 36 -1.5 73.5t-5.5 92.5q101 -5 190.5 -7.5t171.5 -2.5q46 0 132.5 2t287.5 8l-3 -25q-6 -50 -6 -67t6 -63q2 -18 2 -27q-83 7 -164.5 10.5t-160.5 3.5q-50 0 -73.5 -0.5t-42.5 -1.5q-5 -68 -7 -142 t-2 -159v-108q83 2 193 7t241 10q-3 -30 -4.5 -54.5t-1.5 -41.5q0 -19 1.5 -42t4.5 -51q-117 7 -224.5 11.5t-207.5 5.5v-223q0 -121 2 -175t6 -97q113 0 220.5 5.5t213.5 17.5q-4 -27 -6 -50.5t-2 -46.5q0 -17 2 -42l6 -54q-259 6 -363 8t-161 2q-95 0 -150 -2.5t-105 -7.5 q4 45 6.5 89t2.5 85v37q-59 -114 -181.5 -176t-289.5 -62q-319 0 -496 194t-177 542zM428 698q0 -284 100.5 -434.5t290.5 -150.5q178 0 281.5 156.5t103.5 428.5q0 282 -100.5 435t-284.5 153q-186 0 -288.5 -154t-102.5 -434z" />
<glyph unicode="&#x153;" horiz-adv-x="1794" d="M57 502q0 248 140.5 386t392.5 138q102 0 192.5 -29t163.5 -86q74 59 158.5 87t189.5 28q215 0 326 -116t111 -341q0 -29 -0.5 -43.5t-2.5 -27.5h-624v-6q0 -163 86 -256t235 -93q75 0 137 25.5t105 73.5l27 -13q-12 -35 -24 -75l-28 -93q-67 -43 -154.5 -64.5 t-193.5 -21.5q-119 0 -208 32.5t-142 94.5q-53 -60 -148 -93.5t-218 -33.5q-243 0 -382 140.5t-139 386.5zM397 496q0 -234 45 -329t152 -95q106 0 150 94t44 330q0 239 -43.5 332.5t-150.5 93.5q-106 0 -151.5 -96t-45.5 -330zM1104 616h317q0 12 2 24v3v21 q0 132 -38.5 201t-112.5 69q-81 0 -124.5 -74t-43.5 -211v-33z" />
<glyph unicode="&#x178;" horiz-adv-x="1120" d="M-49 1399q70 -6 119 -8t88 -2q32 0 82.5 2t144.5 8q67 -155 136 -296.5t141 -271.5q74 119 147.5 261.5t144.5 305.5q61 -6 80.5 -7.5t30.5 -1.5q23 0 53 2t75 8q-126 -185 -237 -375.5t-208 -390.5v-103q0 -142 3.5 -274.5t9.5 -255.5q-77 6 -121 8t-75 2q-22 0 -62 -2 t-120 -8q10 118 15 223t5 203q0 57 -3 174l-1 6l-198 367l-20 36q-120 229 -230 390zM221 1722q0 56 44 98.5t101 42.5q60 0 101 -41t41 -100q0 -63 -40 -104t-102 -41q-59 0 -102 42.5t-43 102.5zM612 1722q0 56 43 98.5t101 42.5q59 0 101 -41t42 -100q0 -63 -41 -104 t-102 -41q-60 0 -102 42.5t-42 102.5z" />
<glyph unicode="&#x2c6;" horiz-adv-x="1024" d="M190 1135l230 370h184l230 -370h-101l-221 182l-221 -182h-101z" />
<glyph unicode="&#x2dc;" horiz-adv-x="1024" d="M184 1165q27 136 84 201.5t148 65.5q25 0 73 -12q2 0 5 -1l122 -30q3 -1 11 -3q25 -6 37 -6q40 0 64.5 21t41.5 72h68q-29 -138 -85.5 -201.5t-148.5 -63.5q-16 0 -32.5 2t-30.5 7l-117 32q-22 6 -38 8t-32 3q-38 0 -65 -25t-37 -70h-68z" />
<glyph unicode="&#x2013;" horiz-adv-x="1024" d="M0 416v217h1024v-217h-1024z" />
<glyph unicode="&#x2014;" horiz-adv-x="2048" d="M0 416v217h2048v-217h-2048z" />
<glyph unicode="&#x2018;" horiz-adv-x="561" d="M100 901q0 26 8.5 50t24.5 46l305 428l62 -26l-121 -477q-19 -78 -54 -115t-89 -37q-58 0 -97 37.5t-39 93.5z" />
<glyph unicode="&#x2019;" horiz-adv-x="561" d="M109 795l118 479q19 77 54.5 114t91.5 37q57 0 95 -38t38 -95q0 -25 -8.5 -49.5t-24.5 -46.5l-305 -426z" />
<glyph unicode="&#x201a;" horiz-adv-x="561" d="M74 -322l119 480q18 77 54 114t91 37q57 0 96 -38t39 -95q0 -24 -9 -48.5t-26 -47.5l-303 -426z" />
<glyph unicode="&#x201c;" horiz-adv-x="981" d="M98 901q0 24 9 48.5t26 47.5l303 428l62 -26l-121 -477q-19 -78 -54 -115t-90 -37q-57 0 -96 37.5t-39 93.5zM518 901q0 26 8.5 50t24.5 46l305 428l62 -26l-121 -477q-19 -78 -54 -115t-90 -37q-57 0 -96 37.5t-39 93.5z" />
<glyph unicode="&#x201d;" horiz-adv-x="981" d="M109 795l118 479q19 77 54.5 114t91.5 37q57 0 95 -38t38 -95q0 -25 -8.5 -49.5t-24.5 -46.5l-305 -426zM526 795l121 479q19 77 54 114t90 37q57 0 96 -38t39 -95q0 -25 -8.5 -49.5t-24.5 -46.5l-305 -426z" />
<glyph unicode="&#x201e;" horiz-adv-x="981" d="M74 -322l119 480q18 77 54 114t91 37q57 0 96 -38t39 -95q0 -24 -9 -48.5t-26 -47.5l-303 -426zM494 -322l118 480q19 77 54.5 114t91.5 37q57 0 95 -38t38 -95q0 -25 -8.5 -49.5t-24.5 -46.5l-305 -426z" />
<glyph unicode="&#x2022;" horiz-adv-x="1208" d="M307 762q0 123 87 209t210 86q122 0 208.5 -86.5t86.5 -208.5t-87.5 -209.5t-209.5 -87.5q-123 0 -209 87t-86 210z" />
<glyph unicode="&#x2026;" horiz-adv-x="2048" d="M163 154q0 74 52 126t127 52q74 0 126 -51.5t52 -126.5q0 -74 -52.5 -126.5t-125.5 -52.5q-75 0 -127 52t-52 127zM845 154q0 74 52 126t127 52q74 0 126 -51.5t52 -126.5q0 -74 -52.5 -126.5t-125.5 -52.5q-75 0 -127 52t-52 127zM1529 154q0 74 52 126t127 52 q74 0 126 -51.5t52 -126.5q0 -74 -52.5 -126.5t-125.5 -52.5q-75 0 -127 52t-52 127z" />
<glyph unicode="&#x2039;" horiz-adv-x="569" d="M61 500l349 483l79 -84l-198 -393l198 -412l-79 -78z" />
<glyph unicode="&#x203a;" horiz-adv-x="569" d="M84 905l82 78l346 -483l-346 -484l-80 86l199 394z" />
<glyph unicode="&#x2122;" horiz-adv-x="1706" d="M207 1350v112h485v-112h-168v-435h-149v435h-168zM803 915v547h196l127 -332l123 332h197v-547h-135v410l-154 -410h-61l-158 410v-410h-135z" />
<glyph unicode="&#xe000;" horiz-adv-x="1000" d="M0 1000h1000v-1000h-1000v1000z" />
<glyph unicode="&#xf001;" horiz-adv-x="1241" d="M12 873q3 19 4.5 34.5t1.5 26.5q0 9 -2 26l-3 37q43 -5 79 -7.5t66 -2.5q25 241 139 395t264 154q35 0 68 -5t67 -15q-15 -54 -30.5 -119t-34.5 -158h-10q-41 37 -78 54.5t-76 17.5q-52 0 -84.5 -25.5t-32.5 -66.5q0 -19 9.5 -48t25.5 -57l70 -125h43q40 0 76.5 2t70.5 6 q0 -3 -1 -11q-3 -37 -3 -52q0 -13 3 -49q1 -9 1 -12q-25 1 -53 1h-80h-49v-464q0 -70 6 -172.5t18 -237.5q-61 5 -101.5 7.5t-70.5 2.5q-28 0 -67 -2t-104 -8q8 77 12 153.5t4 168.5v88v464q-17 2 -32.5 2.5t-33.5 0.5q-11 0 -47 -3q-22 -1 -35 -1zM770 999q55 -6 98 -9 t78 -3q36 0 80 3t96 9q-11 -75 -16.5 -155.5t-5.5 -177.5q0 -30 1 -85t1 -81v-99q0 -160 4 -248t14 -153q-25 1 -70 4q-81 4 -106 4q-32 0 -122 -5l-50 -3q9 60 12.5 131.5t3.5 181.5v185v141q0 131 -4 211.5t-14 148.5zM778 1354q0 70 49 119t119 49t118 -49t48 -119 q0 -69 -48.5 -117.5t-117.5 -48.5t-118.5 48.5t-49.5 117.5z" />
<glyph unicode="&#xfb01;" horiz-adv-x="1241" d="M12 873q3 19 4.5 34.5t1.5 26.5q0 9 -2 26l-3 37q43 -5 79 -7.5t66 -2.5q25 241 139 395t264 154q35 0 68 -5t67 -15q-15 -54 -30.5 -119t-34.5 -158h-10q-41 37 -78 54.5t-76 17.5q-52 0 -84.5 -25.5t-32.5 -66.5q0 -19 9.5 -48t25.5 -57l70 -125h43q40 0 76.5 2t70.5 6 q0 -3 -1 -11q-3 -37 -3 -52q0 -13 3 -49q1 -9 1 -12q-25 1 -53 1h-80h-49v-464q0 -70 6 -172.5t18 -237.5q-61 5 -101.5 7.5t-70.5 2.5q-28 0 -67 -2t-104 -8q8 77 12 153.5t4 168.5v88v464q-17 2 -32.5 2.5t-33.5 0.5q-11 0 -47 -3q-22 -1 -35 -1zM770 999q55 -6 98 -9 t78 -3q36 0 80 3t96 9q-11 -75 -16.5 -155.5t-5.5 -177.5q0 -30 1 -85t1 -81v-99q0 -160 4 -248t14 -153q-25 1 -70 4q-81 4 -106 4q-32 0 -122 -5l-50 -3q9 60 12.5 131.5t3.5 181.5v185v141q0 131 -4 211.5t-14 148.5zM778 1354q0 70 49 119t119 49t118 -49t48 -119 q0 -69 -48.5 -117.5t-117.5 -48.5t-118.5 48.5t-49.5 117.5z" />
<glyph unicode="&#xf002;" horiz-adv-x="1249" d="M12 873q3 19 4.5 34.5t1.5 26.5q0 9 -2 25l-3 38q43 -5 79 -7.5t66 -2.5q17 251 133 412.5t280 161.5q45 0 88 -6t89 -19q-25 -65 -48 -135l-49 -152h-20q-48 46 -86 65t-80 19q-51 0 -83 -25.5t-32 -66.5q0 -15 6.5 -35.5t28.5 -68.5l70 -148h43q40 0 76.5 2t70.5 6 q0 -3 -1 -11q-3 -37 -3 -52q0 -13 3 -49q1 -9 1 -12q-25 1 -53 1h-80h-49v-464q0 -70 6 -172.5t18 -237.5q-61 5 -101.5 7.5t-70.5 2.5q-28 0 -67 -2t-104 -8q8 77 12 153.5t4 168.5v88v464q-17 2 -32.5 2.5t-33.5 0.5q-11 0 -47 -3q-22 -1 -35 -1zM770 0q10 240 14 422 t4 342q0 192 -4.5 384.5t-13.5 387.5q72 -8 110.5 -11t65.5 -3q25 0 59.5 2.5t114.5 11.5q-8 -205 -12 -394.5t-4 -369.5q0 -217 4 -406.5t12 -365.5q-51 7 -94.5 10.5t-79.5 3.5q-25 0 -62.5 -3t-113.5 -11z" />
<glyph unicode="&#xfb02;" horiz-adv-x="1249" d="M12 873q3 19 4.5 34.5t1.5 26.5q0 9 -2 25l-3 38q43 -5 79 -7.5t66 -2.5q17 251 133 412.5t280 161.5q45 0 88 -6t89 -19q-25 -65 -48 -135l-49 -152h-20q-48 46 -86 65t-80 19q-51 0 -83 -25.5t-32 -66.5q0 -15 6.5 -35.5t28.5 -68.5l70 -148h43q40 0 76.5 2t70.5 6 q0 -3 -1 -11q-3 -37 -3 -52q0 -13 3 -49q1 -9 1 -12q-25 1 -53 1h-80h-49v-464q0 -70 6 -172.5t18 -237.5q-61 5 -101.5 7.5t-70.5 2.5q-28 0 -67 -2t-104 -8q8 77 12 153.5t4 168.5v88v464q-17 2 -32.5 2.5t-33.5 0.5q-11 0 -47 -3q-22 -1 -35 -1zM770 0q10 240 14 422 t4 342q0 192 -4.5 384.5t-13.5 387.5q72 -8 110.5 -11t65.5 -3q25 0 59.5 2.5t114.5 11.5q-8 -205 -12 -394.5t-4 -369.5q0 -217 4 -406.5t12 -365.5q-51 7 -94.5 10.5t-79.5 3.5q-25 0 -62.5 -3t-113.5 -11z" />
<glyph unicode="&#xfb03;" horiz-adv-x="1874" d="M12 873q3 19 4.5 34.5t1.5 26.5q0 9 -2 26l-3 37q43 -5 79 -7.5t66 -2.5q25 241 139 395t264 154q35 0 68 -5t67 -15q-15 -54 -30.5 -119t-34.5 -158h-10q-41 37 -78 54.5t-76 17.5q-52 0 -84.5 -25.5t-32.5 -66.5q0 -19 9.5 -48t25.5 -57l70 -125h43q40 0 76.5 2t70.5 6 q0 -3 -1 -11q-3 -37 -3 -52q0 -13 3 -49q1 -9 1 -12q-25 1 -53 1h-80h-49v-464q0 -70 6 -172.5t18 -237.5q-61 5 -101.5 7.5t-70.5 2.5q-28 0 -67 -2t-104 -8q8 77 12 153.5t4 168.5v88v464q-17 2 -32.5 2.5t-33.5 0.5q-11 0 -47 -3q-22 -1 -35 -1zM651 873q3 19 4.5 34.5 t1.5 26.5q0 9 -1 26l-4 37q43 -5 79 -7.5t66 -2.5q25 241 139 395t264 154q35 0 68 -5t67 -15q-15 -54 -30.5 -119t-34.5 -158h-10q-41 37 -78 54.5t-76 17.5q-52 0 -84.5 -25.5t-32.5 -66.5q0 -19 9.5 -48t25.5 -57l70 -125h43q40 0 76.5 2t70.5 6q0 -3 -1 -11 q-3 -37 -3 -52q0 -13 3 -49q1 -9 1 -12q-25 1 -53 1h-80h-49v-464q0 -70 6 -172.5t18 -237.5q-61 5 -101.5 7.5t-70.5 2.5q-28 0 -67 -2t-104 -8q8 77 12 153.5t4 168.5v88v464q-17 2 -32.5 2.5t-33.5 0.5q-11 0 -47 -3q-22 -1 -35 -1zM1399 999q54 -6 97.5 -9t78.5 -3 q36 0 80 3t96 9q-10 -70 -15 -145t-5 -162q0 -34 1 -98t1 -94v-166q0 -130 3.5 -204t12.5 -130q-26 1 -72 4q-78 4 -102 4q-32 0 -122 -5l-50 -3q9 60 12.5 131.5t3.5 181.5v185v82q0 156 -4.5 249.5t-15.5 169.5zM1409 1354q0 70 48.5 119t119.5 49q69 0 117.5 -49 t48.5 -119q0 -69 -49.5 -117.5t-118.5 -48.5t-117.5 48.5t-48.5 117.5z" />
<glyph unicode="&#xfb04;" horiz-adv-x="1890" d="M12 873q3 19 4.5 34.5t1.5 26.5q0 9 -2 26l-3 37q43 -5 79 -7.5t66 -2.5q25 241 139 395t264 154q35 0 68 -5t67 -15q-15 -54 -30.5 -119t-34.5 -158h-10q-41 37 -78 54.5t-76 17.5q-52 0 -84.5 -25.5t-32.5 -66.5q0 -19 9.5 -48t25.5 -57l70 -125h43q40 0 76.5 2t70.5 6 q0 -3 -1 -11q-3 -37 -3 -52q0 -13 3 -49q1 -9 1 -12q-25 1 -53 1h-80h-49v-464q0 -70 6 -172.5t18 -237.5q-61 5 -101.5 7.5t-70.5 2.5q-28 0 -67 -2t-104 -8q8 77 12 153.5t4 168.5v88v464q-17 2 -32.5 2.5t-33.5 0.5q-11 0 -47 -3q-22 -1 -35 -1zM651 873q3 19 4.5 34.5 t1.5 26.5q0 9 -1 26l-4 37q43 -5 79 -7.5t66 -2.5q25 241 139 395t264 154q35 0 68 -5t67 -15q-15 -54 -30.5 -119t-34.5 -158h-10q-41 37 -78 54.5t-76 17.5q-52 0 -84.5 -25.5t-32.5 -66.5q0 -19 9.5 -48t25.5 -57l70 -125h43q40 0 76.5 2t70.5 6q0 -3 -1 -11 q-3 -37 -3 -52q0 -13 3 -49q1 -9 1 -12q-25 1 -53 1h-80h-49v-464q0 -70 6 -172.5t18 -237.5q-61 5 -101.5 7.5t-70.5 2.5q-28 0 -67 -2t-104 -8q8 77 12 153.5t4 168.5v88v464q-17 2 -32.5 2.5t-33.5 0.5q-11 0 -47 -3q-22 -1 -35 -1zM1409 1536q51 -7 95 -10.5t79 -3.5 q25 0 61.5 3t106.5 11q-10 -245 -14 -425t-4 -339q0 -192 4.5 -384.5t13.5 -387.5q-52 7 -94.5 10.5t-73.5 3.5q-25 0 -59.5 -2.5t-113.5 -11.5q7 205 11 394.5t4 369.5q0 217 -4 406.5t-12 365.5z" />
</font>
</defs>
</svg>
